{
.appVersion = "1274";
DisplayStrings = (
"æbcdð/dcroat efgh/hbar i/dotlessi/ij jk/kcommaaccent/kgreenlandic l/lslash mn/eng oø/oe pþqrsßt/tbar uvwxyz"
);
copyright = "2009 - 2011, The League of Moveable Type";
customParameters = (
{
name = Axes;
value = (
{
Name = Slant;
Tag = slnt;
},
{
Name = Width;
Tag = wdth;
}
);
}
);
date = "2019-09-27 21:56:54 +0000";
designer = "The League of Moveable Type";
designerURL = "http://theleagueofmoveabletype.com";
disablesNiceNames = 1;
familyName = "League Gothic";
featurePrefixes = (
{
automatic = 1;
code = "languagesystem DFLT dflt;\012";
name = Languagesystems;
}
);
features = (
{
automatic = 1;
code = "feature sups;\012feature frac;\012feature ordn;\012";
name = aalt;
},
{
automatic = 1;
code = "sub one by onesuperior;\012sub two by twosuperior;\012sub three by threesuperior;\012";
name = sups;
},
{
automatic = 1;
code = "sub one slash four by onequarter;\012sub one slash two by onehalf;\012sub three slash four by threequarters;\012";
name = frac;
},
{
automatic = 1;
code = "sub [zero one two three four five six seven eight nine] [A a]' by ordfeminine;\012sub [zero one two three four five six seven eight nine] [O o]' by ordmasculine;\012";
name = ordn;
},
{
automatic = 1;
code = "lookupflag IgnoreMarks;\012sub f i by fi;\012sub f l by fl;\012";
name = liga;
}
);
fontMaster = (
{
alignmentZones = (
"{1470, 17}",
"{1470, 9}",
"{1094, 17}",
"{0, -17}",
"{-530, -31}"
);
ascender = 1470;
capHeight = 1470;
customParameters = (
{
name = openTypeHheaAscender;
value = 1470;
},
{
name = openTypeHheaDescender;
value = -530;
},
{
name = "Master Icon Glyph Name";
value = a;
}
);
descender = -530;
horizontalStems = (
164
);
id = "1AB499B8-18A8-432D-A211-B6882CCB886D";
verticalStems = (
202,
216
);
weightValue = 0;
xHeight = 1094;
},
{
alignmentZones = (
"{1470, 16}",
"{1094, 16}",
"{0, -16}",
"{-376, -16}",
"{-530, -31}"
);
ascender = 1470;
capHeight = 1470;
custom = Italic;
customParameters = (
{
name = TypoAscender;
value = 735;
},
{

glyphs = (
{
color = 4;
glyphname = A;
lastChange = "2019-11-22 22:53:53 +0000";
layers = (
{
anchors = (
{
name = bottom;
position = "{374, 0}";
},
{
name = ogonek;
position = "{673, 10}";
},
{
name = top;
position = "{374, 1470}";
}
);
layerId = "1AB499B8-18A8-432D-A211-B6882CCB886D";
paths = (
{
closed = 1;
nodes = (
"230 0 LINE",
"282 390 LINE",
"179 300 LINE",
"569 300 LINE",
"466 390 LINE",
"518 0 LINE",
"728 0 LINE",
"506 1470 LINE",
"242 1470 LINE",
"20 0 LINE"
);
},
{
closed = 1;
nodes = (
"362 992 LINE",
"368 1030 LINE",
"380 1030 LINE",
"386 992 LINE",
"460 438 LINE",
"539 528 LINE",
"209 528 LINE",
"288 438 LINE"
);
}
);
width = 748;
},
{
anchors = (
{
name = bottom;
position = "{374, 0}";
},
{
name = ogonek;
position = "{673, 10}";
},
{
name = top;
position = "{374, 1470}";
}
);
layerId = "E10EC336-1202-48FF-9A55-15876E80CDFD";
paths = (
{
closed = 1;
nodes = (
"230 0 LINE",
"361 386 LINE",
"241 300 LINE",
"631 300 LINE",
"547 391 LINE",
"518 0 LINE",
"728 0 LINE",
"818 1470 LINE",
"554 1470 LINE",
"20 0 LINE"
);
},
{
closed = 1;
nodes = (
"572 992 LINE",
"586 1030 LINE",
"598 1030 LINE",
"596 992 LINE",
"553 440 LINE",
"651 528 LINE",
"321 528 LINE",
"382 440 LINE"
);
}
);
width = 748;
},
{
anchors = (
{
name = bottom;
position = "{254, 0}";
},
{
name = ogonek;
position = "{457.064, 10}";
},
{
name = top;
position = "{254, 1470}";
}
);
layerId = "38BA14EB-08C8-4487-88C1-8F957131FCA1";
paths = (
{
closed = 1;
nodes = (
"76 0 LINE",
"177 353 LINE",
"107 300 LINE",
"309 300 LINE",
"262 354 LINE",
"212 0 LINE",
"374 0 LINE",
"556 1470 LINE",
"362 1470 LINE",
"-84 0 LINE"
);
},
{
closed = 1;
nodes = (
"389 1139 LINE",
"396 1165 LINE",
"391 1166 LINE",
"387 1140 LINE",
"281 475 LINE",
"345 528 LINE",
"173 528 LINE",
"214 475 LINE"
);
}
);
width = 508;
},
{
anchors = (
{
name = bottom;
position = "{254, 0}";
},
{
name = ogonek;
position = "{457.064, 10}";
},
{
name = top;
position = "{254, 1470}";
}
);
layerId = "6463F33F-C059-4755-9C76-9F35D70521A0";
paths = (
{
closed = 1;
nodes = (
"156 0 LINE",
"182 355 LINE",
"123 300 LINE",
"325 300 LINE",
"266 355 LINE",
"292 0 LINE",
"454 0 LINE",
"322 1470 LINE",
"128 1470 LINE",
"-6 0 LINE"
);
},
{
closed = 1;
nodes = (
"225 1107 LINE",
"225 1112 LINE",
"223 1112 LINE",
"223 1107 LINE",
"259 473 LINE",
"311 528 LINE",
"139 528 LINE",
"191 473 LINE"
);
}
);
width = 508;
}
);
leftKerningGroup = A;
rightKerningGroup = A;
unicode = 0041;
},
{
color = 2;
glyphname = AE;
lastChange = "2019-11-22 22:53:53 +0000";
layers = (
{
anchors = (
{
name = bottom;
position = "{537, 0}";
},
{
name = top;
position = "{537, 1470}";
}
);
layerId = "1AB499B8-18A8-432D-A211-B6882CCB886D";
paths = (
{
closed = 1;
nodes = (
"230 0 LINE",
"318 300 LINE",
"540 300 LINE",
"540 0 LINE",
"1034 0 LINE",
"1034 222 LINE",
"756 222 LINE",
"756 626 LINE",
"956 626 LINE",
"956 862 LINE",
"756 862 LINE",
"756 1248 LINE",
"1034 1248 LINE",
"1034 1470 LINE",
"426 1470 LINE",
"16 0 LINE"
);
},
{
closed = 1;
nodes = (
"530 1030 LINE",
"540 1030 LINE",
"540 528 LINE",
"384 528 LINE"
);
}
);
width = 1074;
},
{
anchors = (
{
name = bottom;
position = "{537, 0}";
},
{
name = top;
position = "{537, 1470}";
}
);
layerId = "E10EC336-1202-48FF-9A55-15876E80CDFD";
paths = (
{
closed = 1;
nodes = (
"230 0 LINE",
"380 300 LINE",
"602 300 LINE",
"540 0 LINE",
"1034 0 LINE",
"1080 222 LINE",
"802 222 LINE",
"888 626 LINE",
"1088 626 LINE",
"1138 862 LINE",
"938 862 LINE",
"1020 1248 LINE",
"1298 1248 LINE",
"1346 1470 LINE",
"738 1470 LINE",
"16 0 LINE"
);
},
{
closed = 1;
nodes = (
"748 1030 LINE",
"758 1030 LINE",
"652 528 LINE",
"496 528 LINE"
);
}
);
width = 1074;
},
{
anchors = (
{
name = bottom;
position = "{352, 0}";
},
{
name = top;
position = "{352, 1470}";
}
);
layerId = "38BA14EB-08C8-4487-88C1-8F957131FCA1";
paths = (
{
closed = 1;
nodes = (
"76 0 LINE",
"192 300 LINE",
"290 300 LINE",
"226 0 LINE",
"558 0 LINE",
"606 222 LINE",
"440 222 LINE",
"526 626 LINE",
"646 626 LINE",
"696 862 LINE",
"576 862 LINE",
"658 1248 LINE",
"824 1248 LINE",
"872 1470 LINE",
"472 1470 LINE",
"-86 0 LINE"
);
},
{
closed = 1;
nodes = (
"455 1076 LINE",
"456 1076 LINE",
"340 528 LINE",
"276 528 LINE"
);
}
);
width = 704;
},
{
anchors = (
{
name = bottom;
position = "{352, 0}";
},
{
name = top;
position = "{352, 1470}";
}
);
layerId = "6463F33F-C059-4755-9C76-9F35D70521A0";
paths = (
{
closed = 1;
nodes = (
"156 0 LINE",
"208 300 LINE",
"306 300 LINE",
"306 0 LINE",
"638 0 LINE",
"638 222 LINE",
"472 222 LINE",
"472 626 LINE",
"592 626 LINE",
"592 862 LINE",
"472 862 LINE",
"472 1248 LINE",
"638 1248 LINE",
"638 1470 LINE",
"238 1470 LINE",
"-8 0 LINE"
);
},
{
closed = 1;
nodes = (
"305 1076 LINE",
"306 1076 LINE",
"306 528 LINE",
"242 528 LINE"
);
}
);
width = 704;
}
);
unicode = 00C6;
},
{
color = 2;
glyphname = B;
lastChange = "2019-11-22 22:53:53 +0000";
layers = (
{
anchors = (
{
name = bottom;
position = "{364, 0}";
},
{
name = top;
position = "{364, 1470}";
}
);
background = {
paths = (
{
closed = 1;
nodes = (
"346 0 LINE",
"474 6 OFFCURVE",
"560 56 OFFCURVE",
"610 132 CURVE SMOOTH",
"660 208 OFFCURVE",
"680 306 OFFCURVE",
"680 416 CURVE SMOOTH",
"680 490 OFFCURVE",
"672 550 OFFCURVE",
"656 596 CURVE SMOOTH",
"624 690 OFFCURVE",
"584 746 OFFCURVE",
"530 776 CURVE",
"580 822 OFFCURVE",
"614 862 OFFCURVE",
"636 910 CURVE SMOOTH",
"658 958 OFFCURVE",
"664 1010 OFFCURVE",
"664 1080 CURVE SMOOTH",
"664 1226 OFFCURVE",
"630 1322 OFFCURVE",
"564 1384 CURVE SMOOTH",
"498 1446 OFFCURVE",
"398 1470 OFFCURVE",
"270 1470 CURVE SMOOTH",
"80 1470 LINE",
"80 0 LINE"
);
},
{
closed = 1;
nodes = (
"296 666 LINE",
"314 666 OFFCURVE",
"356 670 OFFCURVE",
"392 644 CURVE SMOOTH",
"428 618 OFFCURVE",
"456 560 OFFCURVE",
"456 440 CURVE SMOOTH",
"456 320 OFFCURVE",
"428 262 OFFCURVE",
"392 236 CURVE SMOOTH",
"356 210 OFFCURVE",
"314 214 OFFCURVE",
"296 214 CURVE"
);
},
{
closed = 1;
nodes = (
"296 1256 LINE",
"314 1256 OFFCURVE",
"356 1258 OFFCURVE",
"392 1234 CURVE SMOOTH",
"428 1210 OFFCURVE",
"456 1162 OFFCURVE",
"456 1060 CURVE SMOOTH",
"456 958 OFFCURVE",
"428 910 OFFCURVE",
"392 886 CURVE SMOOTH",
"356 862 OFFCURVE",
"314 864 OFFCURVE",
"296 864 CURVE"
);
}
);
};
layerId = "1AB499B8-18A8-432D-A211-B6882CCB886D";
paths = (
{
closed = 1;
nodes = (
"346 0 LINE SMOOTH",
"558 0 OFFCURVE",
"680 152 OFFCURVE",
"680 416 CURVE SMOOTH",
"680 591 OFFCURVE",
"625 722 OFFCURVE",
"529 776 CURVE",
"634 873 OFFCURVE",
"664 941 OFFCURVE",
"664 1080 CURVE SMOOTH",
"664 1357 OFFCURVE",
"549 1470 OFFCURVE",
"270 1470 CURVE SMOOTH",
"80 1470 LINE",
"80 0 LINE"
);
},
{
closed = 1;
nodes = (
"296 666 LINE",
"413 666 OFFCURVE",
"456 605 OFFCURVE",
"456 440 CURVE SMOOTH",
"456 275 OFFCURVE",
"413 214 OFFCURVE",
"296 214 CURVE"
);
},
{
closed = 1;
nodes = (
"296 1256 LINE",
"409 1256 OFFCURVE",
"456 1199 OFFCURVE",
"456 1060 CURVE SMOOTH",
"456 921 OFFCURVE",
"409 864 OFFCURVE",
"296 864 CURVE"
);
}
);
width = 728;
},
{
anchors = (
{
name = bottom;
position = "{364, 0}";
},
{
name = top;
position = "{364, 1470}";
}
);
background = {
paths = (
{
closed = 1;
nodes = (
"346 0 LINE",
"474 6 OFFCURVE",
"568 54 OFFCURVE",
"638 132 CURVE SMOOTH",
"704 210 OFFCURVE",
"744 304 OFFCURVE",
"768 416 CURVE SMOOTH",
"800 560 OFFCURVE",
"788 718 OFFCURVE",
"694 776 CURVE",
"756 822 OFFCURVE",
"796 862 OFFCURVE",
"828 910 CURVE SMOOTH",
"860 958 OFFCURVE",
"878 1010 OFFCURVE",
"892 1080 CURVE SMOOTH",
"924 1226 OFFCURVE",
"912 1322 OFFCURVE",
"858 1384 CURVE SMOOTH",
"804 1446 OFFCURVE",
"710 1470 OFFCURVE",
"582 1470 CURVE SMOOTH",
"392 1470 LINE",
"80 0 LINE"
);
},
{
closed = 1;
nodes = (
"436 666 LINE",
"446 666 OFFCURVE",
"460 666 OFFCURVE",
"478 666 CURVE",
"516 664 OFFCURVE",
"548 640 OFFCURVE",
"560 578 CURVE SMOOTH",
"566 546 OFFCURVE",
"562 500 OFFCURVE",
"548 440 CURVE SMOOTH",
"524 320 OFFCURVE",
"482 262 OFFCURVE",
"442 236 CURVE SMOOTH",
"400 210 OFFCURVE",
"358 214 OFFCURVE",
"340 214 CURVE"
);
},
{
closed = 1;
nodes = (
"562 1256 LINE",
"572 1256 OFFCURVE",
"586 1256 OFFCURVE",
"604 1254 CURVE",
"640 1252 OFFCURVE",
"672 1230 OFFCURVE",
"686 1176 CURVE SMOOTH",
"692 1150 OFFCURVE",
"690 1110 OFFCURVE",
"680 1060 CURVE SMOOTH",
"658 958 OFFCURVE",
"620 910 OFFCURVE",
"580 886 CURVE SMOOTH",
"538 862 OFFCURVE",
"496 864 OFFCURVE",
"478 864 CURVE"
);
}
);
};
layerId = "E10EC336-1202-48FF-9A55-15876E80CDFD";
paths = (
{
closed = 1;
nodes = (
"346 0 LINE SMOOTH",
"586 0 OFFCURVE",
"785 253 OFFCURVE",
"785 558 CURVE SMOOTH",
"785 671 OFFCURVE",
"758 736 OFFCURVE",
"694 776 CURVE",
"828 880 OFFCURVE",
"911 1051 OFFCURVE",
"911 1222 CURVE SMOOTH",
"911 1401 OFFCURVE",
"819 1470 OFFCURVE",
"582 1470 CURVE SMOOTH",
"392 1470 LINE",
"80 0 LINE"
);
},
{
closed = 1;
nodes = (
"438 666 LINE",
"541 666 OFFCURVE",
"563 645 OFFCURVE",
"563 548 CURVE SMOOTH",
"563 362 OFFCURVE",
"464 214 OFFCURVE",
"341 214 CURVE"
);
},
{
closed = 1;
nodes = (
"563 1256 LINE",
"664 1256 OFFCURVE",
"691 1231 OFFCURVE",
"691 1141 CURVE SMOOTH",
"691 983 OFFCURVE",
"600 864 OFFCURVE",
"480 864 CURVE"
);
}
);
width = 728;
},
{
anchors = (
{
name = bottom;
position = "{248, 0}";
},
{
name = top;
position = "{248, 1470}";
}
);
background = {
paths = (
{
closed = 1;
nodes = (
"168 0 LINE SMOOTH",
"254 0 OFFCURVE",
"314 78 OFFCURVE",
"342 126 CURVE SMOOTH",
"370 174 OFFCURVE",
"412 306 OFFCURVE",
"436 416 CURVE SMOOTH",
"450 488 OFFCURVE",
"468 586 OFFCURVE",
"468 632 CURVE",
"466 714 OFFCURVE",
"444 744 OFFCURVE",
"416 776 CURVE",
"460 804 OFFCURVE",
"486 846 OFFCURVE",
"510 890 CURVE",
"532 938 OFFCURVE",
"552 1010 OFFCURVE",
"566 1080 CURVE SMOOTH",
"596 1222 OFFCURVE",
"592 1320 OFFCURVE",
"564 1384 CURVE",
"536 1442 OFFCURVE",
"494 1470 OFFCURVE",
"410 1470 CURVE SMOOTH",
"264 1470 LINE",
"-48 0 LINE"
);
},
{
closed = 1;
nodes = (
"258 666 LINE",
"268 666 OFFCURVE",
"286 668 OFFCURVE",
"296 656 CURVE SMOOTH",
"312 636 OFFCURVE",
"298 564 OFFCURVE",
"272 440 CURVE SMOOTH",
"246 314 OFFCURVE",
"226 246 OFFCURVE",
"204 224 CURVE SMOOTH",
"192 212 OFFCURVE",
"170 214 OFFCURVE",
"162 214 CURVE"
);
},
{
closed = 1;
nodes = (
"384 1256 LINE",
"396 1256 OFFCURVE",
"412 1256 OFFCURVE",
"422 1244 CURVE",
"432 1222 OFFCURVE",
"426 1166 OFFCURVE",
"404 1060 CURVE SMOOTH",
"382 954 OFFCURVE",
"364 898 OFFCURVE",
"344 876 CURVE",
"332 864 OFFCURVE",
"310 864 OFFCURVE",
"300 864 CURVE"
);
},
{
closed = 1;
nodes = (
"168 0 LINE SMOOTH",
"254 0 OFFCURVE",
"314 78 OFFCURVE",
"342 126 CURVE SMOOTH",
"370 174 OFFCURVE",
"412 306 OFFCURVE",
"436 416 CURVE SMOOTH",
"450 488 OFFCURVE",
"468 586 OFFCURVE",
"468 632 CURVE",
"466 714 OFFCURVE",
"444 744 OFFCURVE",
"416 776 CURVE",
"460 804 OFFCURVE",
"486 846 OFFCURVE",
"510 890 CURVE",
"532 938 OFFCURVE",
"552 1010 OFFCURVE",
"566 1080 CURVE SMOOTH",
"596 1222 OFFCURVE",
"592 1320 OFFCURVE",
"564 1384 CURVE",
"536 1442 OFFCURVE",
"494 1470 OFFCURVE",
"410 1470 CURVE SMOOTH",
"264 1470 LINE",
"-48 0 LINE"
);
},
{
closed = 1;
nodes = (
"258 666 LINE",
"268 666 OFFCURVE",
"286 668 OFFCURVE",
"296 656 CURVE SMOOTH",
"312 636 OFFCURVE",
"298 564 OFFCURVE",
"272 440 CURVE SMOOTH",
"246 314 OFFCURVE",
"226 246 OFFCURVE",
"204 224 CURVE SMOOTH",
"192 212 OFFCURVE",
"170 214 OFFCURVE",
"162 214 CURVE"
);
},
{
closed = 1;
nodes = (
"384 1256 LINE",
"396 1256 OFFCURVE",
"412 1256 OFFCURVE",
"422 1244 CURVE",
"432 1222 OFFCURVE",
"426 1166 OFFCURVE",
"404 1060 CURVE SMOOTH",
"382 954 OFFCURVE",
"364 898 OFFCURVE",
"344 876 CURVE",
"332 864 OFFCURVE",
"310 864 OFFCURVE",
"300 864 CURVE"
);
}
);
};
layerId = "38BA14EB-08C8-4487-88C1-8F957131FCA1";
paths = (
{
closed = 1;
nodes = (
"168 0 LINE SMOOTH",
"314 0 OFFCURVE",
"462 314 OFFCURVE",
"462 623 CURVE SMOOTH",
"462 690 OFFCURVE",
"447 737 OFFCURVE",
"415 776 CURVE",
"502 831 OFFCURVE",
"588 1073 OFFCURVE",
"588 1263 CURVE SMOOTH",
"588 1403 OFFCURVE",
"530 1470 OFFCURVE",
"408 1470 CURVE SMOOTH",
"262 1470 LINE",
"-50 0 LINE"
);
},
{
closed = 1;
nodes = (
"258 666 LINE",
"289 666 OFFCURVE",
"301 653 OFFCURVE",
"301 618 CURVE SMOOTH",
"301 453 OFFCURVE",
"218 214 OFFCURVE",
"161 214 CURVE"
);
},
{
closed = 1;
nodes = (
"383 1256 LINE",
"415 1256 OFFCURVE",
"426 1243 OFFCURVE",
"426 1207 CURVE SMOOTH",
"426 1057 OFFCURVE",
"355 864 OFFCURVE",
"300 864 CURVE"
);
}
);
width = 496;
},
{
anchors = (
{
name = bottom;
position = "{248, 0}";
},
{
name = top;
position = "{248, 1470}";
}
);
background = {
paths = (
{
closed = 1;
nodes = (
"248 0 LINE SMOOTH",
"334 0 OFFCURVE",
"376 78 OFFCURVE",
"394 126 CURVE SMOOTH",
"412 174 OFFCURVE",
"426 306 OFFCURVE",
"426 416 CURVE SMOOTH",
"426 488 OFFCURVE",
"422 586 OFFCURVE",
"412 632 CURVE SMOOTH",
"394 714 OFFCURVE",
"364 744 OFFCURVE",
"330 776 CURVE",
"368 804 OFFCURVE",
"386 846 OFFCURVE",
"400 890 CURVE",
"412 938 OFFCURVE",
"416 1010 OFFCURVE",
"416 1080 CURVE SMOOTH",
"416 1222 OFFCURVE",
"390 1320 OFFCURVE",
"348 1384 CURVE SMOOTH",
"308 1442 OFFCURVE",
"260 1470 OFFCURVE",
"176 1470 CURVE SMOOTH",
"30 1470 LINE",
"30 0 LINE"
);
},
{
closed = 1;
nodes = (
"196 666 LINE",
"206 666 OFFCURVE",
"224 668 OFFCURVE",
"236 656 CURVE SMOOTH",
"256 636 OFFCURVE",
"258 564 OFFCURVE",
"258 440 CURVE SMOOTH",
"258 314 OFFCURVE",
"252 246 OFFCURVE",
"236 224 CURVE",
"226 212 OFFCURVE",
"204 214 OFFCURVE",
"196 214 CURVE"
);
},
{
closed = 1;
nodes = (
"196 1256 LINE",
"208 1256 OFFCURVE",
"224 1256 OFFCURVE",
"236 1244 CURVE",
"252 1222 OFFCURVE",
"258 1166 OFFCURVE",
"258 1060 CURVE SMOOTH",
"258 954 OFFCURVE",
"252 898 OFFCURVE",
"236 876 CURVE",
"228 864 OFFCURVE",
"206 864 OFFCURVE",
"196 864 CURVE"
);
},
{
closed = 1;
nodes = (
"248 0 LINE SMOOTH",
"334 0 OFFCURVE",
"376 78 OFFCURVE",
"394 126 CURVE SMOOTH",
"412 174 OFFCURVE",
"426 306 OFFCURVE",
"426 416 CURVE SMOOTH",
"426 488 OFFCURVE",
"422 586 OFFCURVE",
"412 632 CURVE SMOOTH",
"394 714 OFFCURVE",
"364 744 OFFCURVE",
"330 776 CURVE",
"368 804 OFFCURVE",
"386 846 OFFCURVE",
"400 890 CURVE SMOOTH",
"412 938 OFFCURVE",
"416 1010 OFFCURVE",
"416 1080 CURVE SMOOTH",
"416 1222 OFFCURVE",
"390 1320 OFFCURVE",
"348 1384 CURVE SMOOTH",
"308 1442 OFFCURVE",
"260 1470 OFFCURVE",
"176 1470 CURVE SMOOTH",
"30 1470 LINE",
"30 0 LINE"
);
},
{
closed = 1;
nodes = (
"196 666 LINE",
"206 666 OFFCURVE",
"224 668 OFFCURVE",
"236 656 CURVE SMOOTH",
"256 636 OFFCURVE",
"258 564 OFFCURVE",
"258 440 CURVE SMOOTH",
"258 314 OFFCURVE",
"252 246 OFFCURVE",
"236 224 CURVE SMOOTH",
"226 212 OFFCURVE",
"204 214 OFFCURVE",
"196 214 CURVE"
);
},
{
closed = 1;
nodes = (
"196 1256 LINE",
"208 1256 OFFCURVE",
"224 1256 OFFCURVE",
"236 1244 CURVE SMOOTH",
"252 1222 OFFCURVE",
"258 1166 OFFCURVE",
"258 1060 CURVE SMOOTH",
"258 954 OFFCURVE",
"252 898 OFFCURVE",
"236 876 CURVE SMOOTH",
"228 864 OFFCURVE",
"206 864 OFFCURVE",
"196 864 CURVE"
);
}
);
};
layerId = "6463F33F-C059-4755-9C76-9F35D70521A0";
paths = (
{
closed = 1;
nodes = (
"248 0 LINE SMOOTH",
"375 0 OFFCURVE",
"426 120 OFFCURVE",
"426 416 CURVE SMOOTH",
"426 614 OFFCURVE",
"401 709 OFFCURVE",
"330 776 CURVE",
"388 819 OFFCURVE",
"416 917 OFFCURVE",
"416 1080 CURVE SMOOTH",
"416 1349 OFFCURVE",
"341 1470 OFFCURVE",
"176 1470 CURVE SMOOTH",
"30 1470 LINE",
"30 0 LINE"
);
},
{
closed = 1;
nodes = (
"196 666 LINE",
"250 666 OFFCURVE",
"258 636 OFFCURVE",
"258 440 CURVE SMOOTH",
"258 234 OFFCURVE",
"252 214 OFFCURVE",
"196 214 CURVE"
);
},
{
closed = 1;
nodes = (
"196 1256 LINE",
"248 1256 OFFCURVE",
"258 1225 OFFCURVE",
"258 1060 CURVE SMOOTH",
"258 895 OFFCURVE",
"248 864 OFFCURVE",
"196 864 CURVE"
);
}
);
width = 496;
}
);
unicode = 0042;
},
{
color = 2;
glyphname = C;
lastChange = "2019-11-22 22:53:53 +0000";
layers = (
{
anchors = (
{
name = bottom;
position = "{346, 0}";
},
{
name = top;
position = "{346, 1470}";
}
);
layerId = "1AB499B8-18A8-432D-A211-B6882CCB886D";
paths = (
{
closed = 1;
nodes = (
"523 -16 OFFCURVE",
"642 115 OFFCURVE",
"642 302 CURVE SMOOTH",
"642 504 LINE",
"440 504 LINE",
"440 302 LINE SMOOTH",
"440 231 OFFCURVE",
"412 194 OFFCURVE",
"358 194 CURVE SMOOTH",
"315 194 OFFCURVE",
"282 236 OFFCURVE",
"282 302 CURVE SMOOTH",
"282 1168 LINE SMOOTH",
"282 1235 OFFCURVE",
"311 1276 OFFCURVE",
"358 1276 CURVE SMOOTH",
"411 1276 OFFCURVE",
"440 1237 OFFCURVE",
"440 1168 CURVE SMOOTH",
"440 966 LINE",
"642 966 LINE",
"642 1168 LINE SMOOTH",
"642 1358 OFFCURVE",
"526 1486 OFFCURVE",
"354 1486 CURVE SMOOTH",
"179 1486 OFFCURVE",
"66 1361 OFFCURVE",
"66 1168 CURVE SMOOTH",
"66 302 LINE SMOOTH",
"66 104 OFFCURVE",
"183 -16 OFFCURVE",
"354 -16 CURVE SMOOTH"
);
}
);
width = 692;
},
{
anchors = (
{
name = bottom;
position = "{346, 0}";
},
{
name = top;
position = "{346, 1470}";
}
);
layerId = "E10EC336-1202-48FF-9A55-15876E80CDFD";
paths = (
{
closed = 1;
nodes = (
"520 -16 OFFCURVE",
"664 102 OFFCURVE",
"706 302 CURVE SMOOTH",
"748 504 LINE",
"546 504 LINE",
"504 302 LINE SMOOTH",
"488 227 OFFCURVE",
"452 194 OFFCURVE",
"398 194 CURVE SMOOTH",
"355 194 OFFCURVE",
"332 237 OFFCURVE",
"346 302 CURVE SMOOTH",
"530 1168 LINE SMOOTH",
"545 1240 OFFCURVE",
"583 1276 OFFCURVE",
"628 1276 CURVE SMOOTH",
"680 1276 OFFCURVE",
"703 1236 OFFCURVE",
"688 1168 CURVE SMOOTH",
"644 966 LINE",
"846 966 LINE",
"890 1168 LINE SMOOTH",
"933 1364 OFFCURVE",
"838 1486 OFFCURVE",
"668 1486 CURVE SMOOTH",
"497 1486 OFFCURVE",
"356 1365 OFFCURVE",
"314 1168 CURVE SMOOTH",
"130 302 LINE SMOOTH",
"89 107 OFFCURVE",
"177 -16 OFFCURVE",
"350 -16 CURVE SMOOTH"
);
}
);
width = 692;
},
{
anchors = (
{
name = bottom;
position = "{238, 0}";
},
{
name = top;
position = "{238, 1470}";
}
);
layerId = "38BA14EB-08C8-4487-88C1-8F957131FCA1";
paths = (
{
closed = 1;
nodes = (
"255 -16 OFFCURVE",
"352 95 OFFCURVE",
"392 282 CURVE SMOOTH",
"440 504 LINE",
"278 504 LINE",
"230 282 LINE SMOOTH",
"219 231 OFFCURVE",
"197 194 OFFCURVE",
"178 194 CURVE SMOOTH",
"159 194 OFFCURVE",
"156 226 OFFCURVE",
"168 282 CURVE SMOOTH",
"364 1196 LINE SMOOTH",
"375 1249 OFFCURVE",
"390 1276 OFFCURVE",
"408 1276 CURVE SMOOTH",
"429 1276 OFFCURVE",
"435 1241 OFFCURVE",
"424 1188 CURVE SMOOTH",
"376 966 LINE",
"538 966 LINE",
"586 1188 LINE SMOOTH",
"623 1362 OFFCURVE",
"567 1486 OFFCURVE",
"450 1486 CURVE SMOOTH",
"335 1486 OFFCURVE",
"230 1365 OFFCURVE",
"192 1188 CURVE SMOOTH",
"0 282 LINE SMOOTH",
"-40 95 OFFCURVE",
"9 -16 OFFCURVE",
"132 -16 CURVE SMOOTH"
);
}
);
width = 476;
},
{
anchors = (
{
name = bottom;
position = "{238, 0}";
},
{
name = top;
position = "{238, 1470}";
}
);
layerId = "6463F33F-C059-4755-9C76-9F35D70521A0";
paths = (
{
closed = 1;
nodes = (
"338 -16 OFFCURVE",
"412 95 OFFCURVE",
"412 282 CURVE SMOOTH",
"412 504 LINE",
"250 504 LINE",
"250 282 LINE SMOOTH",
"250 231 OFFCURVE",
"236 194 OFFCURVE",
"216 194 CURVE SMOOTH",
"198 194 OFFCURVE",
"188 226 OFFCURVE",
"188 282 CURVE SMOOTH",
"188 1196 LINE SMOOTH",
"188 1250 OFFCURVE",
"197 1276 OFFCURVE",
"216 1276 CURVE SMOOTH",
"237 1276 OFFCURVE",
"250 1242 OFFCURVE",
"250 1188 CURVE SMOOTH",
"250 966 LINE",
"412 966 LINE",
"412 1188 LINE SMOOTH",
"412 1363 OFFCURVE",
"330 1486 OFFCURVE",
"214 1486 CURVE SMOOTH",
"98 1486 OFFCURVE",
"18 1365 OFFCURVE",
"18 1188 CURVE SMOOTH",
"18 282 LINE SMOOTH",
"18 94 OFFCURVE",
"90 -16 OFFCURVE",
"214 -16 CURVE SMOOTH"
);
}
);
width = 476;
}
);
unicode = 0043;
},
{
color = 0;
glyphname = D;
lastChange = "2019-11-22 22:53:53 +0000";
layers = (
{
anchors = (
{
name = bottom;
position = "{372, 0}";
},
{
name = center;
position = "{372, 735}";
},
{
name = top;
position = "{372, 1470}";
}
);
background = {
paths = (
{
closed = 1;
nodes = (
"250 0 LINE SMOOTH",
"450 0 OFFCURVE",
"558 40 OFFCURVE",
"616 152 CURVE SMOOTH",
"672 264 OFFCURVE",
"680 446 OFFCURVE",
"680 734 CURVE SMOOTH",
"680 1022 OFFCURVE",
"672 1206 OFFCURVE",
"616 1318 CURVE SMOOTH",
"558 1430 OFFCURVE",
"450 1470 OFFCURVE",
"250 1470 CURVE SMOOTH",
"80 1470 LINE",
"80 0 LINE"
);
},
{
closed = 1;
nodes = (
"296 1254 LINE",
"370 1254 OFFCURVE",
"412 1246 OFFCURVE",
"434 1176 CURVE SMOOTH",
"444 1140 OFFCURVE",
"452 1088 OFFCURVE",
"454 1020 CURVE SMOOTH",
"456 950 OFFCURVE",
"459 856 OFFCURVE",
"459 736 CURVE SMOOTH",
"459 616 OFFCURVE",
"456 522 OFFCURVE",
"454 452 CURVE SMOOTH",
"452 382 OFFCURVE",
"444 330 OFFCURVE",
"434 296 CURVE SMOOTH",
"412 224 OFFCURVE",
"370 216 OFFCURVE",
"296 216 CURVE"
);
}
);
};
layerId = "1AB499B8-18A8-432D-A211-B6882CCB886D";
paths = (
{
closed = 1;
nodes = (
"250 0 LINE SMOOTH",
"618 0 OFFCURVE",
"680 105 OFFCURVE",
"680 734 CURVE SMOOTH",
"680 1363 OFFCURVE",
"618 1470 OFFCURVE",
"250 1470 CURVE SMOOTH",
"80 1470 LINE",
"80 0 LINE"
);
},
{
closed = 1;
nodes = (
"296 1254 LINE",
"444 1254 OFFCURVE",
"456 1215 OFFCURVE",
"456 736 CURVE SMOOTH",
"456 246 OFFCURVE",
"447 216 OFFCURVE",
"296 216 CURVE"
);
}
);
width = 744;
},
{
anchors = (
{
name = bottom;
position = "{372, 0}";
},
{
name = center;
position = "{372, 735}";
},
{
name = top;
position = "{372, 1470}";
}
);
background = {
paths = (
{
closed = 1;
nodes = (
"250 0 LINE SMOOTH",
"450 0 OFFCURVE",
"566 40 OFFCURVE",
"648 152 CURVE SMOOTH",
"728 264 OFFCURVE",
"774 446 OFFCURVE",
"836 734 CURVE SMOOTH",
"898 1024 OFFCURVE",
"928 1206 OFFCURVE",
"896 1318 CURVE",
"858 1430 OFFCURVE",
"762 1470 OFFCURVE",
"562 1470 CURVE SMOOTH",
"392 1470 LINE",
"80 0 LINE"
);
},
{
closed = 1;
nodes = (
"562 1254 LINE",
"636 1254 OFFCURVE",
"676 1246 OFFCURVE",
"682 1176 CURVE SMOOTH",
"690 1104 OFFCURVE",
"666 992 OFFCURVE",
"646 898 CURVE SMOOTH",
"636 850 OFFCURVE",
"624 796 OFFCURVE",
"612 736 CURVE SMOOTH",
"598 676 OFFCURVE",
"588 622 OFFCURVE",
"578 576 CURVE SMOOTH",
"558 480 OFFCURVE",
"530 362 OFFCURVE",
"496 296 CURVE SMOOTH",
"458 224 OFFCURVE",
"414 216 OFFCURVE",
"340 216 CURVE"
);
}
);
};
layerId = "E10EC336-1202-48FF-9A55-15876E80CDFD";
paths = (
{
closed = 1;
nodes = (
"300 0 LINE SMOOTH",
"629 0 OFFCURVE",
"906 422 OFFCURVE",
"906 1211 CURVE SMOOTH",
"906 1439 OFFCURVE",
"782 1470 OFFCURVE",
"562 1470 CURVE SMOOTH",
"392 1470 LINE",
"80 0 LINE"
);
},
{
closed = 1;
nodes = (
"563 1254 LINE",
"644 1254 OFFCURVE",
"682 1242 OFFCURVE",
"682 1150 CURVE SMOOTH",
"682 1034 OFFCURVE",
"534 216 OFFCURVE",
"342 216 CURVE"
);
}
);
width = 744;
},
{
anchors = (
{
name = bottom;
position = "{253, 0}";
},
{
name = center;
position = "{253, 735}";
},
{
name = top;
position = "{253, 1470}";
}
);
layerId = "38BA14EB-08C8-4487-88C1-8F957131FCA1";
paths = (
{
closed = 1;
nodes = (
"100 0 LINE SMOOTH",
"232 0 OFFCURVE",
"292 52 OFFCURVE",
"334 130 CURVE SMOOTH",
"382 219 OFFCURVE",
"432 446 OFFCURVE",
"494 734 CURVE SMOOTH",
"556 1022 OFFCURVE",
"590 1206 OFFCURVE",
"580 1318 CURVE SMOOTH",
"570 1430 OFFCURVE",
"524 1470 OFFCURVE",
"392 1470 CURVE SMOOTH",
"254 1470 LINE",
"-58 0 LINE"
);
},
{
closed = 1;
nodes = (
"374 1254 LINE",
"398 1252 OFFCURVE",
"428 1258 OFFCURVE",
"424 1206 CURVE SMOOTH",
"417 1116 OFFCURVE",
"380 974 OFFCURVE",
"316 672 CURVE SMOOTH",
"279 496 OFFCURVE",
"240 312 OFFCURVE",
"224 264 CURVE SMOOTH",
"205 207 OFFCURVE",
"178 216 OFFCURVE",
"152 216 CURVE"
);
}
);
width = 506;
},
{
anchors = (
{
name = bottom;
position = "{253, 0}";
},
{
name = center;
position = "{253, 735}";
},
{
name = top;
position = "{253, 1470}";
}
);
background = {
paths = (
{
closed = 1;
nodes = (
"190 0 LINE SMOOTH",
"322 0 OFFCURVE",
"370 52 OFFCURVE",
"396 130 CURVE SMOOTH",
"426 218 OFFCURVE",
"426 446 OFFCURVE",
"426 734 CURVE SMOOTH",
"426 1021 OFFCURVE",
"422 1208 OFFCURVE",
"388 1317 CURVE SMOOTH",
"350 1439 OFFCURVE",
"290 1470 OFFCURVE",
"168 1470 CURVE SMOOTH",
"30 1470 LINE",
"30 0 LINE"
);
},
{
closed = 1;
nodes = (
"196 1254 LINE",
"220 1252 OFFCURVE",
"250 1258 OFFCURVE",
"256 1206 CURVE SMOOTH",
"266 1116 OFFCURVE",
"262 974 OFFCURVE",
"262 672 CURVE SMOOTH",
"262 481 OFFCURVE",
"262 371 OFFCURVE",
"262 328 CURVE",
"262 210 OFFCURVE",
"222 216 OFFCURVE",
"196 216 CURVE"
);
}
);
};
layerId = "6463F33F-C059-4755-9C76-9F35D70521A0";
width = 506;
}
);
unicode = 0044;
},
{
color = 0;
glyphname = Eth;
lastChange = "2019-11-22 22:53:53 +0000";
layers = (
{
layerId = "1AB499B8-18A8-432D-A211-B6882CCB886D";
paths = (
{
closed = 1;
nodes = (
"250 0 LINE SMOOTH",
"450 0 OFFCURVE",
"558 40 OFFCURVE",
"616 152 CURVE SMOOTH",
"672 264 OFFCURVE",
"680 446 OFFCURVE",
"680 734 CURVE SMOOTH",
"680 1022 OFFCURVE",
"672 1206 OFFCURVE",
"616 1318 CURVE SMOOTH",
"558 1430 OFFCURVE",
"450 1470 OFFCURVE",
"250 1470 CURVE SMOOTH",
"80 1470 LINE",
"80 862 LINE",
"20 862 LINE",
"20 640 LINE",
"80 640 LINE",
"80 0 LINE"
);
},
{
closed = 1;
nodes = (
"296 640 LINE",
"378 640 LINE",
"378 862 LINE",
"296 862 LINE",
"296 1254 LINE",
"370 1254 OFFCURVE",
"412 1246 OFFCURVE",
"434 1176 CURVE SMOOTH",
"444 1140 OFFCURVE",
"452 1088 OFFCURVE",
"454 1020 CURVE SMOOTH",
"456 950 OFFCURVE",
"456 856 OFFCURVE",
"456 736 CURVE SMOOTH",
"456 616 OFFCURVE",
"456 522 OFFCURVE",
"454 452 CURVE SMOOTH",
"452 382 OFFCURVE",
"444 330 OFFCURVE",
"434 296 CURVE SMOOTH",
"412 224 OFFCURVE",
"370 216 OFFCURVE",
"296 216 CURVE"
);
}
);
width = 744;
},
{
layerId = "E10EC336-1202-48FF-9A55-15876E80CDFD";
paths = (
{
closed = 1;
nodes = (
"250 0 LINE SMOOTH",
"450 0 OFFCURVE",
"566 40 OFFCURVE",
"648 152 CURVE SMOOTH",
"728 264 OFFCURVE",
"774 446 OFFCURVE",
"836 734 CURVE SMOOTH",
"898 1024 OFFCURVE",
"928 1206 OFFCURVE",
"896 1318 CURVE",
"858 1430 OFFCURVE",
"762 1470 OFFCURVE",
"562 1470 CURVE SMOOTH",
"392 1470 LINE",
"262 862 LINE",
"202 862 LINE",
"156 640 LINE",
"216 640 LINE",
"80 0 LINE"
);
},
{
closed = 1;
nodes = (
"432 640 LINE",
"514 640 LINE",
"560 862 LINE",
"478 862 LINE",
"562 1254 LINE",
"636 1254 OFFCURVE",
"676 1246 OFFCURVE",
"682 1176 CURVE SMOOTH",
"690 1104 OFFCURVE",
"666 992 OFFCURVE",
"646 898 CURVE SMOOTH",
"636 850 OFFCURVE",
"624 796 OFFCURVE",
"612 736 CURVE SMOOTH",
"598 676 OFFCURVE",
"588 622 OFFCURVE",
"578 576 CURVE SMOOTH",
"558 480 OFFCURVE",
"530 362 OFFCURVE",
"496 296 CURVE SMOOTH",
"458 224 OFFCURVE",
"414 216 OFFCURVE",
"340 216 CURVE"
);
}
);
width = 744;
},
{
layerId = "38BA14EB-08C8-4487-88C1-8F957131FCA1";
paths = (
{
closed = 1;
nodes = (
"70 0 LINE SMOOTH",
"338 0 OFFCURVE",
"376 132 OFFCURVE",
"504 734 CURVE SMOOTH",
"634 1346 OFFCURVE",
"656 1470 OFFCURVE",
"384 1470 CURVE SMOOTH",
"264 1470 LINE",
"134 862 LINE",
"98 862 LINE",
"52 640 LINE",
"88 640 LINE",
"-48 0 LINE"
);
},
{
closed = 1;
nodes = (
"254 640 LINE",
"284 640 LINE",
"330 862 LINE",
"300 862 LINE",
"384 1254 LINE",
"406 1252 OFFCURVE",
"438 1246 OFFCURVE",
"436 1186 CURVE SMOOTH",
"434 1150 OFFCURVE",
"426 1088 OFFCURVE",
"412 1020 CURVE SMOOTH",
"398 950 OFFCURVE",
"378 856 OFFCURVE",
"354 736 CURVE SMOOTH",
"328 616 OFFCURVE",
"308 522 OFFCURVE",
"292 452 CURVE SMOOTH",
"276 382 OFFCURVE",
"258 320 OFFCURVE",
"244 286 CURVE",
"224 228 OFFCURVE",
"184 220 OFFCURVE",
"162 216 CURVE"
);
}
);
width = 506;
},
{
layerId = "6463F33F-C059-4755-9C76-9F35D70521A0";
paths = (
{
closed = 1;
nodes = (
"150 0 LINE SMOOTH",
"418 0 OFFCURVE",
"426 132 OFFCURVE",
"426 734 CURVE SMOOTH",
"426 1346 OFFCURVE",
"422 1470 OFFCURVE",
"150 1470 CURVE SMOOTH",
"30 1470 LINE",
"30 862 LINE",
"-6 862 LINE",
"-6 640 LINE",
"30 640 LINE",
"30 0 LINE"
);
},
{
closed = 1;
nodes = (
"196 640 LINE",
"226 640 LINE",
"226 862 LINE",
"196 862 LINE",
"196 1254 LINE",
"196 216 LINE"
);
},
{
closed = 1;
nodes = (
"196 1254 LINE",
"220 1252 OFFCURVE",
"250 1258 OFFCURVE",
"256 1206 CURVE SMOOTH",
"266 1116 OFFCURVE",
"262 974 OFFCURVE",
"262 672 CURVE",
"262 328 OFFCURVE",
"262 328 OFFCURVE",
"262 328 CURVE",
"262 210 OFFCURVE",
"222 216 OFFCURVE",
"196 216 CURVE"
);
}
);
width = 506;
}
);
unicode = 00D0;
},
{
color = 0;
glyphname = Dcroat;
lastChange = "2019-11-22 22:53:53 +0000";
layers = (
{
layerId = "1AB499B8-18A8-432D-A211-B6882CCB886D";
paths = (
{
closed = 1;
nodes = (
"250 0 LINE SMOOTH",
"450 0 OFFCURVE",
"558 40 OFFCURVE",
"616 152 CURVE SMOOTH",
"672 264 OFFCURVE",
"680 446 OFFCURVE",
"680 734 CURVE SMOOTH",
"680 1022 OFFCURVE",
"672 1206 OFFCURVE",
"616 1318 CURVE SMOOTH",
"558 1430 OFFCURVE",
"450 1470 OFFCURVE",
"250 1470 CURVE SMOOTH",
"80 1470 LINE",
"80 0 LINE"
);
},
{
closed = 1;
nodes = (
"350 662 LINE",
"350 820 LINE",
"-38 820 LINE",
"-38 662 LINE"
);
},
{
closed = 1;
nodes = (
"296 1254 LINE",
"370 1254 OFFCURVE",
"412 1246 OFFCURVE",
"434 1176 CURVE SMOOTH",
"444 1140 OFFCURVE",
"452 1088 OFFCURVE",
"454 1020 CURVE SMOOTH",
"456 950 OFFCURVE",
"456 856 OFFCURVE",
"456 736 CURVE SMOOTH",
"456 616 OFFCURVE",
"456 522 OFFCURVE",
"454 452 CURVE SMOOTH",
"452 382 OFFCURVE",
"444 330 OFFCURVE",
"434 296 CURVE SMOOTH",
"412 224 OFFCURVE",
"370 216 OFFCURVE",
"296 216 CURVE"
);
}
);
width = 744;
},
{
layerId = "E10EC336-1202-48FF-9A55-15876E80CDFD";
paths = (
{
closed = 1;
nodes = (
"250 0 LINE SMOOTH",
"450 0 OFFCURVE",
"566 40 OFFCURVE",
"648 152 CURVE SMOOTH",
"728 264 OFFCURVE",
"774 446 OFFCURVE",
"836 734 CURVE SMOOTH",
"898 1024 OFFCURVE",
"928 1206 OFFCURVE",
"896 1318 CURVE",
"858 1430 OFFCURVE",
"762 1470 OFFCURVE",
"562 1470 CURVE SMOOTH",
"392 1470 LINE",
"254 820 LINE",
"136 820 LINE",
"102 662 LINE",
"220 662 LINE",
"80 0 LINE"
);
},
{
closed = 1;
nodes = (
"436 662 LINE",
"490 662 LINE",
"524 820 LINE",
"470 820 LINE",
"562 1254 LINE",
"636 1254 OFFCURVE",
"676 1246 OFFCURVE",
"682 1176 CURVE SMOOTH",
"690 1104 OFFCURVE",
"666 992 OFFCURVE",
"646 898 CURVE SMOOTH",
"636 850 OFFCURVE",
"624 796 OFFCURVE",
"612 736 CURVE SMOOTH",
"598 676 OFFCURVE",
"588 622 OFFCURVE",
"578 576 CURVE SMOOTH",
"558 480 OFFCURVE",
"530 362 OFFCURVE",
"496 296 CURVE SMOOTH",
"458 224 OFFCURVE",
"414 216 OFFCURVE",
"340 216 CURVE"
);
}
);
width = 744;
},
{
layerId = "38BA14EB-08C8-4487-88C1-8F957131FCA1";
paths = (
{
closed = 1;
nodes = (
"110 0 LINE SMOOTH",
"242 0 OFFCURVE",
"302 52 OFFCURVE",
"344 130 CURVE SMOOTH",
"394 218 OFFCURVE",
"442 446 OFFCURVE",
"504 734 CURVE SMOOTH",
"564 1022 OFFCURVE",
"600 1206 OFFCURVE",
"590 1318 CURVE",
"576 1430 OFFCURVE",
"534 1470 OFFCURVE",
"402 1470 CURVE SMOOTH",
"264 1470 LINE",
"126 820 LINE",
"56 820 LINE",
"22 662 LINE",
"92 662 LINE",
"-48 0 LINE"
);
},
{
closed = 1;
nodes = (
"258 662 LINE",
"290 662 LINE",
"324 820 LINE",
"292 820 LINE",
"384 1254 LINE",
"408 1252 OFFCURVE",
"438 1258 OFFCURVE",
"434 1206 CURVE SMOOTH",
"424 1116 OFFCURVE",
"390 974 OFFCURVE",
"326 672 CURVE SMOOTH",
"288 496 OFFCURVE",
"250 312 OFFCURVE",
"234 264 CURVE",
"212 208 OFFCURVE",
"188 216 OFFCURVE",
"162 216 CURVE"
);
}
);
width = 506;
},
{
layerId = "6463F33F-C059-4755-9C76-9F35D70521A0";
paths = (
{
closed = 1;
nodes = (
"190 0 LINE SMOOTH",
"322 0 OFFCURVE",
"370 52 OFFCURVE",
"396 130 CURVE SMOOTH",
"426 218 OFFCURVE",
"426 446 OFFCURVE",
"426 734 CURVE SMOOTH",
"426 1022 OFFCURVE",
"422 1206 OFFCURVE",
"388 1318 CURVE SMOOTH",
"352 1430 OFFCURVE",
"300 1470 OFFCURVE",
"168 1470 CURVE SMOOTH",
"30 1470 LINE",
"30 820 LINE",
"-40 820 LINE",
"-40 662 LINE",
"30 662 LINE",
"30 0 LINE"
);
},
{
closed = 1;
nodes = (
"196 662 LINE",
"228 662 LINE",
"228 820 LINE",
"196 820 LINE",
"196 1254 LINE",
"196 216 LINE"
);
},
{
closed = 1;
nodes = (
"196 1254 LINE",
"220 1252 OFFCURVE",
"250 1258 OFFCURVE",
"256 1206 CURVE SMOOTH",
"266 1116 OFFCURVE",
"262 974 OFFCURVE",
"262 672 CURVE",
"262 328 OFFCURVE",
"262 328 OFFCURVE",
"262 328 CURVE",
"262 210 OFFCURVE",
"222 216 OFFCURVE",
"196 216 CURVE"
);
}
);
width = 506;
}
);
unicode = 0110;
},
{
color = 0;
glyphname = E;
lastChange = "2019-11-22 22:53:53 +0000";
layers = (
{
anchors = (
{
name = bottom;
position = "{307, 0}";
},
{
name = ogonek;
position = "{553, 10}";
},
{
name = top;
position = "{307, 1470}";
},
{
name = topleft;
position = "{20, 1470}";
}
);
layerId = "1AB499B8-18A8-432D-A211-B6882CCB886D";
paths = (
{
closed = 1;
nodes = (
"574 0 LINE",
"574 222 LINE",
"296 222 LINE",
"296 626 LINE",
"496 626 LINE",
"496 862 LINE",
"296 862 LINE",
"296 1248 LINE",
"574 1248 LINE",
"574 1470 LINE",
"80 1470 LINE",
"80 0 LINE"
);
}
);
width = 614;
},
{
layerId = "E10EC336-1202-48FF-9A55-15876E80CDFD";
paths = (
{
closed = 1;
nodes = (
"574 0 LINE",
"620 222 LINE",
"342 222 LINE",
"428 626 LINE",
"628 626 LINE",
"678 862 LINE",
"478 862 LINE",
"560 1248 LINE",
"838 1248 LINE",
"886 1470 LINE",
"392 1470 LINE",
"80 0 LINE"
);
}
);
width = 614;
},
{
layerId = "38BA14EB-08C8-4487-88C1-8F957131FCA1";
paths = (
{
closed = 1;
nodes = (
"282 0 LINE",
"330 222 LINE",
"164 222 LINE",
"250 626 LINE",
"370 626 LINE",
"420 862 LINE",
"300 862 LINE",
"382 1248 LINE",
"548 1248 LINE",
"596 1470 LINE",
"264 1470 LINE",
"-48 0 LINE"
);
}
);
width = 428;
},
{
layerId = "6463F33F-C059-4755-9C76-9F35D70521A0";
paths = (
{
closed = 1;
nodes = (
"362 0 LINE",
"362 222 LINE",
"196 222 LINE",
"196 626 LINE",
"316 626 LINE",
"316 862 LINE",
"196 862 LINE",
"196 1248 LINE",
"362 1248 LINE",
"362 1470 LINE",
"30 1470 LINE",
"30 0 LINE"
);
}
);
width = 428;
}
);
rightKerningGroup = E;
unicode = 0045;
},
{
color = 0;
glyphname = F;
lastChange = "2019-11-22 22:53:53 +0000";
layers = (
{
anchors = (
{
name = bottom;
position = "{301, 0}";
},
{
name = top;
position = "{301, 1470}";
}
);
layerId = "1AB499B8-18A8-432D-A211-B6882CCB886D";
paths = (
{
closed = 1;
nodes = (
"296 0 LINE",
"296 640 LINE",
"496 640 LINE",
"496 862 LINE",
"296 862 LINE",
"296 1248 LINE",
"594 1248 LINE",
"594 1470 LINE",
"80 1470 LINE",
"80 0 LINE"
);
}
);
width = 602;
},
{
layerId = "E10EC336-1202-48FF-9A55-15876E80CDFD";
paths = (
{
closed = 1;
nodes = (
"296 0 LINE",
"432 640 LINE",
"632 640 LINE",
"678 862 LINE",
"478 862 LINE",
"560 1248 LINE",
"858 1248 LINE",
"906 1470 LINE",
"392 1470 LINE",
"80 0 LINE"
);
}
);
width = 602;
},
{
layerId = "38BA14EB-08C8-4487-88C1-8F957131FCA1";
paths = (
{
closed = 1;
nodes = (
"116 0 LINE",
"254 640 LINE",
"374 640 LINE",
"420 862 LINE",
"300 862 LINE",
"382 1248 LINE",
"560 1248 LINE",
"608 1470 LINE",
"264 1470 LINE",
"-48 0 LINE"
);
}
);
width = 422;
},
{
layerId = "6463F33F-C059-4755-9C76-9F35D70521A0";
paths = (
{
closed = 1;
nodes = (
"196 0 LINE",
"196 640 LINE",
"316 640 LINE",
"316 862 LINE",
"196 862 LINE",
"196 1248 LINE",
"374 1248 LINE",
"374 1470 LINE",
"30 1470 LINE",
"30 0 LINE"
);
}
);
width = 422;
}
);
unicode = 0046;
},
{
color = 0;
glyphname = G;
lastChange = "2019-11-22 22:53:53 +0000";
layers = (
{
anchors = (
{
name = bottom;
position = "{360, 0}";
},
{
name = top;
position = "{360, 1470}";
}
);
layerId = "1AB499B8-18A8-432D-A211-B6882CCB886D";
paths = (
{
closed = 1;
nodes = (
"390 -16 OFFCURVE",
"448 20 OFFCURVE",
"488 70 CURVE",
"514 0 LINE",
"642 0 LINE",
"642 732 LINE",
"340 732 LINE",
"340 550 LINE",
"426 550 LINE",
"426 284 LINE SMOOTH",
"426 262 OFFCURVE",
"424 244 OFFCURVE",
"418 230 CURVE",
"410 200 OFFCURVE",
"392 176 OFFCURVE",
"354 176 CURVE SMOOTH",
"336 176 OFFCURVE",
"322 182 OFFCURVE",
"312 192 CURVE",
"292 214 OFFCURVE",
"282 242 OFFCURVE",
"282 284 CURVE SMOOTH",
"282 1168 LINE SMOOTH",
"282 1188 OFFCURVE",
"284 1206 OFFCURVE",
"290 1222 CURVE",
"298 1248 OFFCURVE",
"316 1276 OFFCURVE",
"354 1276 CURVE SMOOTH",
"372 1276 OFFCURVE",
"388 1270 OFFCURVE",
"398 1260 CURVE",
"418 1236 OFFCURVE",
"426 1208 OFFCURVE",
"426 1168 CURVE SMOOTH",
"426 942 LINE",
"642 942 LINE",
"642 1168 LINE SMOOTH",
"640 1226 OFFCURVE",
"628 1280 OFFCURVE",
"606 1326 CURVE SMOOTH",
"588 1366 OFFCURVE",
"560 1406 OFFCURVE",
"520 1436 CURVE SMOOTH",
"480 1466 OFFCURVE",
"426 1486 OFFCURVE",
"354 1486 CURVE SMOOTH",
"282 1486 OFFCURVE",
"226 1466 OFFCURVE",
"186 1436 CURVE SMOOTH",
"146 1406 OFFCURVE",
"120 1366 OFFCURVE",
"102 1326 CURVE SMOOTH",
"80 1280 OFFCURVE",
"68 1226 OFFCURVE",
"66 1168 CURVE SMOOTH",
"66 302 LINE SMOOTH",
"64 242 OFFCURVE",
"72 188 OFFCURVE",
"90 142 CURVE SMOOTH",
"106 102 OFFCURVE",
"130 64 OFFCURVE",
"166 34 CURVE SMOOTH",
"202 2 OFFCURVE",
"250 -16 OFFCURVE",
"320 -16 CURVE SMOOTH"
);
}
);
width = 720;
},
{
layerId = "E10EC336-1202-48FF-9A55-15876E80CDFD";
paths = (
{
closed = 1;
nodes = (
"386 -16 OFFCURVE",
"452 20 OFFCURVE",
"502 70 CURVE",
"514 0 LINE",
"642 0 LINE",
"796 732 LINE",
"494 732 LINE",
"456 550 LINE",
"542 550 LINE",
"486 284 LINE",
"480 260 OFFCURVE",
"472 242 OFFCURVE",
"466 230 CURVE SMOOTH",
"452 200 OFFCURVE",
"428 176 OFFCURVE",
"390 176 CURVE SMOOTH",
"372 176 OFFCURVE",
"360 182 OFFCURVE",
"352 192 CURVE",
"336 214 OFFCURVE",
"332 246 OFFCURVE",
"342 284 CURVE",
"530 1168 LINE SMOOTH",
"534 1188 OFFCURVE",
"540 1206 OFFCURVE",
"548 1222 CURVE SMOOTH",
"562 1248 OFFCURVE",
"586 1276 OFFCURVE",
"624 1276 CURVE SMOOTH",
"642 1276 OFFCURVE",
"656 1270 OFFCURVE",
"664 1260 CURVE",
"678 1238 OFFCURVE",
"682 1208 OFFCURVE",
"674 1168 CURVE SMOOTH",
"626 942 LINE",
"842 942 LINE",
"890 1168 LINE",
"900 1230 OFFCURVE",
"900 1282 OFFCURVE",
"886 1326 CURVE",
"878 1366 OFFCURVE",
"858 1406 OFFCURVE",
"824 1436 CURVE SMOOTH",
"790 1466 OFFCURVE",
"740 1486 OFFCURVE",
"668 1486 CURVE SMOOTH",
"596 1486 OFFCURVE",
"536 1466 OFFCURVE",
"490 1436 CURVE SMOOTH",
"444 1406 OFFCURVE",
"412 1366 OFFCURVE",
"382 1326 CURVE",
"350 1278 OFFCURVE",
"328 1226 OFFCURVE",
"314 1168 CURVE SMOOTH",
"130 302 LINE",
"114 240 OFFCURVE",
"110 188 OFFCURVE",
"120 142 CURVE",
"126 102 OFFCURVE",
"142 64 OFFCURVE",
"172 34 CURVE SMOOTH",
"202 2 OFFCURVE",
"246 -16 OFFCURVE",
"316 -16 CURVE SMOOTH"
);
}
);
width = 720;
},
{
layerId = "38BA14EB-08C8-4487-88C1-8F957131FCA1";
paths = (
{
closed = 1;
nodes = (
"154 -16 OFFCURVE",
"216 18 OFFCURVE",
"242 54 CURVE",
"248 0 LINE",
"334 0 LINE",
"490 732 LINE",
"300 732 LINE",
"262 550 LINE",
"298 550 LINE",
"238 264 LINE SMOOTH",
"230 228 OFFCURVE",
"214 176 OFFCURVE",
"178 176 CURVE SMOOTH",
"154 176 OFFCURVE",
"154 218 OFFCURVE",
"164 264 CURVE SMOOTH",
"360 1188 LINE SMOOTH",
"368 1224 OFFCURVE",
"386 1276 OFFCURVE",
"408 1276 CURVE SMOOTH",
"436 1276 OFFCURVE",
"428 1218 OFFCURVE",
"422 1188 CURVE SMOOTH",
"370 942 LINE",
"536 942 LINE",
"588 1188 LINE SMOOTH",
"612 1306 OFFCURVE",
"612 1486 OFFCURVE",
"452 1486 CURVE SMOOTH",
"302 1486 OFFCURVE",
"220 1320 OFFCURVE",
"192 1188 CURVE SMOOTH",
"0 282 LINE SMOOTH",
"-22 178 OFFCURVE",
"-28 -16 OFFCURVE",
"118 -16 CURVE SMOOTH"
);
}
);
width = 492;
},
{
layerId = "6463F33F-C059-4755-9C76-9F35D70521A0";
paths = (
{
closed = 1;
nodes = (
"236 -16 OFFCURVE",
"292 18 OFFCURVE",
"310 54 CURVE",
"328 0 LINE",
"414 0 LINE",
"414 732 LINE",
"224 732 LINE",
"224 550 LINE",
"260 550 LINE",
"260 264 LINE SMOOTH",
"260 228 OFFCURVE",
"256 176 OFFCURVE",
"220 176 CURVE SMOOTH",
"196 176 OFFCURVE",
"186 218 OFFCURVE",
"186 264 CURVE SMOOTH",
"186 1188 LINE SMOOTH",
"186 1224 OFFCURVE",
"194 1276 OFFCURVE",
"216 1276 CURVE SMOOTH",
"244 1276 OFFCURVE",
"248 1218 OFFCURVE",
"248 1188 CURVE SMOOTH",
"248 942 LINE",
"414 942 LINE",
"414 1188 LINE SMOOTH",
"414 1306 OFFCURVE",
"376 1486 OFFCURVE",
"216 1486 CURVE SMOOTH",
"66 1486 OFFCURVE",
"18 1320 OFFCURVE",
"18 1188 CURVE SMOOTH",
"18 282 LINE SMOOTH",
"18 178 OFFCURVE",
"52 -16 OFFCURVE",
"200 -16 CURVE SMOOTH"
);
}
);
width = 492;
}
);
unicode = 0047;
},
{
color = 0;
glyphname = H;
lastChange = "2019-11-22 22:53:53 +0000";
layers = (
{
anchors = (
{
name = bottom;
position = "{380, 0}";
},
{
name = center;
position = "{380, 735}";
},
{
name = top;
position = "{380, 1470}";
},
{
name = topleft;
position = "{20, 1470}";
}
);
layerId = "1AB499B8-18A8-432D-A211-B6882CCB886D";
paths = (
{
closed = 1;
nodes = (
"296 0 LINE",
"296 640 LINE",
"464 640 LINE",
"464 0 LINE",
"680 0 LINE",
"680 1470 LINE",
"464 1470 LINE",
"464 862 LINE",
"296 862 LINE",
"296 1470 LINE",
"80 1470 LINE",
"80 0 LINE"
);
}
);
width = 760;
},
{
layerId = "E10EC336-1202-48FF-9A55-15876E80CDFD";
paths = (
{
closed = 1;
nodes = (
"296 0 LINE",
"432 640 LINE",
"600 640 LINE",
"464 0 LINE",
"680 0 LINE",
"992 1470 LINE",
"776 1470 LINE",
"646 862 LINE",
"478 862 LINE",
"608 1470 LINE",
"392 1470 LINE",
"80 0 LINE"
);
}
);
width = 760;
},
{
layerId = "38BA14EB-08C8-4487-88C1-8F957131FCA1";
paths = (
{
closed = 1;
nodes = (
"116 0 LINE",
"254 640 LINE",
"318 640 LINE",
"180 0 LINE",
"346 0 LINE",
"660 1470 LINE",
"494 1470 LINE",
"364 862 LINE",
"300 862 LINE",
"430 1470 LINE",
"264 1470 LINE",
"-48 0 LINE"
);
}
);
width = 516;
},
{
layerId = "6463F33F-C059-4755-9C76-9F35D70521A0";
paths = (
{
closed = 1;
nodes = (
"196 0 LINE",
"196 640 LINE",
"260 640 LINE",
"260 0 LINE",
"426 0 LINE",
"426 1470 LINE",
"260 1470 LINE",
"260 862 LINE",
"196 862 LINE",
"196 1470 LINE",
"30 1470 LINE",
"30 0 LINE"
);
}
);
width = 516;
}
);
unicode = 0048;
},
{
color = 0;
glyphname = Hbar;
lastChange = "2019-11-22 22:53:53 +0000";
layers = (
{
layerId = "1AB499B8-18A8-432D-A211-B6882CCB886D";
paths = (
{
closed = 1;
nodes = (
"296 0 LINE",
"296 640 LINE",
"464 640 LINE",
"464 0 LINE",
"680 0 LINE",
"680 1470 LINE",
"464 1470 LINE",
"464 862 LINE",
"296 862 LINE",
"296 1470 LINE",
"80 1470 LINE",
"80 0 LINE"
);
},
{
closed = 1;
nodes = (
"760 1096 LINE",
"760 1254 LINE",
"2 1254 LINE",
"2 1096 LINE"
);
}
);
width = 760;
},
{
layerId = "E10EC336-1202-48FF-9A55-15876E80CDFD";
paths = (
{
closed = 1;
nodes = (
"296 0 LINE",
"432 640 LINE",
"600 640 LINE",
"464 0 LINE",
"680 0 LINE",
"912 1096 LINE",
"992 1096 LINE",
"1026 1254 LINE",
"946 1254 LINE",
"992 1470 LINE",
"776 1470 LINE",
"730 1254 LINE",
"562 1254 LINE",
"608 1470 LINE",
"392 1470 LINE",
"346 1254 LINE",
"268 1254 LINE",
"234 1096 LINE",
"312 1096 LINE",
"80 0 LINE"
);
},
{
closed = 1;
nodes = (
"528 1096 LINE",
"696 1096 LINE",
"646 862 LINE",
"478 862 LINE"
);
}
);
width = 760;
},
{
layerId = "38BA14EB-08C8-4487-88C1-8F957131FCA1";
paths = (
{
closed = 1;
nodes = (
"116 0 LINE",
"254 640 LINE",
"318 640 LINE",
"180 0 LINE",
"346 0 LINE",
"580 1096 LINE",
"628 1096 LINE",
"662 1254 LINE",
"614 1254 LINE",
"660 1470 LINE",
"494 1470 LINE",
"448 1254 LINE",
"384 1254 LINE",
"430 1470 LINE",
"264 1470 LINE",
"218 1254 LINE",
"172 1254 LINE",
"138 1096 LINE",
"184 1096 LINE",
"-48 0 LINE"
);
},
{
closed = 1;
nodes = (
"350 1096 LINE",
"414 1096 LINE",
"364 862 LINE",
"300 862 LINE"
);
}
);
width = 516;
},
{
layerId = "6463F33F-C059-4755-9C76-9F35D70521A0";
paths = (
{
closed = 1;
nodes = (
"196 0 LINE",
"196 640 LINE",
"260 640 LINE",
"260 0 LINE",
"426 0 LINE",
"426 1096 LINE",
"474 1096 LINE",
"474 1254 LINE",
"426 1254 LINE",
"426 1470 LINE",
"260 1470 LINE",
"260 1254 LINE",
"196 1254 LINE",
"196 1470 LINE",
"30 1470 LINE",
"30 1254 LINE",
"-16 1254 LINE",
"-16 1096 LINE",
"30 1096 LINE",
"30 0 LINE"
);
},
{
closed = 1;
nodes = (
"196 1096 LINE",
"260 1096 LINE",
"260 862 LINE",
"196 862 LINE"
);
}
);
width = 516;
}
);
unicode = 0126;
},
{
color = 0;
glyphname = I;
lastChange = "2019-11-22 22:53:53 +0000";
layers = (
{
anchors = (
{
name = bottom;
position = "{188, 0}";
},
{
name = ogonek;
position = "{338, 10}";
},
{
name = top;
position = "{188, 1470}";
},
{
name = topleft;
position = "{20, 1470}";
}
);
layerId = "1AB499B8-18A8-432D-A211-B6882CCB886D";
paths = (
{
closed = 1;
nodes = (
"296 0 LINE",
"296 1470 LINE",
"80 1470 LINE",
"80 0 LINE"
);
}
);
width = 376;
},
{
layerId = "E10EC336-1202-48FF-9A55-15876E80CDFD";
paths = (
{
closed = 1;
nodes = (
"296 0 LINE",
"608 1470 LINE",
"392 1470 LINE",
"80 0 LINE"
);
}
);
width = 376;
},
{
layerId = "38BA14EB-08C8-4487-88C1-8F957131FCA1";
paths = (
{
closed = 1;
nodes = (
"116 0 LINE",
"430 1470 LINE",
"264 1470 LINE",
"-48 0 LINE"
);
}
);
width = 286;
},
{
layerId = "6463F33F-C059-4755-9C76-9F35D70521A0";
paths = (
{
closed = 1;
nodes = (
"196 0 LINE",
"196 1470 LINE",
"30 1470 LINE",
"30 0 LINE"
);
}
);
width = 286;
}
);
leftKerningGroup = l;
rightKerningGroup = l;
unicode = 0049;
},
{
color = 0;
glyphname = IJ;
lastChange = "2019-11-22 22:53:53 +0000";
layers = (
{
layerId = "1AB499B8-18A8-432D-A211-B6882CCB886D";
paths = (
{
closed = 1;
nodes = (
"516 -22 OFFCURVE",
"600 10 OFFCURVE",
"650 64 CURVE SMOOTH",
"700 118 OFFCURVE",
"720 192 OFFCURVE",
"720 272 CURVE SMOOTH",
"720 1470 LINE",
"504 1470 LINE",
"504 306 LINE SMOOTH",
"504 272 OFFCURVE",
"498 248 OFFCURVE",
"486 234 CURVE",
"462 202 OFFCURVE",
"430 192 OFFCURVE",
"388 198 CURVE",
"388 -14 LINE"
);
},
{
closed = 1;
nodes = (
"296 0 LINE",
"296 1470 LINE",
"80 1470 LINE",
"80 0 LINE"
);
}
);
width = 790;
},
{
layerId = "E10EC336-1202-48FF-9A55-15876E80CDFD";
paths = (
{
closed = 1;
nodes = (
"512 -22 OFFCURVE",
"600 10 OFFCURVE",
"662 64 CURVE SMOOTH",
"724 118 OFFCURVE",
"760 192 OFFCURVE",
"776 272 CURVE SMOOTH",
"1032 1470 LINE",
"816 1470 LINE",
"568 306 LINE SMOOTH",
"560 270 OFFCURVE",
"548 246 OFFCURVE",
"534 234 CURVE",
"506 204 OFFCURVE",
"472 192 OFFCURVE",
"430 198 CURVE",
"384 -14 LINE"
);
},
{
closed = 1;
nodes = (
"296 0 LINE",
"608 1470 LINE",
"392 1470 LINE",
"80 0 LINE"
);
}
);
width = 790;
},
{
layerId = "38BA14EB-08C8-4487-88C1-8F957131FCA1";
paths = (
{
closed = 1;
nodes = (
"336 -30 OFFCURVE",
"416 102 OFFCURVE",
"452 272 CURVE SMOOTH",
"706 1470 LINE",
"540 1470 LINE",
"292 306 LINE SMOOTH",
"284 266 OFFCURVE",
"260 190 OFFCURVE",
"196 204 CURVE",
"152 -12 LINE"
);
},
{
closed = 1;
nodes = (
"118 0 LINE",
"430 1470 LINE",
"264 1470 LINE",
"-46 0 LINE"
);
}
);
width = 534;
},
{
layerId = "6463F33F-C059-4755-9C76-9F35D70521A0";
paths = (
{
closed = 1;
nodes = (
"420 -30 OFFCURVE",
"472 102 OFFCURVE",
"472 272 CURVE SMOOTH",
"472 1470 LINE",
"306 1470 LINE",
"306 306 LINE SMOOTH",
"306 266 OFFCURVE",
"298 190 OFFCURVE",
"232 204 CURVE",
"232 -12 LINE"
);
},
{
closed = 1;
nodes = (
"196 0 LINE",
"196 1470 LINE",
"30 1470 LINE",
"30 0 LINE"
);
}
);
width = 534;
}
);
unicode = 0132;
},
{
color = 0;
glyphname = J;
lastChange = "2019-11-22 22:53:53 +0000";
layers = (
{
anchors = (
{
name = bottom;
position = "{207, 0}";
},
{
name = top;
position = "{207, 1470}";
}
);
layerId = "1AB499B8-18A8-432D-A211-B6882CCB886D";
paths = (
{
closed = 1;
nodes = (
"140 -22 OFFCURVE",
"224 10 OFFCURVE",
"274 64 CURVE SMOOTH",
"324 118 OFFCURVE",
"344 192 OFFCURVE",
"344 272 CURVE SMOOTH",
"344 1470 LINE",
"128 1470 LINE",
"128 306 LINE SMOOTH",
"128 272 OFFCURVE",
"122 248 OFFCURVE",
"110 234 CURVE",
"86 202 OFFCURVE",
"54 192 OFFCURVE",
"12 198 CURVE",
"12 -14 LINE"
);
}
);
width = 414;
},
{
layerId = "E10EC336-1202-48FF-9A55-15876E80CDFD";
paths = (
{
closed = 1;
nodes = (
"136 -22 OFFCURVE",
"224 10 OFFCURVE",
"286 64 CURVE SMOOTH",
"348 118 OFFCURVE",
"384 192 OFFCURVE",
"400 272 CURVE SMOOTH",
"656 1470 LINE",
"440 1470 LINE",
"192 306 LINE SMOOTH",
"184 270 OFFCURVE",
"172 246 OFFCURVE",
"158 234 CURVE",
"130 204 OFFCURVE",
"96 192 OFFCURVE",
"54 198 CURVE",
"8 -14 LINE"
);
}
);
width = 414;
},
{
layerId = "38BA14EB-08C8-4487-88C1-8F957131FCA1";
paths = (
{
closed = 1;
nodes = (
"96 -30 OFFCURVE",
"176 102 OFFCURVE",
"212 272 CURVE SMOOTH",
"466 1470 LINE",
"300 1470 LINE",
"52 306 LINE SMOOTH",
"44 266 OFFCURVE",
"20 190 OFFCURVE",
"-42 204 CURVE",
"-86 -12 LINE"
);
}
);
width = 308;
},
{
layerId = "6463F33F-C059-4755-9C76-9F35D70521A0";
paths = (
{
closed = 1;
nodes = (
"180 -30 OFFCURVE",
"232 102 OFFCURVE",
"232 272 CURVE SMOOTH",
"232 1470 LINE",
"66 1470 LINE",
"66 306 LINE SMOOTH",
"66 266 OFFCURVE",
"58 190 OFFCURVE",
"-8 204 CURVE",
"-8 -12 LINE"
);
}
);
width = 308;
}
);
unicode = 004A;
},
{
color = 0;
glyphname = K;
lastChange = "2019-11-22 22:53:53 +0000";
layers = (
{
anchors = (
{
name = bottom;
position = "{375, 0}";
},
{
name = top;
position = "{375, 1470}";
}
);
layerId = "1AB499B8-18A8-432D-A211-B6882CCB886D";
paths = (
{
closed = 1;
nodes = (
"296 0 LINE",
"296 520 LINE",
"346 640 LINE",
"358 670 LINE",
"364 670 LINE",
"370 640 LINE",
"520 0 LINE",
"730 0 LINE",
"506 986 LINE",
"704 1470 LINE",
"494 1470 LINE",
"314 980 LINE",
"304 956 LINE",
"296 956 LINE",
"296 980 LINE",
"296 1470 LINE",
"80 1470 LINE",
"80 0 LINE"
);
}
);
width = 750;
},
{
layerId = "E10EC336-1202-48FF-9A55-15876E80CDFD";
paths = (
{
closed = 1;
nodes = (
"296 0 LINE",
"406 520 LINE",
"482 640 LINE",
"500 670 LINE",
"506 670 LINE",
"506 640 LINE",
"520 0 LINE",
"730 0 LINE",
"714 986 LINE",
"1016 1470 LINE",
"806 1470 LINE",
"522 980 LINE",
"506 956 LINE",
"498 956 LINE",
"608 1470 LINE",
"392 1470 LINE",
"80 0 LINE"
);
}
);
width = 750;
},
{
layerId = "38BA14EB-08C8-4487-88C1-8F957131FCA1";
paths = (
{
closed = 1;
nodes = (
"110 0 LINE",
"260 700 LINE",
"214 0 LINE",
"376 0 LINE",
"434 932 LINE",
"694 1470 LINE",
"532 1470 LINE",
"334 1048 LINE",
"424 1470 LINE",
"264 1470 LINE",
"-48 0 LINE"
);
}
);
width = 510;
},
{
layerId = "6463F33F-C059-4755-9C76-9F35D70521A0";
paths = (
{
closed = 1;
nodes = (
"190 0 LINE",
"190 700 LINE",
"294 0 LINE",
"456 0 LINE",
"314 932 LINE",
"460 1470 LINE",
"298 1470 LINE",
"190 1048 LINE",
"190 1470 LINE",
"30 1470 LINE",
"30 0 LINE"
);
}
);
width = 510;
}
);
unicode = 004B;
},
{
color = 0;
glyphname = L;
lastChange = "2019-11-22 22:53:53 +0000";
layers = (
{
anchors = (
{
name = bottom;
position = "{295, 0}";
},
{
name = center;
position = "{295, 735}";
},
{
name = top;
position = "{295, 1470}";
},
{
name = topright;
position = "{570, 1470}";
}
);
layerId = "1AB499B8-18A8-432D-A211-B6882CCB886D";
paths = (
{
closed = 1;
nodes = (
"582 0 LINE",
"582 200 LINE",
"296 200 LINE",
"296 1470 LINE",
"80 1470 LINE",
"80 0 LINE"
);
}
);
width = 590;
},
{
layerId = "E10EC336-1202-48FF-9A55-15876E80CDFD";
paths = (
{
closed = 1;
nodes = (
"582 0 LINE",
"624 200 LINE",
"338 200 LINE",
"608 1470 LINE",
"392 1470 LINE",
"80 0 LINE"
);
}
);
width = 590;
},
{
layerId = "38BA14EB-08C8-4487-88C1-8F957131FCA1";
paths = (
{
closed = 1;
nodes = (
"288 0 LINE",
"332 200 LINE",
"160 200 LINE",
"430 1470 LINE",
"264 1470 LINE",
"-48 0 LINE"
);
}
);
width = 414;
},
{
layerId = "6463F33F-C059-4755-9C76-9F35D70521A0";
paths = (
{
closed = 1;
nodes = (
"368 0 LINE",
"368 200 LINE",
"196 200 LINE",
"196 1470 LINE",
"30 1470 LINE",
"30 0 LINE"
);
}
);
width = 414;
}
);
unicode = 004C;
},
{
color = 0;
glyphname = Lslash;
lastChange = "2019-11-22 22:53:53 +0000";
layers = (
{
layerId = "1AB499B8-18A8-432D-A211-B6882CCB886D";
paths = (
{
closed = 1;
nodes = (
"606 0 LINE",
"606 200 LINE",
"320 200 LINE",
"320 766 LINE",
"438 858 LINE",
"438 1074 LINE",
"320 982 LINE",
"320 1470 LINE",
"104 1470 LINE",
"104 814 LINE",
"40 764 LINE",
"40 548 LINE",
"104 598 LINE",
"104 0 LINE"
);
}
);
width = 614;
},
{
layerId = "E10EC336-1202-48FF-9A55-15876E80CDFD";
paths = (
{
closed = 1;
nodes = (
"606 0 LINE",
"648 200 LINE",
"362 200 LINE",
"482 766 LINE",
"620 858 LINE",
"666 1074 LINE",
"528 982 LINE",
"632 1470 LINE",
"416 1470 LINE",
"276 814 LINE",
"202 764 LINE",
"156 548 LINE",
"230 598 LINE",
"104 0 LINE"
);
}
);
width = 614;
},
{
layerId = "38BA14EB-08C8-4487-88C1-8F957131FCA1";
paths = (
{
closed = 1;
nodes = (
"302 0 LINE",
"346 200 LINE",
"174 200 LINE",
"294 766 LINE",
"292 766 LINE",
"384 862 LINE",
"438 1118 LINE",
"350 1026 LINE",
"444 1470 LINE",
"278 1470 LINE",
"140 824 LINE",
"142 824 LINE",
"82 764 LINE",
"26 500 LINE",
"26 500 OFFCURVE",
"82 564 OFFCURVE",
"86 566 CURVE",
"-34 0 LINE"
);
}
);
width = 428;
},
{
layerId = "6463F33F-C059-4755-9C76-9F35D70521A0";
paths = (
{
closed = 1;
nodes = (
"382 0 LINE",
"382 200 LINE",
"210 200 LINE",
"210 766 LINE",
"208 766 LINE",
"280 862 LINE",
"280 1118 LINE",
"210 1026 LINE",
"210 1470 LINE",
"44 1470 LINE",
"44 824 LINE",
"46 824 LINE",
"-2 764 LINE",
"-2 500 LINE",
"-2 500 OFFCURVE",
"42 564 OFFCURVE",
"44 566 CURVE",
"44 0 LINE"
);
}
);
width = 428;
}
);
unicode = 0141;
},
{
color = 0;
glyphname = M;
lastChange = "2019-11-22 22:53:53 +0000";
layers = (
{
anchors = (
{
name = bottom;
position = "{484, 0}";
},
{
name = top;
position = "{484, 1470}";
}
);
layerId = "1AB499B8-18A8-432D-A211-B6882CCB886D";
paths = (
{
closed = 1;
nodes = (
"280 0 LINE",
"280 924 LINE",
"280 986 LINE",
"292 986 LINE",
"300 924 LINE",
"438 0 LINE",
"530 0 LINE",
"668 924 LINE",
"676 986 LINE",
"688 986 LINE",
"688 924 LINE",
"688 0 LINE",
"888 0 LINE",
"888 1470 LINE",
"624 1470 LINE",
"496 798 LINE",
"486 720 LINE",
"482 720 LINE",
"472 798 LINE",
"344 1470 LINE",
"80 1470 LINE",
"80 0 LINE"
);
}
);
width = 968;
},
{
layerId = "E10EC336-1202-48FF-9A55-15876E80CDFD";
paths = (
{
closed = 1;
nodes = (
"280 0 LINE",
"488 986 LINE",
"500 986 LINE",
"496 924 LINE",
"438 0 LINE",
"530 0 LINE",
"864 924 LINE",
"884 986 LINE",
"896 986 LINE",
"688 0 LINE",
"888 0 LINE",
"1200 1470 LINE",
"936 1470 LINE",
"664 798 LINE",
"638 720 LINE",
"634 720 LINE",
"640 798 LINE",
"656 1470 LINE",
"392 1470 LINE",
"80 0 LINE"
);
}
);
width = 968;
},
{
layerId = "38BA14EB-08C8-4487-88C1-8F957131FCA1";
paths = (
{
closed = 1;
nodes = (
"104 0 LINE",
"258 724 LINE",
"166 0 LINE",
"256 0 LINE",
"466 724 LINE",
"316 0 LINE",
"470 0 LINE",
"784 1470 LINE",
"600 1470 LINE",
"376 776 LINE",
"448 1470 LINE",
"264 1470 LINE",
"-48 0 LINE"
);
}
);
width = 640;
},
{
layerId = "6463F33F-C059-4755-9C76-9F35D70521A0";
paths = (
{
closed = 1;
nodes = (
"184 0 LINE",
"184 724 LINE",
"246 0 LINE",
"336 0 LINE",
"392 724 LINE",
"396 0 LINE",
"550 0 LINE",
"550 1470 LINE",
"366 1470 LINE",
"290 776 LINE",
"214 1470 LINE",
"30 1470 LINE",
"30 0 LINE"
);
}
);
width = 640;
}
);
unicode = 004D;
},
{
color = 0;
glyphname = N;
lastChange = "2019-11-22 22:53:53 +0000";
layers = (
{
anchors = (
{
name = bottom;
position = "{395, 0}";
},
{
name = top;
position = "{395, 1470}";
}
);
layerId = "1AB499B8-18A8-432D-A211-B6882CCB886D";
paths = (
{
closed = 1;
nodes = (
"278 0 LINE",
"278 766 LINE",
"278 834 LINE",
"290 834 LINE",
"308 766 LINE",
"518 0 LINE",
"710 0 LINE",
"710 1470 LINE",
"512 1470 LINE",
"512 704 LINE",
"512 636 LINE",
"500 636 LINE",
"482 704 LINE",
"272 1470 LINE",
"80 1470 LINE",
"80 0 LINE"
);
}
);
width = 790;
},
{
layerId = "E10EC336-1202-48FF-9A55-15876E80CDFD";
paths = (
{
closed = 1;
nodes = (
"278 0 LINE",
"454 834 LINE",
"466 834 LINE",
"470 766 LINE",
"518 0 LINE",
"710 0 LINE",
"1022 1470 LINE",
"824 1470 LINE",
"646 636 LINE",
"634 636 LINE",
"630 704 LINE",
"584 1470 LINE",
"392 1470 LINE",
"80 0 LINE"
);
}
);
width = 790;
},
{
layerId = "38BA14EB-08C8-4487-88C1-8F957131FCA1";
paths = (
{
closed = 1;
nodes = (
"104 0 LINE",
"256 714 LINE",
"224 0 LINE",
"364 0 LINE",
"678 1470 LINE",
"524 1470 LINE",
"376 776 LINE",
"404 1470 LINE",
"264 1470 LINE",
"-48 0 LINE"
);
}
);
width = 534;
},
{
layerId = "6463F33F-C059-4755-9C76-9F35D70521A0";
paths = (
{
closed = 1;
nodes = (
"184 0 LINE",
"184 714 LINE",
"304 0 LINE",
"444 0 LINE",
"444 1470 LINE",
"290 1470 LINE",
"290 776 LINE",
"170 1470 LINE",
"30 1470 LINE",
"30 0 LINE"
);
}
);
width = 534;
}
);
unicode = 004E;
},
{
color = 0;
glyphname = Eng;
lastChange = "2019-11-22 22:53:53 +0000";
layers = (
{
layerId = "1AB499B8-18A8-432D-A211-B6882CCB886D";
paths = (
{
closed = 1;
nodes = (
"278 0 LINE",
"278 766 LINE",
"278 834 LINE",
"290 834 LINE",
"308 766 LINE",
"518 0 LINE",
"710 0 LINE",
"710 1470 LINE",
"512 1470 LINE",
"512 704 LINE",
"512 636 LINE",
"500 636 LINE",
"482 704 LINE",
"272 1470 LINE",
"80 1470 LINE",
"80 0 LINE"
);
},
{
closed = 1;
nodes = (
"538 -250 OFFCURVE",
"610 -218 OFFCURVE",
"652 -168 CURVE SMOOTH",
"694 -118 OFFCURVE",
"710 -44 OFFCURVE",
"710 30 CURVE SMOOTH",
"710 1170 LINE",
"530 1170 LINE",
"530 62 LINE SMOOTH",
"530 32 OFFCURVE",
"526 8 OFFCURVE",
"516 -6 CURVE SMOOTH",
"496 -36 OFFCURVE",
"466 -46 OFFCURVE",
"432 -40 CURVE",
"432 -242 LINE"
);
}
);
width = 790;
},
{
layerId = "E10EC336-1202-48FF-9A55-15876E80CDFD";
paths = (
{
closed = 1;
nodes = (
"484 -250 OFFCURVE",
"562 -218 OFFCURVE",
"616 -168 CURVE",
"662 -122 OFFCURVE",
"692 -64 OFFCURVE",
"710 0 CURVE",
"1022 1470 LINE",
"824 1470 LINE",
"646 636 LINE",
"634 636 LINE",
"630 704 LINE",
"584 1470 LINE",
"392 1470 LINE",
"80 0 LINE",
"278 0 LINE",
"454 834 LINE",
"466 834 LINE",
"470 766 LINE",
"518 0 LINE",
"520 0 LINE",
"518 -2 OFFCURVE",
"516 -2 OFFCURVE",
"516 -2 CURVE",
"516 -4 OFFCURVE",
"516 -4 OFFCURVE",
"514 -6 CURVE",
"488 -36 OFFCURVE",
"458 -46 OFFCURVE",
"422 -40 CURVE",
"380 -242 LINE"
);
}
);
width = 790;
},
{
layerId = "38BA14EB-08C8-4487-88C1-8F957131FCA1";
paths = (
{
closed = 1;
nodes = (
"208 -252 OFFCURVE",
"270 -220 OFFCURVE",
"306 -168 CURVE SMOOTH",
"338 -122 OFFCURVE",
"362 -62 OFFCURVE",
"378 0 CURVE",
"690 1470 LINE",
"536 1470 LINE",
"388 772 LINE",
"418 1470 LINE",
"276 1470 LINE",
"-34 0 LINE",
"118 0 LINE",
"268 704 LINE",
"226 0 LINE",
"210 -24 OFFCURVE",
"192 -40 OFFCURVE",
"170 -32 CURVE",
"124 -240 LINE"
);
}
);
width = 534;
},
{
layerId = "6463F33F-C059-4755-9C76-9F35D70521A0";
paths = (
{
closed = 1;
nodes = (
"328 -252 OFFCURVE",
"382 -220 OFFCURVE",
"408 -168 CURVE SMOOTH",
"430 -122 OFFCURVE",
"442 -62 OFFCURVE",
"444 0 CURVE SMOOTH",
"444 1470 LINE",
"290 1470 LINE",
"290 772 LINE",
"172 1470 LINE",
"30 1470 LINE",
"30 0 LINE",
"184 0 LINE",
"184 704 LINE",
"292 0 LINE",
"282 -24 OFFCURVE",
"266 -40 OFFCURVE",
"242 -32 CURVE",
"242 -240 LINE"
);
}
);
width = 534;
}
);
unicode = 014A;
},
{
color = 0;
glyphname = O;
lastChange = "2019-11-22 22:53:53 +0000";
layers = (
{
anchors = (
{
name = bottom;
position = "{354, 0}";
},
{
name = center;
position = "{354, 735}";
},
{
name = ogonek;
position = "{637, 10}";
},
{
name = top;
position = "{354, 1470}";
},
{
name = topleft;
position = "{20, 1470}";
},
{
name = topright;
position = "{688, 1470}";
}
);
layerId = "1AB499B8-18A8-432D-A211-B6882CCB886D";
paths = (
{
closed = 1;
nodes = (
"426 -16 OFFCURVE",
"480 2 OFFCURVE",
"520 34 CURVE SMOOTH",
"560 64 OFFCURVE",
"588 102 OFFCURVE",
"606 142 CURVE SMOOTH",
"628 188 OFFCURVE",
"640 242 OFFCURVE",
"642 302 CURVE SMOOTH",
"642 1168 LINE SMOOTH",
"640 1226 OFFCURVE",
"628 1280 OFFCURVE",
"606 1326 CURVE SMOOTH",
"588 1366 OFFCURVE",
"560 1406 OFFCURVE",
"520 1436 CURVE SMOOTH",
"480 1466 OFFCURVE",
"426 1486 OFFCURVE",
"354 1486 CURVE SMOOTH",
"282 1486 OFFCURVE",
"226 1466 OFFCURVE",
"186 1436 CURVE SMOOTH",
"146 1406 OFFCURVE",
"120 1366 OFFCURVE",
"102 1326 CURVE SMOOTH",
"80 1280 OFFCURVE",
"68 1226 OFFCURVE",
"66 1168 CURVE SMOOTH",
"66 302 LINE",
"68 242 OFFCURVE",
"80 188 OFFCURVE",
"102 142 CURVE SMOOTH",
"120 102 OFFCURVE",
"146 64 OFFCURVE",
"186 34 CURVE SMOOTH",
"226 2 OFFCURVE",
"282 -16 OFFCURVE",
"354 -16 CURVE SMOOTH"
);
},
{
closed = 1;
nodes = (
"336 194 OFFCURVE",
"322 200 OFFCURVE",
"312 210 CURVE",
"292 232 OFFCURVE",
"282 260 OFFCURVE",
"282 302 CURVE SMOOTH",
"282 1168 LINE SMOOTH",
"282 1188 OFFCURVE",
"284 1206 OFFCURVE",
"290 1222 CURVE",
"298 1248 OFFCURVE",
"316 1276 OFFCURVE",
"354 1276 CURVE SMOOTH",
"372 1276 OFFCURVE",
"388 1270 OFFCURVE",
"398 1260 CURVE",
"418 1236 OFFCURVE",
"426 1208 OFFCURVE",
"426 1168 CURVE SMOOTH",
"426 302 LINE SMOOTH",
"426 280 OFFCURVE",
"424 262 OFFCURVE",
"418 248 CURVE",
"410 218 OFFCURVE",
"392 194 OFFCURVE",
"354 194 CURVE SMOOTH"
);
}
);
width = 708;
},
{
layerId = "E10EC336-1202-48FF-9A55-15876E80CDFD";
paths = (
{
closed = 1;
nodes = (
"420 -16 OFFCURVE",
"478 0 OFFCURVE",
"526 34 CURVE",
"572 64 OFFCURVE",
"606 102 OFFCURVE",
"636 142 CURVE",
"666 188 OFFCURVE",
"690 242 OFFCURVE",
"706 302 CURVE",
"890 1168 LINE",
"900 1230 OFFCURVE",
"900 1282 OFFCURVE",
"886 1326 CURVE",
"878 1366 OFFCURVE",
"858 1406 OFFCURVE",
"824 1436 CURVE SMOOTH",
"790 1466 OFFCURVE",
"740 1486 OFFCURVE",
"668 1486 CURVE SMOOTH",
"596 1486 OFFCURVE",
"536 1466 OFFCURVE",
"490 1436 CURVE SMOOTH",
"444 1406 OFFCURVE",
"412 1366 OFFCURVE",
"382 1326 CURVE",
"350 1278 OFFCURVE",
"328 1226 OFFCURVE",
"314 1168 CURVE SMOOTH",
"130 302 LINE SMOOTH",
"118 240 OFFCURVE",
"118 188 OFFCURVE",
"132 142 CURVE",
"140 102 OFFCURVE",
"158 64 OFFCURVE",
"192 34 CURVE SMOOTH",
"228 0 OFFCURVE",
"280 -16 OFFCURVE",
"350 -16 CURVE SMOOTH"
);
},
{
closed = 1;
nodes = (
"376 194 OFFCURVE",
"364 200 OFFCURVE",
"356 210 CURVE",
"340 232 OFFCURVE",
"336 264 OFFCURVE",
"346 302 CURVE",
"530 1168 LINE SMOOTH",
"534 1188 OFFCURVE",
"540 1206 OFFCURVE",
"548 1222 CURVE SMOOTH",
"562 1248 OFFCURVE",
"586 1276 OFFCURVE",
"624 1276 CURVE SMOOTH",
"642 1276 OFFCURVE",
"656 1270 OFFCURVE",
"664 1260 CURVE",
"678 1238 OFFCURVE",
"682 1208 OFFCURVE",
"674 1168 CURVE SMOOTH",
"490 302 LINE",
"484 278 OFFCURVE",
"476 260 OFFCURVE",
"470 248 CURVE SMOOTH",
"456 218 OFFCURVE",
"432 194 OFFCURVE",
"394 194 CURVE SMOOTH"
);
}
);
width = 708;
},
{
layerId = "38BA14EB-08C8-4487-88C1-8F957131FCA1";
paths = (
{
closed = 1;
nodes = (
"290 -16 OFFCURVE",
"368 130 OFFCURVE",
"400 282 CURVE SMOOTH",
"594 1188 LINE SMOOTH",
"620 1308 OFFCURVE",
"616 1486 OFFCURVE",
"456 1486 CURVE SMOOTH",
"306 1486 OFFCURVE",
"224 1340 OFFCURVE",
"192 1188 CURVE SMOOTH",
"0 282 LINE SMOOTH",
"-28 142 OFFCURVE",
"-16 -16 OFFCURVE",
"138 -16 CURVE SMOOTH"
);
},
{
closed = 1;
nodes = (
"166 194 OFFCURVE",
"158 228 OFFCURVE",
"168 282 CURVE SMOOTH",
"362 1188 LINE SMOOTH",
"372 1236 OFFCURVE",
"392 1276 OFFCURVE",
"414 1276 CURVE SMOOTH",
"436 1276 OFFCURVE",
"438 1234 OFFCURVE",
"428 1188 CURVE SMOOTH",
"234 282 LINE",
"226 236 OFFCURVE",
"204 194 OFFCURVE",
"184 194 CURVE SMOOTH"
);
}
);
width = 484;
},
{
layerId = "6463F33F-C059-4755-9C76-9F35D70521A0";
paths = (
{
closed = 1;
nodes = (
"372 -16 OFFCURVE",
"420 130 OFFCURVE",
"420 282 CURVE SMOOTH",
"420 1188 LINE SMOOTH",
"420 1308 OFFCURVE",
"380 1486 OFFCURVE",
"220 1486 CURVE SMOOTH",
"70 1486 OFFCURVE",
"18 1340 OFFCURVE",
"18 1188 CURVE SMOOTH",
"18 282 LINE SMOOTH",
"18 142 OFFCURVE",
"64 -16 OFFCURVE",
"220 -16 CURVE SMOOTH"
);
},
{
closed = 1;
nodes = (
"204 194 OFFCURVE",
"188 228 OFFCURVE",
"188 282 CURVE SMOOTH",
"188 1188 LINE SMOOTH",
"188 1236 OFFCURVE",
"200 1276 OFFCURVE",
"222 1276 CURVE SMOOTH",
"244 1276 OFFCURVE",
"254 1234 OFFCURVE",
"254 1188 CURVE SMOOTH",
"254 282 LINE SMOOTH",
"254 236 OFFCURVE",
"242 194 OFFCURVE",
"222 194 CURVE SMOOTH"
);
}
);
width = 484;
}
);
unicode = 004F;
},
{
color = 0;
glyphname = Oslash;
lastChange = "2019-11-22 22:53:53 +0000";
layers = (
{
anchors = (
{
name = bottom;
position = "{354, 0}";
},
{
name = top;
position = "{354, 1470}";
}
);
layerId = "1AB499B8-18A8-432D-A211-B6882CCB886D";
paths = (
{
closed = 1;
nodes = (
"184 -20 LINE",
"198 26 LINE",
"236 0 OFFCURVE",
"288 -16 OFFCURVE",
"354 -16 CURVE SMOOTH",
"426 -16 OFFCURVE",
"480 2 OFFCURVE",
"520 34 CURVE SMOOTH",
"560 64 OFFCURVE",
"588 102 OFFCURVE",
"606 142 CURVE SMOOTH",
"628 188 OFFCURVE",
"640 242 OFFCURVE",
"642 302 CURVE SMOOTH",
"642 1168 LINE SMOOTH",
"642 1186 OFFCURVE",
"640 1204 OFFCURVE",
"636 1224 CURVE SMOOTH",
"630 1258 OFFCURVE",
"620 1302 OFFCURVE",
"598 1344 CURVE",
"642 1490 LINE",
"522 1490 LINE",
"508 1444 LINE",
"468 1470 OFFCURVE",
"418 1486 OFFCURVE",
"354 1486 CURVE SMOOTH",
"282 1486 OFFCURVE",
"226 1466 OFFCURVE",
"186 1436 CURVE SMOOTH",
"146 1406 OFFCURVE",
"120 1366 OFFCURVE",
"102 1326 CURVE SMOOTH",
"80 1280 OFFCURVE",
"68 1226 OFFCURVE",
"66 1168 CURVE SMOOTH",
"66 302 LINE SMOOTH",
"66 284 OFFCURVE",
"68 266 OFFCURVE",
"70 248 CURVE",
"76 216 OFFCURVE",
"82 174 OFFCURVE",
"104 134 CURVE",
"58 -20 LINE"
);
},
{
closed = 1;
nodes = (
"336 194 OFFCURVE",
"322 200 OFFCURVE",
"312 210 CURVE",
"292 232 OFFCURVE",
"282 260 OFFCURVE",
"282 302 CURVE",
"426 778 LINE",
"426 302 LINE SMOOTH",
"426 280 OFFCURVE",
"424 262 OFFCURVE",
"418 248 CURVE",
"410 218 OFFCURVE",
"392 194 OFFCURVE",
"354 194 CURVE SMOOTH"
);
},
{
closed = 1;
nodes = (
"282 1168 LINE SMOOTH",
"282 1188 OFFCURVE",
"284 1206 OFFCURVE",
"290 1222 CURVE",
"298 1248 OFFCURVE",
"316 1276 OFFCURVE",
"354 1276 CURVE SMOOTH",
"386 1276 OFFCURVE",
"404 1258 OFFCURVE",
"414 1236 CURVE",
"422 1212 OFFCURVE",
"426 1188 OFFCURVE",
"426 1178 CURVE",
"282 710 LINE"
);
}
);
width = 708;
},
{
layerId = "E10EC336-1202-48FF-9A55-15876E80CDFD";
paths = (
{
closed = 1;
nodes = (
"178 -20 LINE",
"202 26 LINE",
"238 -2 OFFCURVE",
"288 -16 OFFCURVE",
"350 -16 CURVE SMOOTH",
"420 -16 OFFCURVE",
"478 0 OFFCURVE",
"526 34 CURVE",
"572 64 OFFCURVE",
"606 102 OFFCURVE",
"636 142 CURVE",
"666 188 OFFCURVE",
"690 242 OFFCURVE",
"706 302 CURVE",
"890 1168 LINE SMOOTH",
"892 1178 OFFCURVE",
"894 1186 OFFCURVE",
"894 1196 CURVE SMOOTH",
"894 1204 OFFCURVE",
"894 1214 OFFCURVE",
"896 1224 CURVE",
"896 1258 OFFCURVE",
"896 1302 OFFCURVE",
"882 1344 CURVE",
"958 1490 LINE",
"838 1490 LINE",
"814 1444 LINE",
"778 1472 OFFCURVE",
"730 1486 OFFCURVE",
"668 1486 CURVE SMOOTH",
"596 1486 OFFCURVE",
"536 1466 OFFCURVE",
"490 1436 CURVE SMOOTH",
"444 1406 OFFCURVE",
"412 1366 OFFCURVE",
"382 1326 CURVE",
"350 1278 OFFCURVE",
"328 1226 OFFCURVE",
"314 1168 CURVE SMOOTH",
"130 302 LINE SMOOTH",
"128 292 OFFCURVE",
"126 284 OFFCURVE",
"126 276 CURVE",
"124 266 OFFCURVE",
"124 258 OFFCURVE",
"122 248 CURVE",
"120 216 OFFCURVE",
"118 174 OFFCURVE",
"132 134 CURVE",
"52 -20 LINE"
);
},
{
closed = 1;
nodes = (
"376 194 OFFCURVE",
"364 200 OFFCURVE",
"356 210 CURVE",
"340 232 OFFCURVE",
"336 264 OFFCURVE",
"346 302 CURVE",
"590 778 LINE",
"490 302 LINE",
"484 278 OFFCURVE",
"476 260 OFFCURVE",
"470 248 CURVE SMOOTH",
"456 218 OFFCURVE",
"432 194 OFFCURVE",
"394 194 CURVE SMOOTH"
);
},
{
closed = 1;
nodes = (
"530 1168 LINE SMOOTH",
"534 1188 OFFCURVE",
"540 1206 OFFCURVE",
"548 1222 CURVE SMOOTH",
"562 1248 OFFCURVE",
"586 1276 OFFCURVE",
"624 1276 CURVE SMOOTH",
"656 1276 OFFCURVE",
"670 1258 OFFCURVE",
"676 1236 CURVE",
"678 1210 OFFCURVE",
"678 1190 OFFCURVE",
"676 1178 CURVE",
"432 710 LINE"
);
}
);
width = 708;
},
{
layerId = "38BA14EB-08C8-4487-88C1-8F957131FCA1";
paths = (
{
closed = 1;
nodes = (
"42 -20 LINE",
"54 8 LINE",
"78 -6 OFFCURVE",
"106 -16 OFFCURVE",
"144 -16 CURVE SMOOTH",
"296 -16 OFFCURVE",
"374 130 OFFCURVE",
"406 282 CURVE SMOOTH",
"600 1188 LINE SMOOTH",
"610 1242 OFFCURVE",
"618 1308 OFFCURVE",
"604 1364 CURVE",
"656 1490 LINE",
"564 1490 LINE",
"552 1460 LINE",
"528 1476 OFFCURVE",
"500 1486 OFFCURVE",
"462 1486 CURVE SMOOTH",
"312 1486 OFFCURVE",
"230 1340 OFFCURVE",
"198 1188 CURVE SMOOTH",
"4 282 LINE",
"-6 222 OFFCURVE",
"-12 158 OFFCURVE",
"0 106 CURVE",
"-52 -20 LINE"
);
},
{
closed = 1;
nodes = (
"172 194 OFFCURVE",
"164 228 OFFCURVE",
"174 282 CURVE",
"186 330 LINE",
"324 672 LINE",
"240 282 LINE",
"232 236 OFFCURVE",
"210 194 OFFCURVE",
"190 194 CURVE SMOOTH"
);
},
{
closed = 1;
nodes = (
"368 1188 LINE SMOOTH",
"378 1236 OFFCURVE",
"398 1276 OFFCURVE",
"420 1276 CURVE SMOOTH",
"442 1276 OFFCURVE",
"444 1234 OFFCURVE",
"434 1188 CURVE SMOOTH",
"426 1152 LINE",
"288 816 LINE"
);
}
);
width = 484;
},
{
layerId = "6463F33F-C059-4755-9C76-9F35D70521A0";
paths = (
{
closed = 1;
nodes = (
"126 -20 LINE",
"132 8 LINE",
"158 -6 OFFCURVE",
"188 -16 OFFCURVE",
"226 -16 CURVE SMOOTH",
"378 -16 OFFCURVE",
"426 130 OFFCURVE",
"426 282 CURVE SMOOTH",
"426 1188 LINE SMOOTH",
"426 1242 OFFCURVE",
"418 1308 OFFCURVE",
"394 1364 CURVE",
"418 1490 LINE",
"326 1490 LINE",
"320 1460 LINE",
"294 1476 OFFCURVE",
"264 1486 OFFCURVE",
"226 1486 CURVE SMOOTH",
"76 1486 OFFCURVE",
"24 1340 OFFCURVE",
"24 1188 CURVE SMOOTH",
"24 282 LINE SMOOTH",
"24 222 OFFCURVE",
"32 158 OFFCURVE",
"54 106 CURVE",
"30 -20 LINE"
);
},
{
closed = 1;
nodes = (
"210 194 OFFCURVE",
"194 228 OFFCURVE",
"194 282 CURVE SMOOTH",
"194 330 LINE",
"260 672 LINE",
"260 282 LINE SMOOTH",
"260 236 OFFCURVE",
"248 194 OFFCURVE",
"228 194 CURVE SMOOTH"
);
},
{
closed = 1;
nodes = (
"194 1188 LINE SMOOTH",
"194 1236 OFFCURVE",
"206 1276 OFFCURVE",
"228 1276 CURVE SMOOTH",
"250 1276 OFFCURVE",
"260 1234 OFFCURVE",
"260 1188 CURVE SMOOTH",
"260 1152 LINE",
"194 816 LINE"
);
}
);
width = 484;
}
);
unicode = 00D8;
},
{
color = 0;
glyphname = OE;
lastChange = "2019-11-22 22:53:53 +0000";
layers = (
{
anchors = (
{
name = bottom;
position = "{480, 0}";
},
{
name = top;
position = "{480, 1470}";
}
);
layerId = "1AB499B8-18A8-432D-A211-B6882CCB886D";
paths = (
{
closed = 1;
nodes = (
"920 0 LINE",
"920 222 LINE",
"642 222 LINE",
"642 626 LINE",
"842 626 LINE",
"842 862 LINE",
"642 862 LINE",
"642 1248 LINE",
"920 1248 LINE",
"920 1470 LINE",
"354 1470 LINE SMOOTH",
"282 1470 OFFCURVE",
"226 1452 OFFCURVE",
"186 1424 CURVE SMOOTH",
"146 1396 OFFCURVE",
"120 1356 OFFCURVE",
"102 1318 CURVE SMOOTH",
"80 1274 OFFCURVE",
"68 1224 OFFCURVE",
"66 1168 CURVE",
"66 302 LINE",
"68 244 OFFCURVE",
"80 194 OFFCURVE",
"102 150 CURVE SMOOTH",
"120 112 OFFCURVE",
"146 76 OFFCURVE",
"186 48 CURVE SMOOTH",
"226 20 OFFCURVE",
"282 0 OFFCURVE",
"354 0 CURVE SMOOTH"
);
},
{
closed = 1;
nodes = (
"336 194 OFFCURVE",
"322 200 OFFCURVE",
"312 210 CURVE",
"292 232 OFFCURVE",
"282 260 OFFCURVE",
"282 302 CURVE SMOOTH",
"282 1168 LINE SMOOTH",
"282 1188 OFFCURVE",
"284 1206 OFFCURVE",
"290 1222 CURVE",
"298 1248 OFFCURVE",
"316 1276 OFFCURVE",
"354 1276 CURVE SMOOTH",
"384 1276 OFFCURVE",
"402 1260 OFFCURVE",
"412 1240 CURVE SMOOTH",
"422 1220 OFFCURVE",
"426 1196 OFFCURVE",
"426 1182 CURVE SMOOTH",
"426 302 LINE SMOOTH",
"426 280 OFFCURVE",
"424 262 OFFCURVE",
"418 248 CURVE",
"410 218 OFFCURVE",
"392 194 OFFCURVE",
"354 194 CURVE SMOOTH"
);
}
);
width = 960;
},
{
layerId = "E10EC336-1202-48FF-9A55-15876E80CDFD";
paths = (
{
closed = 1;
nodes = (
"920 0 LINE",
"966 222 LINE",
"688 222 LINE",
"774 626 LINE",
"974 626 LINE",
"1024 862 LINE",
"824 862 LINE",
"906 1248 LINE",
"1184 1248 LINE",
"1232 1470 LINE",
"666 1470 LINE SMOOTH",
"594 1470 OFFCURVE",
"534 1454 OFFCURVE",
"488 1424 CURVE SMOOTH",
"442 1394 OFFCURVE",
"408 1356 OFFCURVE",
"382 1318 CURVE SMOOTH",
"352 1276 OFFCURVE",
"328 1226 OFFCURVE",
"314 1168 CURVE SMOOTH",
"130 302 LINE SMOOTH",
"106 192 OFFCURVE",
"132 102 OFFCURVE",
"196 48 CURVE SMOOTH",
"230 18 OFFCURVE",
"282 0 OFFCURVE",
"354 0 CURVE SMOOTH"
);
},
{
closed = 1;
nodes = (
"376 194 OFFCURVE",
"364 200 OFFCURVE",
"356 210 CURVE",
"340 232 OFFCURVE",
"336 264 OFFCURVE",
"346 302 CURVE",
"530 1168 LINE SMOOTH",
"534 1188 OFFCURVE",
"540 1206 OFFCURVE",
"548 1222 CURVE SMOOTH",
"562 1248 OFFCURVE",
"586 1276 OFFCURVE",
"624 1276 CURVE SMOOTH",
"654 1276 OFFCURVE",
"668 1262 OFFCURVE",
"674 1240 CURVE SMOOTH",
"680 1218 OFFCURVE",
"682 1200 OFFCURVE",
"676 1182 CURVE",
"490 302 LINE",
"484 278 OFFCURVE",
"476 260 OFFCURVE",
"470 248 CURVE SMOOTH",
"456 218 OFFCURVE",
"432 194 OFFCURVE",
"394 194 CURVE SMOOTH"
);
}
);
width = 960;
},
{
layerId = "38BA14EB-08C8-4487-88C1-8F957131FCA1";
paths = (
{
closed = 1;
nodes = (
"510 0 LINE",
"558 222 LINE",
"392 222 LINE",
"478 626 LINE",
"598 626 LINE",
"648 862 LINE",
"528 862 LINE",
"610 1248 LINE",
"776 1248 LINE",
"824 1470 LINE",
"456 1470 LINE SMOOTH",
"308 1470 OFFCURVE",
"228 1342 OFFCURVE",
"192 1168 CURVE SMOOTH",
"8 302 LINE SMOOTH",
"-26 132 OFFCURVE",
"-6 8 OFFCURVE",
"142 0 CURVE"
);
},
{
closed = 1;
nodes = (
"164 194 OFFCURVE",
"162 248 OFFCURVE",
"174 302 CURVE SMOOTH",
"358 1168 LINE SMOOTH",
"364 1200 OFFCURVE",
"394 1276 OFFCURVE",
"414 1276 CURVE SMOOTH",
"440 1276 OFFCURVE",
"432 1190 OFFCURVE",
"428 1168 CURVE SMOOTH",
"244 302 LINE",
"240 286 OFFCURVE",
"214 194 OFFCURVE",
"184 194 CURVE SMOOTH"
);
}
);
width = 636;
},
{
layerId = "6463F33F-C059-4755-9C76-9F35D70521A0";
paths = (
{
closed = 1;
nodes = (
"590 0 LINE",
"590 222 LINE",
"424 222 LINE",
"424 626 LINE",
"544 626 LINE",
"544 862 LINE",
"424 862 LINE",
"424 1248 LINE",
"590 1248 LINE",
"590 1470 LINE",
"222 1470 LINE SMOOTH",
"74 1470 OFFCURVE",
"22 1342 OFFCURVE",
"22 1168 CURVE SMOOTH",
"22 302 LINE SMOOTH",
"22 132 OFFCURVE",
"70 8 OFFCURVE",
"222 0 CURVE"
);
},
{
closed = 1;
nodes = (
"202 194 OFFCURVE",
"188 248 OFFCURVE",
"188 302 CURVE SMOOTH",
"188 1168 LINE SMOOTH",
"188 1200 OFFCURVE",
"202 1276 OFFCURVE",
"222 1276 CURVE SMOOTH",
"248 1276 OFFCURVE",
"258 1190 OFFCURVE",
"258 1168 CURVE SMOOTH",
"258 302 LINE SMOOTH",
"258 286 OFFCURVE",
"252 194 OFFCURVE",
"222 194 CURVE SMOOTH"
);
}
);
width = 636;
}
);
unicode = 0152;
},
{
color = 0;
glyphname = P;
lastChange = "2019-11-22 22:53:53 +0000";
layers = (
{
anchors = (
{
name = bottom;
position = "{352, 0}";
},
{
name = top;
position = "{352, 1470}";
}
);
layerId = "1AB499B8-18A8-432D-A211-B6882CCB886D";
paths = (
{
closed = 1;
nodes = (
"296 0 LINE",
"296 588 LINE",
"390 588 OFFCURVE",
"484 616 OFFCURVE",
"556 684 CURVE SMOOTH",
"628 752 OFFCURVE",
"676 862 OFFCURVE",
"676 1030 CURVE SMOOTH",
"676 1198 OFFCURVE",
"628 1310 OFFCURVE",
"556 1378 CURVE SMOOTH",
"484 1446 OFFCURVE",
"390 1470 OFFCURVE",
"296 1470 CURVE SMOOTH",
"80 1470 LINE",
"80 0 LINE"
);
},
{
closed = 1;
nodes = (
"296 1250 LINE",
"362 1250 OFFCURVE",
"404 1234 OFFCURVE",
"428 1198 CURVE SMOOTH",
"452 1162 OFFCURVE",
"458 1104 OFFCURVE",
"458 1022 CURVE SMOOTH",
"458 940 OFFCURVE",
"452 886 OFFCURVE",
"428 854 CURVE SMOOTH",
"404 820 OFFCURVE",
"362 808 OFFCURVE",
"296 808 CURVE"
);
}
);
width = 704;
},
{
layerId = "E10EC336-1202-48FF-9A55-15876E80CDFD";
paths = (
{
closed = 1;
nodes = (
"296 0 LINE",
"420 588 LINE",
"514 588 OFFCURVE",
"614 614 OFFCURVE",
"700 684 CURVE SMOOTH",
"786 754 OFFCURVE",
"856 862 OFFCURVE",
"894 1030 CURVE SMOOTH",
"932 1198 OFFCURVE",
"906 1308 OFFCURVE",
"848 1378 CURVE SMOOTH",
"790 1448 OFFCURVE",
"702 1470 OFFCURVE",
"608 1470 CURVE SMOOTH",
"392 1470 LINE",
"80 0 LINE"
);
},
{
closed = 1;
nodes = (
"560 1250 LINE",
"626 1250 OFFCURVE",
"666 1232 OFFCURVE",
"682 1198 CURVE",
"698 1160 OFFCURVE",
"692 1104 OFFCURVE",
"674 1022 CURVE SMOOTH",
"656 940 OFFCURVE",
"640 886 OFFCURVE",
"608 854 CURVE",
"578 820 OFFCURVE",
"532 808 OFFCURVE",
"466 808 CURVE"
);
}
);
width = 704;
},
{
layerId = "38BA14EB-08C8-4487-88C1-8F957131FCA1";
paths = (
{
closed = 1;
nodes = (
"116 0 LINE",
"242 588 LINE",
"302 590 OFFCURVE",
"368 612 OFFCURVE",
"418 672 CURVE SMOOTH",
"476 742 OFFCURVE",
"528 864 OFFCURVE",
"564 1030 CURVE SMOOTH",
"600 1196 OFFCURVE",
"598 1312 OFFCURVE",
"568 1382 CURVE SMOOTH",
"540 1450 OFFCURVE",
"498 1470 OFFCURVE",
"432 1470 CURVE SMOOTH",
"264 1470 LINE",
"-48 0 LINE"
);
},
{
closed = 1;
nodes = (
"384 1254 LINE",
"402 1254 OFFCURVE",
"426 1254 OFFCURVE",
"430 1232 CURVE",
"440 1196 OFFCURVE",
"420 1104 OFFCURVE",
"402 1022 CURVE SMOOTH",
"384 940 OFFCURVE",
"368 864 OFFCURVE",
"346 832 CURVE SMOOTH",
"332 812 OFFCURVE",
"304 808 OFFCURVE",
"288 808 CURVE"
);
}
);
width = 482;
},
{
layerId = "6463F33F-C059-4755-9C76-9F35D70521A0";
paths = (
{
closed = 1;
nodes = (
"196 0 LINE",
"196 588 LINE",
"256 590 OFFCURVE",
"316 612 OFFCURVE",
"354 672 CURVE SMOOTH",
"398 742 OFFCURVE",
"424 864 OFFCURVE",
"424 1030 CURVE SMOOTH",
"424 1196 OFFCURVE",
"398 1312 OFFCURVE",
"354 1382 CURVE SMOOTH",
"310 1450 OFFCURVE",
"264 1470 OFFCURVE",
"198 1470 CURVE SMOOTH",
"30 1470 LINE",
"30 0 LINE"
);
},
{
closed = 1;
nodes = (
"196 1254 LINE",
"214 1254 OFFCURVE",
"238 1254 OFFCURVE",
"248 1232 CURVE SMOOTH",
"264 1196 OFFCURVE",
"264 1104 OFFCURVE",
"264 1022 CURVE SMOOTH",
"264 940 OFFCURVE",
"264 864 OFFCURVE",
"248 832 CURVE SMOOTH",
"238 812 OFFCURVE",
"212 808 OFFCURVE",
"196 808 CURVE"
);
}
);
width = 482;
}
);
unicode = 0050;
},
{
color = 0;
glyphname = Thorn;
lastChange = "2019-11-22 22:53:53 +0000";
layers = (
{
anchors = (
{
name = bottom;
position = "{354, 0}";
},
{
name = top;
position = "{354, 1470}";
}
);
layerId = "1AB499B8-18A8-432D-A211-B6882CCB886D";
paths = (
{
closed = 1;
nodes = (
"296 0 LINE",
"296 352 LINE",
"390 352 OFFCURVE",
"484 380 OFFCURVE",
"556 448 CURVE SMOOTH",
"628 516 OFFCURVE",
"676 626 OFFCURVE",
"676 794 CURVE SMOOTH",
"676 962 OFFCURVE",
"628 1074 OFFCURVE",
"556 1142 CURVE SMOOTH",
"484 1210 OFFCURVE",
"390 1234 OFFCURVE",
"296 1234 CURVE SMOOTH",
"294 1234 LINE",
"294 1470 LINE",
"80 1470 LINE",
"80 0 LINE"
);
},
{
closed = 1;
nodes = (
"296 1014 LINE",
"362 1014 OFFCURVE",
"404 998 OFFCURVE",
"428 962 CURVE SMOOTH",
"452 926 OFFCURVE",
"458 868 OFFCURVE",
"458 786 CURVE SMOOTH",
"458 704 OFFCURVE",
"452 650 OFFCURVE",
"428 618 CURVE SMOOTH",
"404 584 OFFCURVE",
"362 572 OFFCURVE",
"296 572 CURVE"
);
}
);
width = 708;
},
{
layerId = "E10EC336-1202-48FF-9A55-15876E80CDFD";
paths = (
{
closed = 1;
nodes = (
"296 0 LINE",
"370 352 LINE",
"464 352 OFFCURVE",
"564 378 OFFCURVE",
"650 448 CURVE SMOOTH",
"736 518 OFFCURVE",
"806 626 OFFCURVE",
"844 794 CURVE SMOOTH",
"882 962 OFFCURVE",
"856 1072 OFFCURVE",
"798 1142 CURVE SMOOTH",
"740 1212 OFFCURVE",
"652 1234 OFFCURVE",
"558 1234 CURVE SMOOTH",
"556 1234 LINE",
"606 1470 LINE",
"392 1470 LINE",
"80 0 LINE"
);
},
{
closed = 1;
nodes = (
"510 1014 LINE",
"576 1014 OFFCURVE",
"616 996 OFFCURVE",
"632 962 CURVE",
"648 924 OFFCURVE",
"642 868 OFFCURVE",
"624 786 CURVE SMOOTH",
"606 704 OFFCURVE",
"590 650 OFFCURVE",
"558 618 CURVE",
"528 584 OFFCURVE",
"482 572 OFFCURVE",
"416 572 CURVE"
);
}
);
width = 708;
},
{
layerId = "38BA14EB-08C8-4487-88C1-8F957131FCA1";
paths = (
{
closed = 1;
nodes = (
"116 0 LINE",
"192 352 LINE",
"252 358 OFFCURVE",
"314 390 OFFCURVE",
"366 448 CURVE SMOOTH",
"426 518 OFFCURVE",
"478 628 OFFCURVE",
"514 794 CURVE SMOOTH",
"550 960 OFFCURVE",
"542 1072 OFFCURVE",
"514 1142 CURVE",
"486 1202 OFFCURVE",
"436 1230 OFFCURVE",
"380 1234 CURVE",
"428 1470 LINE",
"264 1470 LINE",
"-48 0 LINE"
);
},
{
closed = 1;
nodes = (
"332 1014 LINE",
"350 1010 OFFCURVE",
"364 998 OFFCURVE",
"368 968 CURVE",
"378 932 OFFCURVE",
"366 868 OFFCURVE",
"348 786 CURVE SMOOTH",
"330 704 OFFCURVE",
"316 644 OFFCURVE",
"294 612 CURVE",
"278 584 OFFCURVE",
"258 576 OFFCURVE",
"238 572 CURVE"
);
}
);
width = 484;
},
{
layerId = "6463F33F-C059-4755-9C76-9F35D70521A0";
paths = (
{
closed = 1;
nodes = (
"196 0 LINE",
"196 352 LINE",
"254 358 OFFCURVE",
"310 390 OFFCURVE",
"350 448 CURVE",
"394 518 OFFCURVE",
"424 628 OFFCURVE",
"424 794 CURVE SMOOTH",
"424 960 OFFCURVE",
"394 1072 OFFCURVE",
"350 1142 CURVE SMOOTH",
"310 1202 OFFCURVE",
"254 1230 OFFCURVE",
"196 1234 CURVE",
"194 1470 LINE",
"30 1470 LINE",
"30 0 LINE"
);
},
{
closed = 1;
nodes = (
"196 1014 LINE",
"214 1010 OFFCURVE",
"230 998 OFFCURVE",
"242 968 CURVE",
"258 932 OFFCURVE",
"260 868 OFFCURVE",
"260 786 CURVE SMOOTH",
"260 704 OFFCURVE",
"258 644 OFFCURVE",
"242 612 CURVE",
"232 584 OFFCURVE",
"214 576 OFFCURVE",
"196 572 CURVE"
);
}
);
width = 484;
}
);
unicode = 00DE;
},
{
color = 0;
glyphname = Q;
lastChange = "2019-11-22 22:53:53 +0000";
layers = (
{
anchors = (
{
name = bottom;
position = "{356, 0}";
},
{
name = top;
position = "{356, 1470}";
}
);
layerId = "1AB499B8-18A8-432D-A211-B6882CCB886D";
paths = (
{
closed = 1;
nodes = (
"684 72 LINE",
"642 80 OFFCURVE",
"616 100 OFFCURVE",
"598 124 CURVE",
"608 146 OFFCURVE",
"618 166 OFFCURVE",
"624 188 CURVE SMOOTH",
"636 230 OFFCURVE",
"642 268 OFFCURVE",
"642 302 CURVE SMOOTH",
"642 1168 LINE SMOOTH",
"640 1226 OFFCURVE",
"628 1280 OFFCURVE",
"606 1326 CURVE SMOOTH",
"588 1366 OFFCURVE",
"560 1406 OFFCURVE",
"520 1436 CURVE SMOOTH",
"480 1466 OFFCURVE",
"426 1486 OFFCURVE",
"354 1486 CURVE SMOOTH",
"282 1486 OFFCURVE",
"226 1466 OFFCURVE",
"186 1436 CURVE SMOOTH",
"146 1406 OFFCURVE",
"120 1366 OFFCURVE",
"102 1326 CURVE SMOOTH",
"80 1280 OFFCURVE",
"68 1226 OFFCURVE",
"66 1168 CURVE SMOOTH",
"66 302 LINE",
"68 242 OFFCURVE",
"80 188 OFFCURVE",
"102 142 CURVE SMOOTH",
"120 102 OFFCURVE",
"146 64 OFFCURVE",
"186 34 CURVE SMOOTH",
"226 2 OFFCURVE",
"282 -16 OFFCURVE",
"354 -16 CURVE SMOOTH",
"396 -16 OFFCURVE",
"432 -8 OFFCURVE",
"462 2 CURVE",
"500 -60 OFFCURVE",
"562 -112 OFFCURVE",
"684 -112 CURVE"
);
},
{
closed = 1;
nodes = (
"336 194 OFFCURVE",
"322 200 OFFCURVE",
"312 210 CURVE",
"292 232 OFFCURVE",
"282 260 OFFCURVE",
"282 302 CURVE SMOOTH",
"282 1168 LINE SMOOTH",
"282 1188 OFFCURVE",
"284 1206 OFFCURVE",
"290 1222 CURVE",
"298 1248 OFFCURVE",
"316 1276 OFFCURVE",
"354 1276 CURVE SMOOTH",
"372 1276 OFFCURVE",
"388 1270 OFFCURVE",
"398 1260 CURVE",
"418 1236 OFFCURVE",
"426 1208 OFFCURVE",
"426 1168 CURVE SMOOTH",
"426 302 LINE SMOOTH",
"426 280 OFFCURVE",
"424 262 OFFCURVE",
"418 248 CURVE",
"410 218 OFFCURVE",
"392 194 OFFCURVE",
"354 194 CURVE SMOOTH"
);
}
);
width = 712;
},
{
layerId = "E10EC336-1202-48FF-9A55-15876E80CDFD";
paths = (
{
closed = 1;
nodes = (
"698 72 LINE",
"658 80 OFFCURVE",
"638 100 OFFCURVE",
"624 124 CURVE",
"638 146 OFFCURVE",
"652 166 OFFCURVE",
"662 188 CURVE",
"684 228 OFFCURVE",
"698 266 OFFCURVE",
"706 302 CURVE SMOOTH",
"890 1168 LINE",
"900 1230 OFFCURVE",
"900 1282 OFFCURVE",
"886 1326 CURVE",
"878 1366 OFFCURVE",
"858 1406 OFFCURVE",
"824 1436 CURVE SMOOTH",
"790 1466 OFFCURVE",
"740 1486 OFFCURVE",
"668 1486 CURVE SMOOTH",
"596 1486 OFFCURVE",
"536 1466 OFFCURVE",
"490 1436 CURVE SMOOTH",
"444 1406 OFFCURVE",
"412 1366 OFFCURVE",
"382 1326 CURVE",
"350 1278 OFFCURVE",
"328 1226 OFFCURVE",
"314 1168 CURVE SMOOTH",
"130 302 LINE SMOOTH",
"118 240 OFFCURVE",
"118 188 OFFCURVE",
"132 142 CURVE",
"140 102 OFFCURVE",
"158 64 OFFCURVE",
"192 34 CURVE SMOOTH",
"228 0 OFFCURVE",
"280 -16 OFFCURVE",
"350 -16 CURVE SMOOTH",
"392 -16 OFFCURVE",
"430 -8 OFFCURVE",
"462 2 CURVE",
"486 -60 OFFCURVE",
"538 -112 OFFCURVE",
"660 -112 CURVE"
);
},
{
closed = 1;
nodes = (
"376 194 OFFCURVE",
"364 200 OFFCURVE",
"356 210 CURVE",
"340 232 OFFCURVE",
"336 264 OFFCURVE",
"346 302 CURVE",
"530 1168 LINE SMOOTH",
"534 1188 OFFCURVE",
"540 1206 OFFCURVE",
"548 1222 CURVE SMOOTH",
"562 1248 OFFCURVE",
"586 1276 OFFCURVE",
"624 1276 CURVE SMOOTH",
"642 1276 OFFCURVE",
"656 1270 OFFCURVE",
"664 1260 CURVE",
"678 1238 OFFCURVE",
"682 1208 OFFCURVE",
"674 1168 CURVE SMOOTH",
"490 302 LINE",
"484 278 OFFCURVE",
"476 260 OFFCURVE",
"470 248 CURVE SMOOTH",
"456 218 OFFCURVE",
"432 194 OFFCURVE",
"394 194 CURVE SMOOTH"
);
}
);
width = 712;
},
{
layerId = "38BA14EB-08C8-4487-88C1-8F957131FCA1";
paths = (
{
closed = 1;
nodes = (
"368 68 LINE",
"350 74 OFFCURVE",
"338 86 OFFCURVE",
"330 104 CURVE",
"330 106 LINE",
"332 104 OFFCURVE",
"330 106 OFFCURVE",
"332 108 CURVE",
"360 160 OFFCURVE",
"386 222 OFFCURVE",
"398 282 CURVE SMOOTH",
"590 1188 LINE SMOOTH",
"616 1308 OFFCURVE",
"614 1486 OFFCURVE",
"454 1486 CURVE SMOOTH",
"304 1486 OFFCURVE",
"228 1340 OFFCURVE",
"196 1188 CURVE SMOOTH",
"4 282 LINE SMOOTH",
"-22 154 OFFCURVE",
"-20 -4 OFFCURVE",
"122 -14 CURVE",
"124 -14 OFFCURVE",
"124 -16 OFFCURVE",
"128 -16 CURVE SMOOTH",
"144 -16 LINE",
"170 -12 LINE",
"176 -12 OFFCURVE",
"182 -10 OFFCURVE",
"188 -8 CURVE",
"190 -8 LINE",
"200 -64 OFFCURVE",
"236 -112 OFFCURVE",
"330 -112 CURVE"
);
},
{
closed = 1;
nodes = (
"164 194 OFFCURVE",
"164 236 OFFCURVE",
"174 282 CURVE SMOOTH",
"366 1188 LINE SMOOTH",
"376 1236 OFFCURVE",
"390 1276 OFFCURVE",
"412 1276 CURVE SMOOTH",
"434 1276 OFFCURVE",
"430 1234 OFFCURVE",
"420 1188 CURVE SMOOTH",
"228 282 LINE SMOOTH",
"220 242 OFFCURVE",
"202 194 OFFCURVE",
"182 194 CURVE SMOOTH"
);
}
);
width = 488;
},
{
layerId = "6463F33F-C059-4755-9C76-9F35D70521A0";
paths = (
{
closed = 1;
nodes = (
"428 68 LINE",
"408 74 OFFCURVE",
"394 86 OFFCURVE",
"382 104 CURVE",
"382 106 LINE",
"384 104 OFFCURVE",
"382 106 OFFCURVE",
"382 108 CURVE",
"400 160 OFFCURVE",
"412 222 OFFCURVE",
"412 282 CURVE SMOOTH",
"412 1188 LINE SMOOTH",
"412 1308 OFFCURVE",
"372 1486 OFFCURVE",
"212 1486 CURVE SMOOTH",
"62 1486 OFFCURVE",
"18 1340 OFFCURVE",
"18 1188 CURVE SMOOTH",
"18 282 LINE SMOOTH",
"18 154 OFFCURVE",
"52 -4 OFFCURVE",
"198 -14 CURVE",
"200 -14 OFFCURVE",
"202 -16 OFFCURVE",
"206 -16 CURVE SMOOTH",
"222 -16 LINE",
"246 -12 LINE",
"252 -12 OFFCURVE",
"258 -10 OFFCURVE",
"264 -8 CURVE",
"266 -8 LINE",
"288 -64 OFFCURVE",
"334 -112 OFFCURVE",
"428 -112 CURVE"
);
},
{
closed = 1;
nodes = (
"196 194 OFFCURVE",
"188 236 OFFCURVE",
"188 282 CURVE SMOOTH",
"188 1188 LINE SMOOTH",
"188 1236 OFFCURVE",
"192 1276 OFFCURVE",
"214 1276 CURVE SMOOTH",
"236 1276 OFFCURVE",
"242 1234 OFFCURVE",
"242 1188 CURVE SMOOTH",
"242 282 LINE SMOOTH",
"242 242 OFFCURVE",
"234 194 OFFCURVE",
"214 194 CURVE SMOOTH"
);
}
);
width = 488;
}
);
unicode = 0051;
},
{
color = 0;
glyphname = R;
lastChange = "2019-11-22 22:53:53 +0000";
layers = (
{
anchors = (
{
name = bottom;
position = "{361, 0}";
},
{
name = top;
position = "{361, 1470}";
}
);
layerId = "1AB499B8-18A8-432D-A211-B6882CCB886D";
paths = (
{
closed = 1;
nodes = (
"296 0 LINE",
"296 620 LINE",
"354 620 LINE",
"466 0 LINE",
"682 0 LINE",
"544 712 LINE",
"626 768 OFFCURVE",
"664 900 OFFCURVE",
"664 1046 CURVE SMOOTH",
"664 1324 OFFCURVE",
"554 1470 OFFCURVE",
"296 1470 CURVE SMOOTH",
"80 1470 LINE",
"80 0 LINE"
);
},
{
closed = 1;
nodes = (
"296 1256 LINE",
"326 1256 OFFCURVE",
"366 1254 OFFCURVE",
"398 1226 CURVE SMOOTH",
"430 1198 OFFCURVE",
"456 1142 OFFCURVE",
"456 1038 CURVE SMOOTH",
"456 934 OFFCURVE",
"430 880 OFFCURVE",
"398 852 CURVE SMOOTH",
"366 824 OFFCURVE",
"326 820 OFFCURVE",
"296 820 CURVE"
);
}
);
width = 722;
},
{
layerId = "E10EC336-1202-48FF-9A55-15876E80CDFD";
paths = (
{
closed = 1;
nodes = (
"296 0 LINE",
"426 620 LINE",
"484 620 LINE",
"466 0 LINE",
"682 0 LINE",
"694 712 LINE",
"788 768 OFFCURVE",
"854 900 OFFCURVE",
"886 1046 CURVE SMOOTH",
"944 1326 OFFCURVE",
"866 1470 OFFCURVE",
"608 1470 CURVE SMOOTH",
"392 1470 LINE",
"80 0 LINE"
);
},
{
closed = 1;
nodes = (
"562 1256 LINE",
"592 1256 OFFCURVE",
"632 1256 OFFCURVE",
"658 1226 CURVE SMOOTH",
"684 1196 OFFCURVE",
"698 1142 OFFCURVE",
"676 1038 CURVE SMOOTH",
"654 934 OFFCURVE",
"616 882 OFFCURVE",
"578 852 CURVE SMOOTH",
"540 822 OFFCURVE",
"500 820 OFFCURVE",
"470 820 CURVE"
);
}
);
width = 722;
},
{
layerId = "38BA14EB-08C8-4487-88C1-8F957131FCA1";
paths = (
{
closed = 1;
nodes = (
"116 0 LINE",
"254 640 LINE",
"202 0 LINE",
"364 0 LINE",
"414 712 LINE",
"480 774 OFFCURVE",
"532 906 OFFCURVE",
"562 1046 CURVE SMOOTH",
"620 1324 OFFCURVE",
"588 1470 OFFCURVE",
"432 1470 CURVE SMOOTH",
"264 1470 LINE",
"-48 0 LINE"
);
},
{
closed = 1;
nodes = (
"384 1256 LINE",
"394 1256 OFFCURVE",
"416 1258 OFFCURVE",
"426 1236 CURVE SMOOTH",
"436 1212 OFFCURVE",
"424 1146 OFFCURVE",
"402 1038 CURVE SMOOTH",
"380 932 OFFCURVE",
"362 858 OFFCURVE",
"338 832 CURVE SMOOTH",
"324 816 OFFCURVE",
"304 810 OFFCURVE",
"290 810 CURVE"
);
}
);
width = 494;
},
{
layerId = "6463F33F-C059-4755-9C76-9F35D70521A0";
paths = (
{
closed = 1;
nodes = (
"196 0 LINE",
"196 640 LINE",
"282 0 LINE",
"444 0 LINE",
"342 712 LINE",
"394 774 OFFCURVE",
"418 906 OFFCURVE",
"418 1046 CURVE SMOOTH",
"418 1324 OFFCURVE",
"354 1470 OFFCURVE",
"198 1470 CURVE SMOOTH",
"30 1470 LINE",
"30 0 LINE"
);
},
{
closed = 1;
nodes = (
"196 1256 LINE",
"206 1256 OFFCURVE",
"228 1258 OFFCURVE",
"242 1236 CURVE SMOOTH",
"258 1212 OFFCURVE",
"260 1146 OFFCURVE",
"260 1038 CURVE SMOOTH",
"260 932 OFFCURVE",
"258 858 OFFCURVE",
"240 832 CURVE",
"230 816 OFFCURVE",
"210 810 OFFCURVE",
"196 810 CURVE"
);
}
);
width = 494;
}
);
unicode = 0052;
},
{
color = 0;
glyphname = S;
lastChange = "2019-11-22 22:53:53 +0000";
layers = (
{
anchors = (
{
name = bottom;
position = "{343, 0}";
},
{
name = top;
position = "{343, 1470}";
}
);
layerId = "1AB499B8-18A8-432D-A211-B6882CCB886D";
paths = (
{
closed = 1;
nodes = (
"468 -16 OFFCURVE",
"542 28 OFFCURVE",
"588 96 CURVE SMOOTH",
"634 164 OFFCURVE",
"650 256 OFFCURVE",
"650 354 CURVE SMOOTH",
"650 434 OFFCURVE",
"624 510 OFFCURVE",
"586 584 CURVE SMOOTH",
"548 658 OFFCURVE",
"498 734 OFFCURVE",
"448 808 CURVE SMOOTH",
"406 870 OFFCURVE",
"364 928 OFFCURVE",
"332 984 CURVE SMOOTH",
"300 1040 OFFCURVE",
"278 1092 OFFCURVE",
"278 1142 CURVE SMOOTH",
"278 1228 OFFCURVE",
"296 1286 OFFCURVE",
"352 1288 CURVE",
"386 1288 OFFCURVE",
"408 1260 OFFCURVE",
"422 1220 CURVE SMOOTH",
"436 1178 OFFCURVE",
"438 1124 OFFCURVE",
"438 1076 CURVE",
"650 1096 LINE",
"650 1178 OFFCURVE",
"638 1276 OFFCURVE",
"596 1356 CURVE SMOOTH",
"554 1434 OFFCURVE",
"478 1488 OFFCURVE",
"348 1486 CURVE SMOOTH",
"246 1484 OFFCURVE",
"176 1438 OFFCURVE",
"130 1374 CURVE SMOOTH",
"84 1308 OFFCURVE",
"66 1222 OFFCURVE",
"66 1142 CURVE SMOOTH",
"66 1102 OFFCURVE",
"72 1062 OFFCURVE",
"84 1024 CURVE SMOOTH",
"106 946 OFFCURVE",
"142 870 OFFCURVE",
"190 796 CURVE SMOOTH",
"238 722 OFFCURVE",
"284 654 OFFCURVE",
"326 594 CURVE SMOOTH",
"346 564 OFFCURVE",
"364 534 OFFCURVE",
"382 506 CURVE",
"414 448 OFFCURVE",
"438 392 OFFCURVE",
"438 344 CURVE SMOOTH",
"438 250 OFFCURVE",
"414 182 OFFCURVE",
"350 182 CURVE SMOOTH",
"304 182 OFFCURVE",
"280 214 OFFCURVE",
"266 262 CURVE",
"250 308 OFFCURVE",
"248 370 OFFCURVE",
"248 432 CURVE",
"36 412 LINE",
"36 302 OFFCURVE",
"46 196 OFFCURVE",
"90 116 CURVE SMOOTH",
"134 36 OFFCURVE",
"212 -16 OFFCURVE",
"350 -16 CURVE SMOOTH"
);
}
);
width = 686;
},
{
layerId = "E10EC336-1202-48FF-9A55-15876E80CDFD";
paths = (
{
closed = 1;
nodes = (
"466 -16 OFFCURVE",
"546 26 OFFCURVE",
"608 96 CURVE SMOOTH",
"670 166 OFFCURVE",
"702 256 OFFCURVE",
"724 354 CURVE SMOOTH",
"742 434 OFFCURVE",
"732 510 OFFCURVE",
"710 584 CURVE SMOOTH",
"686 658 OFFCURVE",
"656 734 OFFCURVE",
"618 808 CURVE SMOOTH",
"588 870 OFFCURVE",
"562 928 OFFCURVE",
"540 984 CURVE SMOOTH",
"518 1040 OFFCURVE",
"510 1092 OFFCURVE",
"520 1142 CURVE SMOOTH",
"538 1228 OFFCURVE",
"568 1286 OFFCURVE",
"624 1288 CURVE",
"658 1288 OFFCURVE",
"674 1260 OFFCURVE",
"680 1220 CURVE SMOOTH",
"686 1178 OFFCURVE",
"676 1124 OFFCURVE",
"666 1076 CURVE",
"882 1096 LINE",
"900 1178 OFFCURVE",
"908 1276 OFFCURVE",
"884 1356 CURVE SMOOTH",
"858 1434 OFFCURVE",
"796 1488 OFFCURVE",
"662 1486 CURVE SMOOTH",
"560 1484 OFFCURVE",
"480 1438 OFFCURVE",
"422 1374 CURVE SMOOTH",
"360 1308 OFFCURVE",
"324 1222 OFFCURVE",
"308 1142 CURVE SMOOTH",
"300 1102 OFFCURVE",
"294 1062 OFFCURVE",
"300 1024 CURVE",
"306 948 OFFCURVE",
"324 872 OFFCURVE",
"358 796 CURVE SMOOTH",
"374 758 OFFCURVE",
"390 724 OFFCURVE",
"406 690 CURVE SMOOTH",
"422 656 OFFCURVE",
"438 624 OFFCURVE",
"452 594 CURVE SMOOTH",
"458 580 OFFCURVE",
"464 564 OFFCURVE",
"470 550 CURVE SMOOTH",
"476 536 OFFCURVE",
"482 520 OFFCURVE",
"488 506 CURVE",
"510 448 OFFCURVE",
"520 392 OFFCURVE",
"510 344 CURVE SMOOTH",
"488 250 OFFCURVE",
"452 182 OFFCURVE",
"388 182 CURVE SMOOTH",
"342 182 OFFCURVE",
"326 214 OFFCURVE",
"320 262 CURVE SMOOTH",
"314 308 OFFCURVE",
"324 370 OFFCURVE",
"338 432 CURVE",
"122 412 LINE",
"100 300 OFFCURVE",
"84 196 OFFCURVE",
"114 116 CURVE",
"140 36 OFFCURVE",
"208 -16 OFFCURVE",
"346 -16 CURVE SMOOTH"
);
}
);
width = 686;
},
{
layerId = "38BA14EB-08C8-4487-88C1-8F957131FCA1";
paths = (
{
closed = 1;
nodes = (
"300 -16 OFFCURVE",
"370 194 OFFCURVE",
"400 334 CURVE SMOOTH",
"432 482 OFFCURVE",
"406 622 OFFCURVE",
"372 796 CURVE SMOOTH",
"346 942 OFFCURVE",
"328 1046 OFFCURVE",
"348 1142 CURVE SMOOTH",
"366 1228 OFFCURVE",
"382 1288 OFFCURVE",
"406 1288 CURVE SMOOTH",
"438 1288 OFFCURVE",
"404 1126 OFFCURVE",
"394 1074 CURVE",
"562 1098 LINE",
"588 1220 OFFCURVE",
"638 1490 OFFCURVE",
"444 1486 CURVE SMOOTH",
"284 1482 OFFCURVE",
"212 1270 OFFCURVE",
"186 1142 CURVE SMOOTH",
"162 1028 OFFCURVE",
"176 882 OFFCURVE",
"196 764 CURVE SMOOTH",
"238 558 OFFCURVE",
"260 448 OFFCURVE",
"234 324 CURVE SMOOTH",
"214 230 OFFCURVE",
"200 182 OFFCURVE",
"170 182 CURVE SMOOTH",
"126 182 OFFCURVE",
"170 388 OFFCURVE",
"180 434 CURVE",
"12 410 LINE",
"-14 276 OFFCURVE",
"-80 -16 OFFCURVE",
"128 -16 CURVE SMOOTH"
);
}
);
width = 472;
},
{
layerId = "6463F33F-C059-4755-9C76-9F35D70521A0";
paths = (
{
closed = 1;
nodes = (
"382 -16 OFFCURVE",
"408 194 OFFCURVE",
"408 334 CURVE SMOOTH",
"408 482 OFFCURVE",
"354 622 OFFCURVE",
"282 796 CURVE SMOOTH",
"224 942 OFFCURVE",
"184 1046 OFFCURVE",
"184 1142 CURVE SMOOTH",
"184 1228 OFFCURVE",
"188 1288 OFFCURVE",
"212 1288 CURVE SMOOTH",
"244 1288 OFFCURVE",
"244 1126 OFFCURVE",
"244 1074 CURVE",
"408 1098 LINE",
"408 1220 OFFCURVE",
"400 1490 OFFCURVE",
"208 1486 CURVE SMOOTH",
"48 1482 OFFCURVE",
"22 1270 OFFCURVE",
"22 1142 CURVE SMOOTH",
"22 1028 OFFCURVE",
"68 882 OFFCURVE",
"112 764 CURVE",
"198 558 OFFCURVE",
"244 448 OFFCURVE",
"244 324 CURVE SMOOTH",
"244 230 OFFCURVE",
"240 182 OFFCURVE",
"210 182 CURVE SMOOTH",
"166 182 OFFCURVE",
"166 388 OFFCURVE",
"166 434 CURVE",
"4 410 LINE",
"4 276 OFFCURVE",
"0 -16 OFFCURVE",
"210 -16 CURVE SMOOTH"
);
}
);
width = 472;
}
);
leftKerningGroup = S;
unicode = 0053;
},
{
color = 0;
glyphname = T;
lastChange = "2019-11-22 22:53:53 +0000";
layers = (
{
anchors = (
{
name = bottom;
position = "{316, 0}";
},
{
name = center;
position = "{316, 735}";
},
{
name = top;
position = "{316, 1470}";
}
);
layerId = "1AB499B8-18A8-432D-A211-B6882CCB886D";
paths = (
{
closed = 1;
nodes = (
"424 0 LINE",
"424 1248 LINE",
"628 1248 LINE",
"628 1470 LINE",
"4 1470 LINE",
"4 1248 LINE",
"208 1248 LINE",
"208 0 LINE"
);
}
);
width = 632;
},
{
layerId = "E10EC336-1202-48FF-9A55-15876E80CDFD";
paths = (
{
closed = 1;
nodes = (
"424 0 LINE",
"688 1248 LINE",
"892 1248 LINE",
"940 1470 LINE",
"316 1470 LINE",
"268 1248 LINE",
"472 1248 LINE",
"208 0 LINE"
);
}
);
width = 632;
},
{
layerId = "38BA14EB-08C8-4487-88C1-8F957131FCA1";
paths = (
{
closed = 1;
nodes = (
"192 0 LINE",
"458 1248 LINE",
"580 1248 LINE",
"628 1470 LINE",
"218 1470 LINE",
"170 1248 LINE",
"292 1248 LINE",
"26 0 LINE"
);
}
);
width = 440;
},
{
layerId = "6463F33F-C059-4755-9C76-9F35D70521A0";
paths = (
{
closed = 1;
nodes = (
"272 0 LINE",
"272 1248 LINE",
"394 1248 LINE",
"394 1470 LINE",
"-16 1470 LINE",
"-16 1248 LINE",
"106 1248 LINE",
"106 0 LINE"
);
}
);
width = 440;
}
);
unicode = 0054;
},
{
color = 0;
glyphname = Tbar;
lastChange = "2019-11-22 22:53:53 +0000";
layers = (
{
layerId = "1AB499B8-18A8-432D-A211-B6882CCB886D";
paths = (
{
closed = 1;
nodes = (
"424 0 LINE",
"424 1248 LINE",
"628 1248 LINE",
"628 1470 LINE",
"4 1470 LINE",
"4 1248 LINE",
"208 1248 LINE",
"208 0 LINE"
);
},
{
closed = 1;
nodes = (
"518 942 LINE",
"518 1100 LINE",
"130 1100 LINE",
"130 942 LINE"
);
}
);
width = 632;
},
{
layerId = "E10EC336-1202-48FF-9A55-15876E80CDFD";
paths = (
{
closed = 1;
nodes = (
"424 0 LINE",
"624 942 LINE",
"718 942 LINE",
"750 1100 LINE",
"656 1100 LINE",
"688 1248 LINE",
"892 1248 LINE",
"940 1470 LINE",
"316 1470 LINE",
"268 1248 LINE",
"472 1248 LINE",
"440 1100 LINE",
"362 1100 LINE",
"330 942 LINE",
"408 942 LINE",
"208 0 LINE"
);
}
);
width = 632;
},
{
layerId = "38BA14EB-08C8-4487-88C1-8F957131FCA1";
paths = (
{
closed = 1;
nodes = (
"192 0 LINE",
"394 942 LINE",
"450 942 LINE",
"482 1100 LINE",
"426 1100 LINE",
"458 1248 LINE",
"580 1248 LINE",
"628 1470 LINE",
"218 1470 LINE",
"170 1248 LINE",
"292 1248 LINE",
"260 1100 LINE",
"214 1100 LINE",
"182 942 LINE",
"228 942 LINE",
"26 0 LINE"
);
}
);
width = 440;
},
{
layerId = "6463F33F-C059-4755-9C76-9F35D70521A0";
paths = (
{
closed = 1;
nodes = (
"272 0 LINE",
"272 942 LINE",
"328 942 LINE",
"328 1100 LINE",
"272 1100 LINE",
"272 1248 LINE",
"394 1248 LINE",
"394 1470 LINE",
"-16 1470 LINE",
"-16 1248 LINE",
"106 1248 LINE",
"106 1100 LINE",
"60 1100 LINE",
"60 942 LINE",
"106 942 LINE",
"106 0 LINE"
);
}
);
width = 440;
}
);
unicode = 0166;
},
{
color = 0;
glyphname = U;
lastChange = "2019-11-22 22:53:53 +0000";
layers = (
{
anchors = (
{
name = bottom;
position = "{366, 0}";
},
{
name = ogonek;
position = "{659, 10}";
},
{
name = top;
position = "{366, 1470}";
},
{
name = topright;
position = "{712, 1470}";
}
);
layerId = "1AB499B8-18A8-432D-A211-B6882CCB886D";
paths = (
{
closed = 1;
nodes = (
"438 -16 OFFCURVE",
"492 2 OFFCURVE",
"532 34 CURVE SMOOTH",
"572 64 OFFCURVE",
"600 102 OFFCURVE",
"618 142 CURVE SMOOTH",
"640 188 OFFCURVE",
"652 242 OFFCURVE",
"654 302 CURVE SMOOTH",
"654 1470 LINE",
"438 1470 LINE",
"438 302 LINE SMOOTH",
"438 280 OFFCURVE",
"436 262 OFFCURVE",
"430 248 CURVE",
"422 218 OFFCURVE",
"404 194 OFFCURVE",
"366 194 CURVE SMOOTH",
"348 194 OFFCURVE",
"334 200 OFFCURVE",
"324 210 CURVE",
"304 232 OFFCURVE",
"294 260 OFFCURVE",
"294 302 CURVE SMOOTH",
"294 1470 LINE",
"78 1470 LINE",
"78 302 LINE",
"80 242 OFFCURVE",
"92 188 OFFCURVE",
"114 142 CURVE SMOOTH",
"132 102 OFFCURVE",
"158 64 OFFCURVE",
"198 34 CURVE SMOOTH",
"238 2 OFFCURVE",
"294 -16 OFFCURVE",
"366 -16 CURVE SMOOTH"
);
}
);
width = 732;
},
{
layerId = "E10EC336-1202-48FF-9A55-15876E80CDFD";
paths = (
{
closed = 1;
nodes = (
"432 -16 OFFCURVE",
"490 0 OFFCURVE",
"538 34 CURVE",
"584 64 OFFCURVE",
"618 102 OFFCURVE",
"648 142 CURVE",
"678 188 OFFCURVE",
"702 242 OFFCURVE",
"718 302 CURVE",
"966 1470 LINE",
"750 1470 LINE",
"502 302 LINE",
"496 278 OFFCURVE",
"488 260 OFFCURVE",
"482 248 CURVE SMOOTH",
"468 218 OFFCURVE",
"444 194 OFFCURVE",
"406 194 CURVE SMOOTH",
"388 194 OFFCURVE",
"376 200 OFFCURVE",
"368 210 CURVE",
"352 232 OFFCURVE",
"348 264 OFFCURVE",
"358 302 CURVE",
"606 1470 LINE",
"390 1470 LINE",
"142 302 LINE SMOOTH",
"130 240 OFFCURVE",
"130 188 OFFCURVE",
"144 142 CURVE",
"152 102 OFFCURVE",
"170 64 OFFCURVE",
"204 34 CURVE SMOOTH",
"240 0 OFFCURVE",
"292 -16 OFFCURVE",
"362 -16 CURVE SMOOTH"
);
}
);
width = 732;
},
{
layerId = "38BA14EB-08C8-4487-88C1-8F957131FCA1";
paths = (
{
closed = 1;
nodes = (
"282 -16 OFFCURVE",
"356 116 OFFCURVE",
"392 282 CURVE SMOOTH",
"644 1470 LINE",
"478 1470 LINE",
"226 282 LINE SMOOTH",
"216 234 OFFCURVE",
"202 194 OFFCURVE",
"178 194 CURVE SMOOTH",
"152 194 OFFCURVE",
"152 226 OFFCURVE",
"164 282 CURVE SMOOTH",
"416 1470 LINE",
"250 1470 LINE",
"0 282 LINE SMOOTH",
"-32 132 OFFCURVE",
"-26 -16 OFFCURVE",
"132 -16 CURVE SMOOTH"
);
}
);
width = 500;
},
{
layerId = "6463F33F-C059-4755-9C76-9F35D70521A0";
paths = (
{
closed = 1;
nodes = (
"364 -16 OFFCURVE",
"410 116 OFFCURVE",
"410 282 CURVE SMOOTH",
"410 1470 LINE",
"244 1470 LINE",
"244 282 LINE SMOOTH",
"244 234 OFFCURVE",
"238 194 OFFCURVE",
"214 194 CURVE SMOOTH",
"188 194 OFFCURVE",
"182 226 OFFCURVE",
"182 282 CURVE SMOOTH",
"182 1470 LINE",
"16 1470 LINE",
"16 282 LINE SMOOTH",
"16 132 OFFCURVE",
"54 -16 OFFCURVE",
"214 -16 CURVE SMOOTH"
);
}
);
width = 500;
}
);
unicode = 0055;
},
{
color = 0;
glyphname = V;
lastChange = "2019-11-22 22:53:53 +0000";
layers = (
{
anchors = (
{
name = bottom;
position = "{350, 0}";
},
{
name = top;
position = "{350, 1470}";
}
);
layerId = "1AB499B8-18A8-432D-A211-B6882CCB886D";
paths = (
{
closed = 1;
nodes = (
"458 0 LINE",
"682 1470 LINE",
"472 1470 LINE",
"364 662 LINE",
"356 600 LINE",
"344 600 LINE",
"336 662 LINE",
"228 1470 LINE",
"18 1470 LINE",
"242 0 LINE"
);
}
);
width = 700;
},
{
layerId = "E10EC336-1202-48FF-9A55-15876E80CDFD";
paths = (
{
closed = 1;
nodes = (
"458 0 LINE",
"994 1470 LINE",
"784 1470 LINE",
"504 662 LINE",
"482 600 LINE",
"470 600 LINE",
"476 662 LINE",
"540 1470 LINE",
"330 1470 LINE",
"242 0 LINE"
);
}
);
width = 700;
},
{
layerId = "38BA14EB-08C8-4487-88C1-8F957131FCA1";
paths = (
{
closed = 1;
nodes = (
"212 0 LINE",
"662 1470 LINE",
"500 1470 LINE",
"284 718 LINE",
"388 1470 LINE",
"226 1470 LINE",
"48 0 LINE"
);
}
);
width = 480;
},
{
layerId = "6463F33F-C059-4755-9C76-9F35D70521A0";
paths = (
{
closed = 1;
nodes = (
"292 0 LINE",
"428 1470 LINE",
"266 1470 LINE",
"210 718 LINE",
"154 1470 LINE",
"-8 1470 LINE",
"128 0 LINE"
);
}
);
width = 480;
}
);
leftKerningGroup = V;
unicode = 0056;
},
{
color = 0;
glyphname = W;
lastChange = "2019-11-22 22:53:53 +0000";
layers = (
{
anchors = (
{
name = bottom;
position = "{506, 0}";
},
{
name = top;
position = "{506, 1470}";
}
);
layerId = "1AB499B8-18A8-432D-A211-B6882CCB886D";
paths = (
{
closed = 1;
nodes = (
"390 0 LINE",
"490 696 LINE",
"502 782 LINE",
"510 782 LINE",
"522 696 LINE",
"622 0 LINE",
"790 0 LINE",
"988 1470 LINE",
"788 1470 LINE",
"702 706 LINE",
"698 658 LINE",
"682 658 LINE",
"676 706 LINE",
"584 1470 LINE",
"428 1470 LINE",
"336 706 LINE",
"330 658 LINE",
"314 658 LINE",
"310 706 LINE",
"224 1470 LINE",
"24 1470 LINE",
"222 0 LINE"
);
}
);
width = 1012;
},
{
layerId = "E10EC336-1202-48FF-9A55-15876E80CDFD";
paths = (
{
closed = 1;
nodes = (
"370 0 LINE",
"616 696 LINE",
"648 782 LINE",
"656 782 LINE",
"648 696 LINE",
"602 0 LINE",
"770 0 LINE",
"1280 1470 LINE",
"1080 1470 LINE",
"832 706 LINE",
"816 658 LINE",
"800 658 LINE",
"806 706 LINE",
"876 1470 LINE",
"720 1470 LINE",
"466 706 LINE",
"448 658 LINE",
"432 658 LINE",
"440 706 LINE",
"516 1470 LINE",
"316 1470 LINE",
"202 0 LINE"
);
}
);
width = 992;
},
{
layerId = "38BA14EB-08C8-4487-88C1-8F957131FCA1";
paths = (
{
closed = 1;
nodes = (
"168 0 LINE",
"374 704 LINE",
"280 0 LINE",
"422 0 LINE",
"844 1470 LINE",
"688 1470 LINE",
"630 1254 OFFCURVE",
"560 998 OFFCURVE",
"502 782 CURVE",
"598 1470 LINE",
"476 1470 LINE",
"280 780 LINE",
"386 1470 LINE",
"230 1470 LINE",
"28 0 LINE"
);
}
);
width = 668;
},
{
layerId = "6463F33F-C059-4755-9C76-9F35D70521A0";
paths = (
{
closed = 1;
nodes = (
"248 0 LINE",
"304 704 LINE",
"360 0 LINE",
"502 0 LINE",
"610 1470 LINE",
"454 1470 LINE",
"442 1254 OFFCURVE",
"426 998 OFFCURVE",
"414 782 CURVE",
"364 1470 LINE",
"242 1470 LINE",
"194 780 LINE",
"152 1470 LINE",
"-4 1470 LINE",
"108 0 LINE"
);
}
);
width = 668;
}
);
leftKerningGroup = V;
unicode = 0057;
},
{
color = 0;
glyphname = X;
lastChange = "2019-11-22 22:53:53 +0000";
layers = (
{
anchors = (
{
name = bottom;
position = "{360, 0}";
},
{
name = top;
position = "{360, 1470}";
}
);
layerId = "1AB499B8-18A8-432D-A211-B6882CCB886D";
paths = (
{
closed = 1;
nodes = (
"228 0 LINE",
"352 438 LINE",
"356 456 LINE",
"364 456 LINE",
"368 438 LINE",
"492 0 LINE",
"704 0 LINE",
"466 772 LINE",
"700 1470 LINE",
"488 1470 LINE",
"370 1098 LINE",
"364 1080 LINE",
"356 1080 LINE",
"350 1098 LINE",
"232 1470 LINE",
"20 1470 LINE",
"254 772 LINE",
"16 0 LINE"
);
}
);
width = 720;
},
{
layerId = "E10EC336-1202-48FF-9A55-15876E80CDFD";
paths = (
{
closed = 1;
nodes = (
"228 0 LINE",
"444 438 LINE",
"452 456 LINE",
"460 456 LINE",
"460 438 LINE",
"492 0 LINE",
"704 0 LINE",
"630 772 LINE",
"1012 1470 LINE",
"800 1470 LINE",
"602 1098 LINE",
"592 1080 LINE",
"584 1080 LINE",
"582 1098 LINE",
"544 1470 LINE",
"332 1470 LINE",
"418 772 LINE",
"16 0 LINE"
);
}
);
width = 720;
},
{
layerId = "38BA14EB-08C8-4487-88C1-8F957131FCA1";
paths = (
{
closed = 1;
nodes = (
"74 0 LINE",
"224 406 LINE",
"198 0 LINE",
"360 0 LINE",
"376 520 LINE SMOOTH",
"378 604 OFFCURVE",
"382 690 OFFCURVE",
"384 772 CURVE",
"672 1470 LINE",
"508 1470 LINE",
"464 1352 OFFCURVE",
"416 1232 OFFCURVE",
"374 1114 CURVE",
"392 1470 LINE",
"228 1470 LINE",
"224 1120 LINE SMOOTH",
"220 1010 OFFCURVE",
"220 882 OFFCURVE",
"220 772 CURVE",
"-86 0 LINE"
);
}
);
width = 492;
},
{
layerId = "6463F33F-C059-4755-9C76-9F35D70521A0";
paths = (
{
closed = 1;
nodes = (
"154 0 LINE",
"216 406 LINE",
"278 0 LINE",
"440 0 LINE",
"344 520 LINE SMOOTH",
"328 604 OFFCURVE",
"314 690 OFFCURVE",
"298 772 CURVE",
"438 1470 LINE",
"274 1470 LINE",
"256 1352 OFFCURVE",
"234 1232 OFFCURVE",
"216 1114 CURVE",
"158 1470 LINE",
"-6 1470 LINE",
"64 1120 LINE SMOOTH",
"84 1010 OFFCURVE",
"112 882 OFFCURVE",
"134 772 CURVE",
"-8 0 LINE"
);
}
);
width = 492;
}
);
unicode = 0058;
},
{
color = 0;
glyphname = Y;
lastChange = "2019-11-22 22:53:53 +0000";
layers = (
{
anchors = (
{
name = bottom;
position = "{342, 0}";
},
{
name = top;
position = "{342, 1470}";
},
{
name = topleft;
position = "{20, 1470}";
}
);
layerId = "1AB499B8-18A8-432D-A211-B6882CCB886D";
paths = (
{
closed = 1;
nodes = (
"450 0 LINE",
"450 626 LINE",
"670 1470 LINE",
"458 1470 LINE",
"350 1000 LINE",
"344 986 LINE",
"340 986 LINE",
"334 1000 LINE",
"226 1470 LINE",
"14 1470 LINE",
"234 626 LINE",
"234 0 LINE"
);
}
);
width = 684;
},
{
layerId = "E10EC336-1202-48FF-9A55-15876E80CDFD";
paths = (
{
closed = 1;
nodes = (
"450 0 LINE",
"582 626 LINE",
"982 1470 LINE",
"770 1470 LINE",
"562 1000 LINE",
"552 986 LINE",
"548 986 LINE",
"546 1000 LINE",
"538 1470 LINE",
"326 1470 LINE",
"366 626 LINE",
"234 0 LINE"
);
}
);
width = 684;
},
{
layerId = "38BA14EB-08C8-4487-88C1-8F957131FCA1";
paths = (
{
closed = 1;
nodes = (
"220 0 LINE",
"354 626 LINE",
"672 1470 LINE",
"508 1470 LINE",
"458 1326 OFFCURVE",
"406 1184 OFFCURVE",
"358 1042 CURVE",
"394 1470 LINE",
"230 1470 LINE",
"188 626 LINE",
"54 0 LINE"
);
}
);
width = 470;
},
{
layerId = "6463F33F-C059-4755-9C76-9F35D70521A0";
paths = (
{
closed = 1;
nodes = (
"300 0 LINE",
"300 626 LINE",
"438 1470 LINE",
"274 1470 LINE",
"256 1326 OFFCURVE",
"234 1184 OFFCURVE",
"216 1042 CURVE",
"160 1470 LINE",
"-4 1470 LINE",
"134 626 LINE",
"134 0 LINE"
);
}
);
width = 470;
}
);
leftKerningGroup = Y;
rightKerningGroup = Y;
unicode = 0059;
},
{
color = 0;
glyphname = Z;
lastChange = "2019-11-22 22:53:53 +0000";
layers = (
{
anchors = (
{
name = bottom;
position = "{306, 0}";
},
{
name = center;
position = "{306, 735}";
},
{
name = top;
position = "{306, 1470}";
}
);
layerId = "1AB499B8-18A8-432D-A211-B6882CCB886D";
paths = (
{
closed = 1;
nodes = (
"592 0 LINE",
"592 214 LINE",
"248 214 LINE",
"592 1256 LINE",
"592 1470 LINE",
"68 1470 LINE",
"68 1256 LINE",
"358 1256 LINE",
"20 232 LINE",
"20 0 LINE"
);
}
);
width = 612;
},
{
layerId = "E10EC336-1202-48FF-9A55-15876E80CDFD";
paths = (
{
closed = 1;
nodes = (
"592 0 LINE",
"636 214 LINE",
"292 214 LINE",
"858 1256 LINE",
"904 1470 LINE",
"380 1470 LINE",
"334 1256 LINE",
"624 1256 LINE",
"68 232 LINE",
"20 0 LINE"
);
}
);
width = 612;
},
{
layerId = "38BA14EB-08C8-4487-88C1-8F957131FCA1";
paths = (
{
closed = 1;
nodes = (
"294 0 LINE",
"340 214 LINE",
"132 214 LINE",
"562 1256 LINE",
"608 1470 LINE",
"256 1470 LINE",
"210 1256 LINE",
"384 1256 LINE",
"-34 232 LINE",
"-84 0 LINE"
);
}
);
width = 428;
},
{
layerId = "6463F33F-C059-4755-9C76-9F35D70521A0";
paths = (
{
closed = 1;
nodes = (
"374 0 LINE",
"374 214 LINE",
"166 214 LINE",
"374 1256 LINE",
"374 1470 LINE",
"22 1470 LINE",
"22 1256 LINE",
"196 1256 LINE",
"-6 232 LINE",
"-6 0 LINE"
);
}
);
width = 428;
}
);
unicode = 005A;
},
{
color = 3;
glyphname = a;
lastChange = "2019-11-22 22:53:53 +0000";
layers = (
{
anchors = (
{
name = bottom;
position = "{323, 0}";
},
{
name = ogonek;
position = "{602, 0}";
},
{
name = top;
position = "{342, 1110}";
}
);
background = {
paths = (
{
closed = 1;
nodes = (
"246 270 OFFCURVE",
"248 246 OFFCURVE",
"256 224 CURVE SMOOTH",
"264 200 OFFCURVE",
"278 182 OFFCURVE",
"302 182 CURVE SMOOTH",
"348 182 OFFCURVE",
"386 210 OFFCURVE",
"386 248 CURVE SMOOTH",
"386 528 LINE",
"288 486 OFFCURVE",
"246 388 OFFCURVE",
"246 284 CURVE SMOOTH"
);
},
{
closed = 1;
nodes = (
"48 376 OFFCURVE",
"84 464 OFFCURVE",
"132 524 CURVE SMOOTH",
"180 584 OFFCURVE",
"240 622 OFFCURVE",
"290 648 CURVE SMOOTH",
"340 674 OFFCURVE",
"378 692 OFFCURVE",
"386 714 CURVE",
"386 750 LINE",
"386 834 LINE SMOOTH",
"386 852 OFFCURVE",
"386 880 OFFCURVE",
"380 900 CURVE",
"372 920 OFFCURVE",
"356 934 OFFCURVE",
"330 934 CURVE SMOOTH",
"296 934 OFFCURVE",
"282 908 OFFCURVE",
"276 876 CURVE",
"274 860 OFFCURVE",
"272 842 OFFCURVE",
"272 824 CURVE SMOOTH",
"272 806 OFFCURVE",
"272 788 OFFCURVE",
"272 772 CURVE",
"70 772 LINE",
"70 818 LINE SMOOTH",
"70 898 OFFCURVE",
"100 970 OFFCURVE",
"148 1024 CURVE SMOOTH",
"196 1078 OFFCURVE",
"264 1110 OFFCURVE",
"342 1110 CURVE SMOOTH",
"408 1110 OFFCURVE",
"468 1084 OFFCURVE",
"514 1040 CURVE SMOOTH",
"560 996 OFFCURVE",
"588 934 OFFCURVE",
"588 862 CURVE SMOOTH",
"588 520 LINE",
"588 190 LINE SMOOTH",
"588 92 OFFCURVE",
"594 48 OFFCURVE",
"602 0 CURVE",
"404 0 LINE",
"386 22 OFFCURVE",
"386 74 OFFCURVE",
"386 88 CURVE",
"372 88 LINE",
"362 70 OFFCURVE",
"344 44 OFFCURVE",
"316 22 CURVE SMOOTH",
"288 0 OFFCURVE",
"250 -16 OFFCURVE",
"210 -16 CURVE SMOOTH",
"184 -16 OFFCURVE",
"142 -6 OFFCURVE",
"110 34 CURVE",
"76 72 OFFCURVE",
"48 140 OFFCURVE",
"48 254 CURVE SMOOTH"
);
}
);
};
layerId = "1AB499B8-18A8-432D-A211-B6882CCB886D";
paths = (
{
closed = 1;
nodes = (
"277 -16 OFFCURVE",
"334 21 OFFCURVE",
"372 88 CURVE",
"386 88 LINE",
"386 48 OFFCURVE",
"393 13 OFFCURVE",
"404 0 CURVE",
"602 0 LINE",
"592 76 OFFCURVE",
"588 123 OFFCURVE",
"588 190 CURVE SMOOTH",
"588 862 LINE SMOOTH",
"588 1001 OFFCURVE",
"479 1110 OFFCURVE",
"342 1110 CURVE SMOOTH",
"191 1110 OFFCURVE",
"70 980 OFFCURVE",
"70 818 CURVE SMOOTH",
"70 772 LINE",
"272 772 LINE",
"272 902 OFFCURVE",
"284 934 OFFCURVE",
"330 934 CURVE SMOOTH",
"372 934 OFFCURVE",
"386 908 OFFCURVE",
"386 834 CURVE SMOOTH",
"386 623 LINE",
"433 764 LINE",
"395 715 OFFCURVE",
"354 681 OFFCURVE",
"290 648 CURVE SMOOTH",
"121 561 OFFCURVE",
"48 442 OFFCURVE",
"48 254 CURVE SMOOTH",
"48 78 OFFCURVE",
"104 -16 OFFCURVE",
"210 -16 CURVE SMOOTH"
);
},
{
closed = 1;
nodes = (
"262 182 OFFCURVE",
"246 212 OFFCURVE",
"246 284 CURVE SMOOTH",
"246 423 OFFCURVE",
"330 529 OFFCURVE",
"453 546 CURVE",
"386 619 LINE",
"386 248 LINE SMOOTH",
"386 214 OFFCURVE",
"346 182 OFFCURVE",
"302 182 CURVE SMOOTH"
);
}
);
width = 646;
},
{
anchors = (
{
name = bottom;
position = "{333, 0}";
},
{
name = ogonek;
position = "{602, 0}";
},
{
name = top;
position = "{576, 1110}";
}
);
background = {
paths = (
{
closed = 1;
nodes = (
"562 834 LINE",
"568 852 OFFCURVE",
"572 878 OFFCURVE",
"570 900 CURVE",
"566 922 OFFCURVE",
"552 934 OFFCURVE",
"528 934 CURVE SMOOTH",
"494 934 OFFCURVE",
"476 908 OFFCURVE",
"462 876 CURVE",
"456 860 OFFCURVE",
"452 842 OFFCURVE",
"446 824 CURVE",
"444 814 OFFCURVE",
"442 806 OFFCURVE",
"440 798 CURVE",
"438 788 OFFCURVE",
"438 780 OFFCURVE",
"436 772 CURVE",
"234 772 LINE",
"242 818 LINE",
"260 898 OFFCURVE",
"306 970 OFFCURVE",
"364 1024 CURVE SMOOTH",
"426 1078 OFFCURVE",
"498 1110 OFFCURVE",
"576 1110 CURVE SMOOTH",
"642 1110 OFFCURVE",
"696 1086 OFFCURVE",
"734 1040 CURVE SMOOTH",
"772 994 OFFCURVE",
"786 934 OFFCURVE",
"770 862 CURVE SMOOTH",
"628 190 LINE SMOOTH",
"606 92 OFFCURVE",
"604 48 OFFCURVE",
"602 0 CURVE",
"404 0 LINE",
"390 22 OFFCURVE",
"398 74 OFFCURVE",
"404 88 CURVE",
"390 88 LINE",
"376 70 OFFCURVE",
"352 44 OFFCURVE",
"320 22 CURVE SMOOTH",
"288 0 OFFCURVE",
"246 -16 OFFCURVE",
"206 -16 CURVE SMOOTH",
"180 -16 OFFCURVE",
"140 -6 OFFCURVE",
"116 34 CURVE",
"90 72 OFFCURVE",
"76 140 OFFCURVE",
"100 254 CURVE SMOOTH",
"126 376 OFFCURVE",
"180 462 OFFCURVE",
"242 524 CURVE SMOOTH",
"304 586 OFFCURVE",
"372 622 OFFCURVE",
"426 648 CURVE SMOOTH",
"482 674 OFFCURVE",
"522 692 OFFCURVE",
"536 714 CURVE"
);
},
{
closed = 1;
nodes = (
"498 528 LINE",
"388 486 OFFCURVE",
"328 388 OFFCURVE",
"306 284 CURVE",
"300 266 OFFCURVE",
"300 246 OFFCURVE",
"302 224 CURVE",
"308 200 OFFCURVE",
"316 182 OFFCURVE",
"340 182 CURVE SMOOTH",
"386 182 OFFCURVE",
"430 210 OFFCURVE",
"438 248 CURVE SMOOTH"
);
}
);
};
layerId = "E10EC336-1202-48FF-9A55-15876E80CDFD";
paths = (
{
closed = 1;
nodes = (
"275 -16 OFFCURVE",
"337 19 OFFCURVE",
"390 88 CURVE",
"404 88 LINE",
"406 62 OFFCURVE",
"406 -14 OFFCURVE",
"404 0 CURVE",
"602 0 LINE",
"605 70 OFFCURVE",
"611 113 OFFCURVE",
"628 190 CURVE SMOOTH",
"770 862 LINE SMOOTH",
"799 1002 OFFCURVE",
"715 1110 OFFCURVE",
"576 1110 CURVE SMOOTH",
"421 1110 OFFCURVE",
"270 977 OFFCURVE",
"242 818 CURVE SMOOTH",
"234 772 LINE",
"436 772 LINE",
"451 879 OFFCURVE",
"482 934 OFFCURVE",
"528 934 CURVE SMOOTH",
"565 934 OFFCURVE",
"576 901 OFFCURVE",
"562 834 CURVE SMOOTH",
"526 670 LINE",
"584 772 LINE",
"543 716 OFFCURVE",
"500 682 OFFCURVE",
"426 648 CURVE SMOOTH",
"212 550 OFFCURVE",
"89 369 OFFCURVE",
"89 151 CURVE SMOOTH",
"89 33 OFFCURVE",
"123 -16 OFFCURVE",
"206 -16 CURVE SMOOTH"
);
},
{
closed = 1;
nodes = (
"311 182 OFFCURVE",
"300 199 OFFCURVE",
"300 246 CURVE SMOOTH",
"300 373 OFFCURVE",
"404 505 OFFCURVE",
"530 538 CURVE",
"507 572 LINE",
"438 248 LINE SMOOTH",
"431 216 OFFCURVE",
"381 182 OFFCURVE",
"340 182 CURVE SMOOTH"
);
}
);
width = 666;
},
{
anchors = (
{
name = bottom;
position = "{160, 0}";
},
{
name = ogonek;
position = "{324, 0}";
},
{
name = top;
position = "{382, 1110}";
}
);
background = {
paths = (
{
closed = 1;
nodes = (
"322 726 LINE",
"310 704 OFFCURVE",
"272 670 OFFCURVE",
"240 648 CURVE SMOOTH",
"108 552 OFFCURVE",
"38 406 OFFCURVE",
"4 254 CURVE SMOOTH",
"-8 186 OFFCURVE",
"-44 -16 OFFCURVE",
"62 -16 CURVE SMOOTH",
"110 -16 OFFCURVE",
"156 24 OFFCURVE",
"182 66 CURVE",
"180 54 OFFCURVE",
"188 10 OFFCURVE",
"190 0 CURVE",
"324 0 LINE",
"330 48 OFFCURVE",
"334 92 OFFCURVE",
"356 190 CURVE SMOOTH",
"498 862 LINE",
"524 964 OFFCURVE",
"504 1110 OFFCURVE",
"382 1110 CURVE SMOOTH",
"250 1110 OFFCURVE",
"166 960 OFFCURVE",
"140 838 CURVE SMOOTH",
"126 772 LINE",
"278 772 LINE",
"292 844 LINE SMOOTH",
"298 872 OFFCURVE",
"320 936 OFFCURVE",
"340 936 CURVE SMOOTH",
"358 936 OFFCURVE",
"354 878 OFFCURVE",
"346 844 CURVE SMOOTH"
);
},
{
closed = 1;
nodes = (
"218 248 LINE SMOOTH",
"210 210 OFFCURVE",
"186 174 OFFCURVE",
"160 174 CURVE SMOOTH",
"132 174 OFFCURVE",
"148 250 OFFCURVE",
"150 256 CURVE SMOOTH",
"168 344 OFFCURVE",
"226 456 OFFCURVE",
"272 502 CURVE"
);
}
);
};
layerId = "38BA14EB-08C8-4487-88C1-8F957131FCA1";
paths = (
{
closed = 1;
nodes = (
"101 -16 OFFCURVE",
"153 19 OFFCURVE",
"181 66 CURVE",
"183 66 LINE",
"182 46 OFFCURVE",
"185 14 OFFCURVE",
"190 0 CURVE",
"324 0 LINE",
"335 82 OFFCURVE",
"341 117 OFFCURVE",
"356 190 CURVE SMOOTH",
"498 862 LINE SMOOTH",
"529 1006 OFFCURVE",
"480 1110 OFFCURVE",
"382 1110 CURVE SMOOTH",
"277 1110 OFFCURVE",
"173 993 OFFCURVE",
"140 838 CURVE SMOOTH",
"126 772 LINE",
"278 772 LINE",
"300 880 OFFCURVE",
"321 936 OFFCURVE",
"340 936 CURVE SMOOTH",
"355 936 OFFCURVE",
"358 899 OFFCURVE",
"346 844 CURVE SMOOTH",
"311 672 LINE",
"368 794 LINE",
"337 735 OFFCURVE",
"297 689 OFFCURVE",
"240 648 CURVE SMOOTH",
"119 561 OFFCURVE",
"39 429 OFFCURVE",
"4 254 CURVE SMOOTH",
"-29 92 OFFCURVE",
"-6 -16 OFFCURVE",
"62 -16 CURVE SMOOTH"
);
},
{
closed = 1;
nodes = (
"141 174 OFFCURVE",
"138 203 OFFCURVE",
"150 256 CURVE SMOOTH",
"172 351 OFFCURVE",
"244 487 OFFCURVE",
"289 517 CURVE",
"283 556 LINE",
"218 248 LINE SMOOTH",
"210 211 OFFCURVE",
"181 174 OFFCURVE",
"160 174 CURVE SMOOTH"
);
}
);
width = 460;
},
{
anchors = (
{
name = bottom;
position = "{230, 0}";
},
{
name = ogonek;
position = "{384, 0}";
},
{
name = top;
position = "{230, 1094}";
}
);
background = {
paths = (
{
closed = 1;
nodes = (
"226 726 LINE",
"220 704 OFFCURVE",
"188 670 OFFCURVE",
"162 648 CURVE SMOOTH",
"50 552 OFFCURVE",
"10 406 OFFCURVE",
"10 254 CURVE SMOOTH",
"10 186 OFFCURVE",
"16 -16 OFFCURVE",
"124 -16 CURVE SMOOTH",
"172 -16 OFFCURVE",
"210 24 OFFCURVE",
"226 66 CURVE",
"228 54 OFFCURVE",
"244 10 OFFCURVE",
"250 0 CURVE",
"384 0 LINE",
"378 48 OFFCURVE",
"374 92 OFFCURVE",
"374 190 CURVE SMOOTH",
"374 862 LINE SMOOTH",
"374 964 OFFCURVE",
"328 1110 OFFCURVE",
"206 1110 CURVE SMOOTH",
"74 1110 OFFCURVE",
"20 960 OFFCURVE",
"20 838 CURVE SMOOTH",
"20 772 LINE",
"172 772 LINE",
"172 844 LINE SMOOTH",
"172 872 OFFCURVE",
"180 936 OFFCURVE",
"200 936 CURVE SMOOTH",
"218 936 OFFCURVE",
"226 878 OFFCURVE",
"226 844 CURVE SMOOTH"
);
},
{
closed = 1;
nodes = (
"224 248 LINE SMOOTH",
"224 210 OFFCURVE",
"208 174 OFFCURVE",
"182 174 CURVE SMOOTH",
"154 174 OFFCURVE",
"154 250 OFFCURVE",
"154 256 CURVE SMOOTH",
"154 344 OFFCURVE",
"188 456 OFFCURVE",
"224 502 CURVE"
);
}
);
};
layerId = "6463F33F-C059-4755-9C76-9F35D70521A0";
paths = (
{
closed = 1;
nodes = (
"167 -16 OFFCURVE",
"207 17 OFFCURVE",
"225 66 CURVE",
"227 66 LINE",
"228 57 OFFCURVE",
"244 12 OFFCURVE",
"250 0 CURVE",
"384 0 LINE",
"376 83 OFFCURVE",
"374 130 OFFCURVE",
"374 190 CURVE SMOOTH",
"374 862 LINE SMOOTH",
"374 1007 OFFCURVE",
"304 1110 OFFCURVE",
"206 1110 CURVE SMOOTH",
"101 1110 OFFCURVE",
"20 992 OFFCURVE",
"20 838 CURVE SMOOTH",
"20 772 LINE",
"172 772 LINE",
"172 878 OFFCURVE",
"182 936 OFFCURVE",
"200 936 CURVE SMOOTH",
"215 936 OFFCURVE",
"226 898 OFFCURVE",
"226 844 CURVE SMOOTH",
"226 671 LINE",
"249 772 LINE",
"220 709 OFFCURVE",
"200 681 OFFCURVE",
"162 648 CURVE SMOOTH",
"57 559 OFFCURVE",
"10 437 OFFCURVE",
"10 254 CURVE SMOOTH",
"10 82 OFFCURVE",
"51 -16 OFFCURVE",
"124 -16 CURVE SMOOTH"
);
},
{
closed = 1;
nodes = (
"164 174 OFFCURVE",
"154 203 OFFCURVE",
"154 256 CURVE SMOOTH",
"154 358 OFFCURVE",
"196 487 OFFCURVE",
"240 518 CURVE",
"224 557 LINE",
"224 248 LINE SMOOTH",
"224 210 OFFCURVE",
"204 174 OFFCURVE",
"182 174 CURVE SMOOTH"
);
}
);
width = 460;
}
);
leftKerningGroup = a;
rightKerningGroup = a;
unicode = 0061;
},
{
color = 0;
glyphname = ae;
lastChange = "2019-11-22 22:53:53 +0000";
layers = (
{
anchors = (
{
name = bottom;
position = "{483, 0}";
},
{
name = top;
position = "{483, 1094}";
}
);
layerId = "1AB499B8-18A8-432D-A211-B6882CCB886D";
paths = (
{
closed = 1;
nodes = (
"298 -16 OFFCURVE",
"370 40 OFFCURVE",
"426 112 CURVE",
"460 46 OFFCURVE",
"524 -16 OFFCURVE",
"646 -16 CURVE SMOOTH",
"712 -16 OFFCURVE",
"762 -2 OFFCURVE",
"798 28 CURVE SMOOTH",
"870 86 OFFCURVE",
"902 160 OFFCURVE",
"908 266 CURVE",
"908 392 LINE",
"720 392 LINE",
"720 272 LINE SMOOTH",
"720 250 OFFCURVE",
"718 232 OFFCURVE",
"712 216 CURVE",
"704 186 OFFCURVE",
"686 162 OFFCURVE",
"648 162 CURVE SMOOTH",
"630 162 OFFCURVE",
"616 168 OFFCURVE",
"606 178 CURVE",
"588 200 OFFCURVE",
"576 230 OFFCURVE",
"574 272 CURVE",
"574 510 LINE",
"908 510 LINE",
"908 828 LINE",
"906 880 OFFCURVE",
"894 926 OFFCURVE",
"876 968 CURVE SMOOTH",
"844 1038 OFFCURVE",
"778 1110 OFFCURVE",
"648 1110 CURVE SMOOTH",
"578 1110 OFFCURVE",
"528 1090 OFFCURVE",
"490 1060 CURVE",
"446 1094 OFFCURVE",
"396 1110 OFFCURVE",
"342 1110 CURVE SMOOTH",
"264 1110 OFFCURVE",
"196 1078 OFFCURVE",
"148 1024 CURVE SMOOTH",
"100 970 OFFCURVE",
"70 898 OFFCURVE",
"70 818 CURVE SMOOTH",
"70 772 LINE",
"272 772 LINE",
"272 788 OFFCURVE",
"272 806 OFFCURVE",
"272 824 CURVE SMOOTH",
"272 842 OFFCURVE",
"274 860 OFFCURVE",
"276 876 CURVE",
"282 908 OFFCURVE",
"296 934 OFFCURVE",
"330 934 CURVE SMOOTH",
"356 934 OFFCURVE",
"372 920 OFFCURVE",
"380 900 CURVE",
"386 880 OFFCURVE",
"386 852 OFFCURVE",
"386 834 CURVE SMOOTH",
"386 714 LINE",
"378 692 OFFCURVE",
"340 674 OFFCURVE",
"290 648 CURVE SMOOTH",
"240 622 OFFCURVE",
"180 584 OFFCURVE",
"132 524 CURVE SMOOTH",
"84 464 OFFCURVE",
"48 376 OFFCURVE",
"48 254 CURVE SMOOTH",
"48 140 OFFCURVE",
"76 72 OFFCURVE",
"110 34 CURVE",
"142 -6 OFFCURVE",
"184 -16 OFFCURVE",
"210 -16 CURVE SMOOTH"
);
},
{
closed = 1;
nodes = (
"278 182 OFFCURVE",
"264 200 OFFCURVE",
"256 224 CURVE SMOOTH",
"248 246 OFFCURVE",
"246 270 OFFCURVE",
"246 284 CURVE SMOOTH",
"246 388 OFFCURVE",
"288 486 OFFCURVE",
"386 528 CURVE",
"386 248 LINE SMOOTH",
"386 210 OFFCURVE",
"348 182 OFFCURVE",
"302 182 CURVE SMOOTH"
);
},
{
closed = 1;
nodes = (
"574 822 LINE",
"576 844 OFFCURVE",
"578 862 OFFCURVE",
"584 878 CURVE",
"594 908 OFFCURVE",
"610 934 OFFCURVE",
"648 934 CURVE SMOOTH",
"666 934 OFFCURVE",
"682 928 OFFCURVE",
"692 918 CURVE",
"712 894 OFFCURVE",
"720 864 OFFCURVE",
"720 822 CURVE SMOOTH",
"720 668 LINE",
"574 668 LINE"
);
}
);
width = 966;
},
{
layerId = "E10EC336-1202-48FF-9A55-15876E80CDFD";
paths = (
{
closed = 1;
nodes = (
"294 -16 OFFCURVE",
"378 40 OFFCURVE",
"448 112 CURVE",
"470 46 OFFCURVE",
"520 -16 OFFCURVE",
"642 -16 CURVE SMOOTH",
"708 -16 OFFCURVE",
"760 -2 OFFCURVE",
"802 28 CURVE SMOOTH",
"888 86 OFFCURVE",
"934 160 OFFCURVE",
"964 266 CURVE",
"990 392 LINE",
"802 392 LINE",
"776 272 LINE SMOOTH",
"772 250 OFFCURVE",
"766 230 OFFCURVE",
"756 216 CURVE",
"742 186 OFFCURVE",
"720 162 OFFCURVE",
"682 162 CURVE SMOOTH",
"664 162 OFFCURVE",
"650 168 OFFCURVE",
"642 178 CURVE",
"628 202 OFFCURVE",
"624 234 OFFCURVE",
"630 272 CURVE",
"682 510 LINE",
"1016 510 LINE",
"1082 828 LINE SMOOTH",
"1092 882 OFFCURVE",
"1090 926 OFFCURVE",
"1080 968 CURVE SMOOTH",
"1072 1002 OFFCURVE",
"1056 1040 OFFCURVE",
"1024 1066 CURVE SMOOTH",
"992 1092 OFFCURVE",
"946 1110 OFFCURVE",
"882 1110 CURVE SMOOTH",
"812 1110 OFFCURVE",
"760 1090 OFFCURVE",
"714 1060 CURVE",
"680 1094 OFFCURVE",
"634 1110 OFFCURVE",
"576 1110 CURVE SMOOTH",
"498 1110 OFFCURVE",
"426 1078 OFFCURVE",
"364 1024 CURVE SMOOTH",
"306 970 OFFCURVE",
"260 898 OFFCURVE",
"242 818 CURVE",
"234 772 LINE",
"436 772 LINE",
"438 780 OFFCURVE",
"438 788 OFFCURVE",
"440 798 CURVE",
"442 806 OFFCURVE",
"444 814 OFFCURVE",
"446 824 CURVE",
"452 842 OFFCURVE",
"456 860 OFFCURVE",
"462 876 CURVE",
"476 908 OFFCURVE",
"494 934 OFFCURVE",
"528 934 CURVE SMOOTH",
"552 934 OFFCURVE",
"566 922 OFFCURVE",
"570 900 CURVE",
"572 878 OFFCURVE",
"568 852 OFFCURVE",
"562 834 CURVE",
"536 714 LINE",
"522 692 OFFCURVE",
"482 674 OFFCURVE",
"426 648 CURVE SMOOTH",
"372 622 OFFCURVE",
"304 586 OFFCURVE",
"242 524 CURVE SMOOTH",
"180 462 OFFCURVE",
"126 376 OFFCURVE",
"100 254 CURVE SMOOTH",
"76 140 OFFCURVE",
"90 72 OFFCURVE",
"116 34 CURVE",
"140 -6 OFFCURVE",
"180 -16 OFFCURVE",
"206 -16 CURVE SMOOTH"
);
},
{
closed = 1;
nodes = (
"316 182 OFFCURVE",
"308 200 OFFCURVE",
"302 224 CURVE",
"300 246 OFFCURVE",
"300 266 OFFCURVE",
"306 284 CURVE",
"328 388 OFFCURVE",
"388 486 OFFCURVE",
"498 528 CURVE",
"438 248 LINE SMOOTH",
"430 210 OFFCURVE",
"386 182 OFFCURVE",
"340 182 CURVE SMOOTH"
);
},
{
closed = 1;
nodes = (
"748 822 LINE SMOOTH",
"754 846 OFFCURVE",
"762 864 OFFCURVE",
"770 878 CURVE SMOOTH",
"786 908 OFFCURVE",
"808 934 OFFCURVE",
"846 934 CURVE SMOOTH",
"864 934 OFFCURVE",
"878 928 OFFCURVE",
"886 918 CURVE",
"902 894 OFFCURVE",
"902 864 OFFCURVE",
"894 822 CURVE SMOOTH",
"860 668 LINE",
"714 668 LINE"
);
}
);
width = 966;
},
{
layerId = "38BA14EB-08C8-4487-88C1-8F957131FCA1";
paths = (
{
closed = 1;
nodes = (
"152 -16 OFFCURVE",
"208 6 OFFCURVE",
"240 38 CURVE",
"259 2 OFFCURVE",
"295 -16 OFFCURVE",
"346 -16 CURVE SMOOTH",
"475 -16 OFFCURVE",
"562 77 OFFCURVE",
"600 254 CURVE SMOOTH",
"630 392 LINE",
"480 392 LINE",
"454 272 LINE SMOOTH",
"440 205 OFFCURVE",
"416 162 OFFCURVE",
"394 162 CURVE SMOOTH",
"384 162 OFFCURVE",
"378 178 OFFCURVE",
"378 206 CURVE SMOOTH",
"378 223 OFFCURVE",
"380 246 OFFCURVE",
"386 272 CURVE SMOOTH",
"438 510 LINE",
"656 510 LINE",
"724 836 LINE SMOOTH",
"733 881 OFFCURVE",
"738 920 OFFCURVE",
"738 953 CURVE SMOOTH",
"738 1059 OFFCURVE",
"691 1110 OFFCURVE",
"594 1110 CURVE SMOOTH",
"554 1110 OFFCURVE",
"518 1096 OFFCURVE",
"478 1066 CURVE",
"456 1095 OFFCURVE",
"424 1110 OFFCURVE",
"386 1110 CURVE SMOOTH",
"279 1110 OFFCURVE",
"178 997 OFFCURVE",
"144 838 CURVE SMOOTH",
"130 772 LINE",
"282 772 LINE",
"296 844 LINE SMOOTH",
"305 891 OFFCURVE",
"330 936 OFFCURVE",
"344 936 CURVE SMOOTH",
"352 936 OFFCURVE",
"356 921 OFFCURVE",
"356 899 CURVE SMOOTH",
"356 883 OFFCURVE",
"354 864 OFFCURVE",
"350 844 CURVE SMOOTH",
"326 726 LINE",
"315 706 OFFCURVE",
"280 673 OFFCURVE",
"244 648 CURVE SMOOTH",
"100 549 OFFCURVE",
"-4 328 OFFCURVE",
"-4 153 CURVE SMOOTH",
"-4 51 OFFCURVE",
"38 -16 OFFCURVE",
"102 -16 CURVE SMOOTH"
);
},
{
closed = 1;
nodes = (
"154 174 OFFCURVE",
"148 194 OFFCURVE",
"148 218 CURVE SMOOTH",
"148 275 OFFCURVE",
"226 452 OFFCURVE",
"276 502 CURVE",
"222 248 LINE SMOOTH",
"213 206 OFFCURVE",
"192 174 OFFCURVE",
"164 174 CURVE SMOOTH"
);
},
{
closed = 1;
nodes = (
"504 822 LINE SMOOTH",
"518 885 OFFCURVE",
"539 934 OFFCURVE",
"562 934 CURVE SMOOTH",
"575 934 OFFCURVE",
"581 920 OFFCURVE",
"581 893 CURVE SMOOTH",
"581 875 OFFCURVE",
"578 852 OFFCURVE",
"572 822 CURVE SMOOTH",
"538 668 LINE",
"470 668 LINE"
);
}
);
width = 666;
},
{
layerId = "6463F33F-C059-4755-9C76-9F35D70521A0";
paths = (
{
closed = 1;
nodes = (
"212 -16 OFFCURVE",
"264 4 OFFCURVE",
"290 38 CURVE",
"316 4 OFFCURVE",
"354 -16 OFFCURVE",
"408 -16 CURVE SMOOTH",
"562 -16 OFFCURVE",
"606 112 OFFCURVE",
"606 254 CURVE SMOOTH",
"606 392 LINE",
"456 392 LINE",
"456 272 LINE SMOOTH",
"456 234 OFFCURVE",
"450 162 OFFCURVE",
"418 162 CURVE SMOOTH",
"396 162 OFFCURVE",
"388 228 OFFCURVE",
"388 272 CURVE SMOOTH",
"388 510 LINE",
"606 510 LINE",
"606 836 LINE SMOOTH",
"606 962 OFFCURVE",
"586 1110 OFFCURVE",
"418 1110 CURVE SMOOTH",
"372 1110 OFFCURVE",
"338 1092 OFFCURVE",
"310 1066 CURVE",
"284 1092 OFFCURVE",
"252 1110 OFFCURVE",
"210 1110 CURVE SMOOTH",
"78 1110 OFFCURVE",
"24 960 OFFCURVE",
"24 838 CURVE SMOOTH",
"24 772 LINE",
"176 772 LINE",
"176 844 LINE SMOOTH",
"176 872 OFFCURVE",
"184 936 OFFCURVE",
"204 936 CURVE SMOOTH",
"222 936 OFFCURVE",
"230 878 OFFCURVE",
"230 844 CURVE SMOOTH",
"230 726 LINE",
"224 704 OFFCURVE",
"192 670 OFFCURVE",
"166 648 CURVE SMOOTH",
"54 552 OFFCURVE",
"14 406 OFFCURVE",
"14 254 CURVE SMOOTH",
"14 186 OFFCURVE",
"32 -16 OFFCURVE",
"164 -16 CURVE SMOOTH"
);
},
{
closed = 1;
nodes = (
"158 174 OFFCURVE",
"158 250 OFFCURVE",
"158 256 CURVE SMOOTH",
"158 344 OFFCURVE",
"192 456 OFFCURVE",
"228 502 CURVE",
"228 248 LINE SMOOTH",
"228 210 OFFCURVE",
"212 174 OFFCURVE",
"186 174 CURVE SMOOTH"
);
},
{
closed = 1;
nodes = (
"388 822 LINE SMOOTH",
"388 854 OFFCURVE",
"390 934 OFFCURVE",
"416 934 CURVE SMOOTH",
"450 934 OFFCURVE",
"456 876 OFFCURVE",
"456 822 CURVE SMOOTH",
"456 668 LINE",
"388 668 LINE"
);
}
);
width = 666;
}
);
unicode = 00E6;
},
{
color = 3;
glyphname = b;
lastChange = "2019-11-22 22:53:53 +0000";
layers = (
{
anchors = (
{
name = bottom;
position = "{335, 0}";
},
{
name = top;
position = "{461, 1470}";
}
);
background = {
paths = (
{
closed = 1;
nodes = (
"80 1470 LINE",
"282 1470 LINE",
"282 1022 LINE",
"316 1054 OFFCURVE",
"346 1078 OFFCURVE",
"386 1096 CURVE",
"404 1106 OFFCURVE",
"424 1110 OFFCURVE",
"442 1110 CURVE SMOOTH",
"498 1110 OFFCURVE",
"536 1078 OFFCURVE",
"562 1038 CURVE",
"586 996 OFFCURVE",
"598 942 OFFCURVE",
"598 896 CURVE SMOOTH",
"598 198 LINE SMOOTH",
"598 152 OFFCURVE",
"586 98 OFFCURVE",
"562 58 CURVE SMOOTH",
"536 16 OFFCURVE",
"498 -16 OFFCURVE",
"442 -16 CURVE SMOOTH",
"404 -16 OFFCURVE",
"364 6 OFFCURVE",
"334 28 CURVE SMOOTH",
"316 42 OFFCURVE",
"300 56 OFFCURVE",
"282 72 CURVE",
"282 0 LINE",
"80 0 LINE"
);
},
{
closed = 1;
nodes = (
"282 240 LINE SMOOTH",
"282 202 OFFCURVE",
"312 174 OFFCURVE",
"342 174 CURVE SMOOTH",
"372 174 OFFCURVE",
"396 202 OFFCURVE",
"396 240 CURVE SMOOTH",
"396 854 LINE SMOOTH",
"396 892 OFFCURVE",
"372 920 OFFCURVE",
"342 920 CURVE SMOOTH",
"312 920 OFFCURVE",
"282 886 OFFCURVE",
"282 854 CURVE SMOOTH"
);
}
);
};
layerId = "1AB499B8-18A8-432D-A211-B6882CCB886D";
paths = (
{
closed = 1;
nodes = (
"531 -16 OFFCURVE",
"598 75 OFFCURVE",
"598 198 CURVE SMOOTH",
"598 896 LINE SMOOTH",
"598 1015 OFFCURVE",
"529 1110 OFFCURVE",
"442 1110 CURVE SMOOTH",
"382 1110 OFFCURVE",
"319 1066 OFFCURVE",
"212 950 CURVE",
"282 931 LINE",
"282 1470 LINE",
"80 1470 LINE",
"80 0 LINE",
"282 0 LINE",
"282 163 LINE",
"199 149 LINE",
"333 20 OFFCURVE",
"386 -16 OFFCURVE",
"442 -16 CURVE SMOOTH"
);
},
{
closed = 1;
nodes = (
"310 174 OFFCURVE",
"282 205 OFFCURVE",
"282 240 CURVE SMOOTH",
"282 854 LINE SMOOTH",
"282 888 OFFCURVE",
"311 920 OFFCURVE",
"342 920 CURVE SMOOTH",
"372 920 OFFCURVE",
"396 890 OFFCURVE",
"396 854 CURVE SMOOTH",
"396 240 LINE SMOOTH",
"396 203 OFFCURVE",
"373 174 OFFCURVE",
"342 174 CURVE SMOOTH"
);
}
);
width = 670;
},
{
anchors = (
{
name = bottom;
position = "{335, 0}";
},
{
name = top;
position = "{335, 1470}";
}
);
background = {
paths = (
{
closed = 1;
nodes = (
"494 -16 OFFCURVE",
"536 16 OFFCURVE",
"574 58 CURVE",
"606 98 OFFCURVE",
"630 152 OFFCURVE",
"640 198 CURVE SMOOTH",
"788 896 LINE SMOOTH",
"798 942 OFFCURVE",
"796 996 OFFCURVE",
"782 1038 CURVE",
"764 1078 OFFCURVE",
"732 1110 OFFCURVE",
"676 1110 CURVE SMOOTH",
"656 1110 OFFCURVE",
"636 1106 OFFCURVE",
"618 1096 CURVE",
"572 1078 OFFCURVE",
"540 1054 OFFCURVE",
"498 1022 CURVE",
"594 1470 LINE",
"392 1470 LINE",
"80 0 LINE",
"282 0 LINE",
"296 72 LINE",
"310 56 OFFCURVE",
"324 42 OFFCURVE",
"338 28 CURVE",
"364 6 OFFCURVE",
"400 -16 OFFCURVE",
"438 -16 CURVE SMOOTH"
);
},
{
closed = 1;
nodes = (
"348 174 OFFCURVE",
"324 202 OFFCURVE",
"332 240 CURVE SMOOTH",
"462 854 LINE",
"470 886 OFFCURVE",
"506 920 OFFCURVE",
"536 920 CURVE SMOOTH",
"566 920 OFFCURVE",
"584 892 OFFCURVE",
"576 854 CURVE SMOOTH",
"446 240 LINE SMOOTH",
"438 202 OFFCURVE",
"408 174 OFFCURVE",
"378 174 CURVE SMOOTH"
);
}
);
};
layerId = "E10EC336-1202-48FF-9A55-15876E80CDFD";
paths = (
{
closed = 1;
nodes = (
"525 -16 OFFCURVE",
"614 78 OFFCURVE",
"640 198 CURVE SMOOTH",
"788 896 LINE SMOOTH",
"814 1016 OFFCURVE",
"765 1110 OFFCURVE",
"676 1110 CURVE SMOOTH",
"619 1110 OFFCURVE",
"554 1071 OFFCURVE",
"414 953 CURVE",
"479 933 LINE",
"594 1470 LINE",
"392 1470 LINE",
"80 0 LINE",
"282 0 LINE",
"313 161 LINE",
"234 151 LINE",
"323 29 OFFCURVE",
"378 -16 OFFCURVE",
"438 -16 CURVE SMOOTH"
);
},
{
closed = 1;
nodes = (
"346 174 OFFCURVE",
"325 204 OFFCURVE",
"332 240 CURVE SMOOTH",
"462 854 LINE",
"470 888 OFFCURVE",
"506 920 OFFCURVE",
"536 920 CURVE SMOOTH",
"566 920 OFFCURVE",
"584 890 OFFCURVE",
"576 854 CURVE SMOOTH",
"446 240 LINE SMOOTH",
"438 202 OFFCURVE",
"409 174 OFFCURVE",
"378 174 CURVE SMOOTH"
);
}
);
width = 670;
},
{
anchors = (
{
name = bottom;
position = "{231, 0}";
},
{
name = top;
position = "{231, 1470}";
}
);
layerId = "38BA14EB-08C8-4487-88C1-8F957131FCA1";
paths = (
{
closed = 1;
nodes = (
"280 -16 OFFCURVE",
"321 47 OFFCURVE",
"356 198 CURVE SMOOTH",
"504 896 LINE SMOOTH",
"531 1015 OFFCURVE",
"497 1110 OFFCURVE",
"428 1110 CURVE SMOOTH",
"377 1110 OFFCURVE",
"319 1057 OFFCURVE",
"328 1019 CURVE",
"321 994 LINE",
"422 1470 LINE",
"264 1470 LINE",
"-46 0 LINE",
"110 0 LINE",
"133 114 LINE",
"123 95 LINE",
"108 45 OFFCURVE",
"161 -16 OFFCURVE",
"220 -16 CURVE SMOOTH"
);
},
{
closed = 1;
nodes = (
"156 174 OFFCURVE",
"151 204 OFFCURVE",
"162 250 CURVE SMOOTH",
"294 862 LINE SMOOTH",
"302 903 OFFCURVE",
"320 934 OFFCURVE",
"336 934 CURVE SMOOTH",
"353 934 OFFCURVE",
"359 903 OFFCURVE",
"350 862 CURVE SMOOTH",
"218 250 LINE SMOOTH",
"209 203 OFFCURVE",
"192 174 OFFCURVE",
"174 174 CURVE SMOOTH"
);
}
);
width = 462;
},
{
anchors = (
{
name = bottom;
position = "{231, 0}";
},
{
name = top;
position = "{231, 1470}";
}
);
layerId = "6463F33F-C059-4755-9C76-9F35D70521A0";
paths = (
{
closed = 1;
nodes = (
"355 -16 OFFCURVE",
"388 54 OFFCURVE",
"392 198 CURVE SMOOTH",
"392 896 LINE SMOOTH",
"392 1014 OFFCURVE",
"337 1110 OFFCURVE",
"270 1110 CURVE SMOOTH",
"224 1110 OFFCURVE",
"172 1065 OFFCURVE",
"163 1016 CURVE",
"188 993 LINE",
"188 1470 LINE",
"30 1470 LINE",
"30 0 LINE",
"188 0 LINE",
"178 115 LINE",
"163 100 LINE",
"178 38 OFFCURVE",
"238 -16 OFFCURVE",
"292 -16 CURVE SMOOTH"
);
},
{
closed = 1;
nodes = (
"199 174 OFFCURVE",
"188 203 OFFCURVE",
"188 250 CURVE SMOOTH",
"188 862 LINE SMOOTH",
"188 904 OFFCURVE",
"200 934 OFFCURVE",
"216 934 CURVE SMOOTH",
"232 934 OFFCURVE",
"244 904 OFFCURVE",
"244 862 CURVE SMOOTH",
"244 250 LINE SMOOTH",
"244 202 OFFCURVE",
"234 174 OFFCURVE",
"216 174 CURVE SMOOTH"
);
}
);
width = 462;
}
);
rightKerningGroup = b;
unicode = 0062;
},
{
color = 3;
glyphname = c;
lastChange = "2019-11-22 22:53:53 +0000";
layers = (
{
anchors = (
{
name = bottom;
position = "{315, 0}";
},
{
name = top;
position = "{315, 1094}";
}
);
background = {
paths = (
{
closed = 1;
nodes = (
"266 252 LINE SMOOTH",
"266 212 OFFCURVE",
"268 164 OFFCURVE",
"322 164 CURVE SMOOTH",
"368 164 OFFCURVE",
"380 186 OFFCURVE",
"380 252 CURVE SMOOTH",
"380 404 LINE",
"582 404 LINE",
"582 298 LINE SMOOTH",
"582 176 OFFCURVE",
"560 98 OFFCURVE",
"516 50 CURVE SMOOTH",
"472 2 OFFCURVE",
"408 -16 OFFCURVE",
"322 -16 CURVE SMOOTH",
"250 -16 OFFCURVE",
"184 4 OFFCURVE",
"138 54 CURVE SMOOTH",
"92 104 OFFCURVE",
"64 186 OFFCURVE",
"64 308 CURVE SMOOTH",
"64 786 LINE SMOOTH",
"64 908 OFFCURVE",
"92 990 OFFCURVE",
"138 1040 CURVE SMOOTH",
"184 1090 OFFCURVE",
"250 1110 OFFCURVE",
"322 1110 CURVE SMOOTH",
"408 1110 OFFCURVE",
"472 1092 OFFCURVE",
"516 1044 CURVE SMOOTH",
"560 996 OFFCURVE",
"582 918 OFFCURVE",
"582 796 CURVE SMOOTH",
"582 710 LINE",
"380 710 LINE",
"380 842 LINE SMOOTH",
"380 908 OFFCURVE",
"368 930 OFFCURVE",
"322 930 CURVE SMOOTH",
"268 930 OFFCURVE",
"266 882 OFFCURVE",
"266 842 CURVE SMOOTH"
);
}
);
};
layerId = "1AB499B8-18A8-432D-A211-B6882CCB886D";
paths = (
{
closed = 1;
nodes = (
"501 -16 OFFCURVE",
"582 82 OFFCURVE",
"582 298 CURVE SMOOTH",
"582 404 LINE",
"380 404 LINE",
"380 252 LINE SMOOTH",
"380 187 OFFCURVE",
"365 164 OFFCURVE",
"322 164 CURVE SMOOTH",
"281 164 OFFCURVE",
"266 187 OFFCURVE",
"266 252 CURVE SMOOTH",
"266 842 LINE SMOOTH",
"266 907 OFFCURVE",
"281 930 OFFCURVE",
"322 930 CURVE SMOOTH",
"365 930 OFFCURVE",
"380 907 OFFCURVE",
"380 842 CURVE SMOOTH",
"380 710 LINE",
"582 710 LINE",
"582 796 LINE SMOOTH",
"582 1012 OFFCURVE",
"501 1110 OFFCURVE",
"322 1110 CURVE SMOOTH",
"143 1110 OFFCURVE",
"64 1011 OFFCURVE",
"64 786 CURVE SMOOTH",
"64 308 LINE SMOOTH",
"64 83 OFFCURVE",
"143 -16 OFFCURVE",
"322 -16 CURVE SMOOTH"
);
}
);
width = 630;
},
{
anchors = (
{
name = bottom;
position = "{315, 0}";
},
{
name = top;
position = "{315, 1094}";
}
);
background = {
paths = (
{
closed = 1;
nodes = (
"318 252 LINE SMOOTH",
"310 212 OFFCURVE",
"302 164 OFFCURVE",
"356 164 CURVE SMOOTH",
"402 164 OFFCURVE",
"418 186 OFFCURVE",
"432 252 CURVE SMOOTH",
"464 404 LINE",
"666 404 LINE",
"644 298 LINE SMOOTH",
"618 176 OFFCURVE",
"580 98 OFFCURVE",
"526 50 CURVE SMOOTH",
"472 2 OFFCURVE",
"404 -16 OFFCURVE",
"318 -16 CURVE SMOOTH",
"246 -16 OFFCURVE",
"186 4 OFFCURVE",
"148 54 CURVE",
"114 104 OFFCURVE",
"102 186 OFFCURVE",
"128 308 CURVE SMOOTH",
"230 786 LINE SMOOTH",
"256 908 OFFCURVE",
"302 990 OFFCURVE",
"358 1040 CURVE SMOOTH",
"414 1090 OFFCURVE",
"484 1110 OFFCURVE",
"556 1110 CURVE SMOOTH",
"642 1110 OFFCURVE",
"704 1092 OFFCURVE",
"736 1044 CURVE SMOOTH",
"770 996 OFFCURVE",
"776 918 OFFCURVE",
"750 796 CURVE SMOOTH",
"732 710 LINE",
"530 710 LINE",
"558 842 LINE SMOOTH",
"572 908 OFFCURVE",
"564 930 OFFCURVE",
"518 930 CURVE SMOOTH",
"464 930 OFFCURVE",
"452 882 OFFCURVE",
"444 842 CURVE SMOOTH"
);
}
);
};
layerId = "E10EC336-1202-48FF-9A55-15876E80CDFD";
paths = (
{
closed = 1;
nodes = (
"496 -16 OFFCURVE",
"598 83 OFFCURVE",
"644 298 CURVE SMOOTH",
"666 404 LINE",
"464 404 LINE",
"432 252 LINE SMOOTH",
"419 188 OFFCURVE",
"398 164 OFFCURVE",
"356 164 CURVE SMOOTH",
"313 164 OFFCURVE",
"304 185 OFFCURVE",
"318 252 CURVE SMOOTH",
"444 842 LINE SMOOTH",
"457 908 OFFCURVE",
"475 930 OFFCURVE",
"518 930 CURVE SMOOTH",
"560 930 OFFCURVE",
"571 906 OFFCURVE",
"558 842 CURVE SMOOTH",
"530 710 LINE",
"732 710 LINE",
"750 796 LINE SMOOTH",
"796 1010 OFFCURVE",
"734 1110 OFFCURVE",
"556 1110 CURVE SMOOTH",
"377 1110 OFFCURVE",
"278 1012 OFFCURVE",
"230 786 CURVE SMOOTH",
"128 308 LINE SMOOTH",
"80 82 OFFCURVE",
"137 -16 OFFCURVE",
"318 -16 CURVE SMOOTH"
);
}
);
width = 630;
},
{
anchors = (
{
name = bottom;
position = "{219, 0}";
},
{
name = top;
position = "{219, 1094}";
}
);
layerId = "38BA14EB-08C8-4487-88C1-8F957131FCA1";
paths = (
{
closed = 1;
nodes = (
"265 -16 OFFCURVE",
"348 82 OFFCURVE",
"392 278 CURVE SMOOTH",
"418 404 LINE",
"266 404 LINE",
"234 252 LINE SMOOTH",
"222 197 OFFCURVE",
"204 166 OFFCURVE",
"184 166 CURVE SMOOTH",
"165 166 OFFCURVE",
"161 197 OFFCURVE",
"172 252 CURVE SMOOTH",
"300 854 LINE SMOOTH",
"309 900 OFFCURVE",
"331 934 OFFCURVE",
"350 934 CURVE SMOOTH",
"368 934 OFFCURVE",
"373 905 OFFCURVE",
"362 854 CURVE SMOOTH",
"332 710 LINE",
"484 710 LINE",
"506 816 LINE SMOOTH",
"548 1013 OFFCURVE",
"506 1110 OFFCURVE",
"382 1110 CURVE SMOOTH",
"259 1110 OFFCURVE",
"182 1017 OFFCURVE",
"132 806 CURVE SMOOTH",
"22 288 LINE SMOOTH",
"-19 78 OFFCURVE",
"17 -16 OFFCURVE",
"140 -16 CURVE SMOOTH"
);
}
);
width = 438;
},
{
anchors = (
{
name = bottom;
position = "{219, 0}";
},
{
name = top;
position = "{219, 1094}";
}
);
layerId = "6463F33F-C059-4755-9C76-9F35D70521A0";
paths = (
{
closed = 1;
nodes = (
"326 -16 OFFCURVE",
"389 81 OFFCURVE",
"392 278 CURVE SMOOTH",
"392 404 LINE",
"240 404 LINE",
"240 252 LINE SMOOTH",
"240 198 OFFCURVE",
"228 166 OFFCURVE",
"208 166 CURVE SMOOTH",
"189 166 OFFCURVE",
"178 197 OFFCURVE",
"178 252 CURVE SMOOTH",
"178 854 LINE SMOOTH",
"178 902 OFFCURVE",
"191 934 OFFCURVE",
"210 934 CURVE SMOOTH",
"229 934 OFFCURVE",
"240 905 OFFCURVE",
"240 854 CURVE SMOOTH",
"240 710 LINE",
"392 710 LINE",
"392 816 LINE SMOOTH",
"392 1013 OFFCURVE",
"330 1110 OFFCURVE",
"206 1110 CURVE SMOOTH",
"82 1110 OFFCURVE",
"23 1014 OFFCURVE",
"20 806 CURVE SMOOTH",
"20 288 LINE SMOOTH",
"20 80 OFFCURVE",
"78 -16 OFFCURVE",
"202 -16 CURVE SMOOTH"
);
}
);
width = 438;
}
);
leftKerningGroup = c;
rightKerningGroup = c;
unicode = 0063;
},
{
color = 3;
glyphname = d;
lastChange = "2019-11-22 22:53:53 +0000";
layers = (
{
anchors = (
{
name = bottom;
position = "{335, 0}";
},
{
name = center;
position = "{335, 547}";
},
{
name = top;
position = "{335, 1470}";
},
{
name = topright;
position = "{650, 1094}";
}
);
background = {
paths = (
{
closed = 1;
nodes = (
"590 0 LINE",
"388 0 LINE",
"388 72 LINE",
"354 40 OFFCURVE",
"324 16 OFFCURVE",
"286 -2 CURVE SMOOTH",
"266 -12 OFFCURVE",
"246 -16 OFFCURVE",
"228 -16 CURVE SMOOTH",
"172 -16 OFFCURVE",
"134 16 OFFCURVE",
"110 58 CURVE",
"84 98 OFFCURVE",
"72 152 OFFCURVE",
"72 198 CURVE SMOOTH",
"72 896 LINE SMOOTH",
"72 942 OFFCURVE",
"84 996 OFFCURVE",
"110 1038 CURVE SMOOTH",
"134 1078 OFFCURVE",
"172 1110 OFFCURVE",
"228 1110 CURVE SMOOTH",
"266 1110 OFFCURVE",
"306 1088 OFFCURVE",
"336 1066 CURVE SMOOTH",
"354 1052 OFFCURVE",
"370 1038 OFFCURVE",
"388 1022 CURVE",
"388 1470 LINE",
"590 1470 LINE"
);
},
{
closed = 1;
nodes = (
"388 854 LINE SMOOTH",
"388 886 OFFCURVE",
"358 920 OFFCURVE",
"328 920 CURVE SMOOTH",
"298 920 OFFCURVE",
"274 892 OFFCURVE",
"274 854 CURVE SMOOTH",
"274 240 LINE SMOOTH",
"274 202 OFFCURVE",
"298 174 OFFCURVE",
"328 174 CURVE SMOOTH",
"358 174 OFFCURVE",
"388 202 OFFCURVE",
"388 240 CURVE SMOOTH"
);
}
);
};
layerId = "1AB499B8-18A8-432D-A211-B6882CCB886D";
paths = (
{
closed = 1;
nodes = (
"289 -16 OFFCURVE",
"359 33 OFFCURVE",
"453 141 CURVE",
"388 163 LINE",
"388 0 LINE",
"590 0 LINE",
"590 1470 LINE",
"388 1470 LINE",
"388 931 LINE",
"471 945 LINE",
"341 1070 OFFCURVE",
"286 1110 OFFCURVE",
"228 1110 CURVE SMOOTH",
"140 1110 OFFCURVE",
"72 1017 OFFCURVE",
"72 896 CURVE SMOOTH",
"72 198 LINE SMOOTH",
"72 79 OFFCURVE",
"141 -16 OFFCURVE",
"228 -16 CURVE SMOOTH"
);
},
{
closed = 1;
nodes = (
"297 174 OFFCURVE",
"274 203 OFFCURVE",
"274 240 CURVE SMOOTH",
"274 854 LINE SMOOTH",
"274 891 OFFCURVE",
"298 920 OFFCURVE",
"328 920 CURVE SMOOTH",
"359 920 OFFCURVE",
"388 888 OFFCURVE",
"388 854 CURVE SMOOTH",
"388 240 LINE SMOOTH",
"388 205 OFFCURVE",
"360 174 OFFCURVE",
"328 174 CURVE SMOOTH"
);
}
);
width = 670;
},
{
anchors = (
{
name = bottom;
position = "{335, 0}";
},
{
name = center;
position = "{335, 547}";
},
{
name = top;
position = "{335, 1470}";
},
{
name = topright;
position = "{650, 1094}";
}
);
background = {
paths = (
{
closed = 1;
nodes = (
"590 0 LINE",
"388 0 LINE",
"402 72 LINE",
"362 40 OFFCURVE",
"326 16 OFFCURVE",
"284 -2 CURVE",
"264 -12 OFFCURVE",
"244 -16 OFFCURVE",
"224 -16 CURVE SMOOTH",
"168 -16 OFFCURVE",
"136 16 OFFCURVE",
"122 58 CURVE",
"104 98 OFFCURVE",
"104 152 OFFCURVE",
"114 198 CURVE SMOOTH",
"262 896 LINE SMOOTH",
"272 942 OFFCURVE",
"292 996 OFFCURVE",
"330 1038 CURVE",
"362 1078 OFFCURVE",
"406 1110 OFFCURVE",
"462 1110 CURVE SMOOTH",
"500 1110 OFFCURVE",
"536 1088 OFFCURVE",
"562 1066 CURVE",
"576 1052 OFFCURVE",
"590 1038 OFFCURVE",
"604 1022 CURVE",
"700 1470 LINE",
"902 1470 LINE"
);
},
{
closed = 1;
nodes = (
"568 854 LINE",
"576 886 OFFCURVE",
"552 920 OFFCURVE",
"522 920 CURVE SMOOTH",
"492 920 OFFCURVE",
"462 892 OFFCURVE",
"454 854 CURVE SMOOTH",
"324 240 LINE SMOOTH",
"316 202 OFFCURVE",
"334 174 OFFCURVE",
"364 174 CURVE SMOOTH",
"394 174 OFFCURVE",
"430 202 OFFCURVE",
"438 240 CURVE SMOOTH"
);
}
);
};
layerId = "E10EC336-1202-48FF-9A55-15876E80CDFD";
paths = (
{
closed = 1;
nodes = (
"284 -16 OFFCURVE",
"359 30 OFFCURVE",
"478 136 CURVE",
"419 161 LINE",
"388 0 LINE",
"590 0 LINE",
"902 1470 LINE",
"700 1470 LINE",
"585 933 LINE",
"666 943 LINE",
"579 1063 OFFCURVE",
"524 1110 OFFCURVE",
"462 1110 CURVE SMOOTH",
"375 1110 OFFCURVE",
"289 1018 OFFCURVE",
"262 896 CURVE SMOOTH",
"114 198 LINE SMOOTH",
"89 80 OFFCURVE",
"138 -16 OFFCURVE",
"224 -16 CURVE SMOOTH"
);
},
{
closed = 1;
nodes = (
"333 174 OFFCURVE",
"316 203 OFFCURVE",
"324 240 CURVE SMOOTH",
"454 854 LINE SMOOTH",
"462 891 OFFCURVE",
"492 920 OFFCURVE",
"522 920 CURVE SMOOTH",
"553 920 OFFCURVE",
"576 887 OFFCURVE",
"568 854 CURVE",
"438 240 LINE SMOOTH",
"431 205 OFFCURVE",
"396 174 OFFCURVE",
"364 174 CURVE SMOOTH"
);
}
);
width = 670;
},
{
anchors = (
{
name = bottom;
position = "{231, 0}";
},
{
name = center;
position = "{231, 547}";
},
{
name = top;
position = "{231, 1470}";
},
{
name = topright;
position = "{442, 1094}";
}
);
layerId = "38BA14EB-08C8-4487-88C1-8F957131FCA1";
paths = (
{
closed = 1;
nodes = (
"110 -16 OFFCURVE",
"187 46 OFFCURVE",
"190 88 CURVE",
"191 114 LINE",
"168 0 LINE",
"326 0 LINE",
"638 1470 LINE",
"480 1470 LINE",
"379 994 LINE",
"397 983 LINE",
"410 1050 OFFCURVE",
"375 1110 OFFCURVE",
"322 1110 CURVE SMOOTH",
"254 1110 OFFCURVE",
"179 1014 OFFCURVE",
"154 896 CURVE SMOOTH",
"11 213 LINE SMOOTH",
"-18 74 OFFCURVE",
"1 -16 OFFCURVE",
"61 -16 CURVE SMOOTH"
);
},
{
closed = 1;
nodes = (
"158 174 OFFCURVE",
"154 203 OFFCURVE",
"164 250 CURVE SMOOTH",
"296 862 LINE SMOOTH",
"305 905 OFFCURVE",
"322 934 OFFCURVE",
"338 934 CURVE SMOOTH",
"354 934 OFFCURVE",
"360 904 OFFCURVE",
"352 862 CURVE SMOOTH",
"220 250 LINE SMOOTH",
"210 203 OFFCURVE",
"193 174 OFFCURVE",
"176 174 CURVE SMOOTH"
);
}
);
width = 462;
},
{
anchors = (
{
name = bottom;
position = "{231, 0}";
},
{
name = center;
position = "{231, 547}";
},
{
name = top;
position = "{231, 1470}";
},
{
name = topright;
position = "{442, 1094}";
}
);
layerId = "6463F33F-C059-4755-9C76-9F35D70521A0";
paths = (
{
closed = 1;
nodes = (
"189 -16 OFFCURVE",
"258 43 OFFCURVE",
"281 111 CURVE",
"246 115 LINE",
"246 0 LINE",
"404 0 LINE",
"404 1470 LINE",
"246 1470 LINE",
"246 993 LINE",
"281 996 LINE",
"266 1059 OFFCURVE",
"214 1110 OFFCURVE",
"164 1110 CURVE SMOOTH",
"97 1110 OFFCURVE",
"42 1014 OFFCURVE",
"42 896 CURVE SMOOTH",
"42 198 LINE SMOOTH",
"46 49 OFFCURVE",
"73 -16 OFFCURVE",
"132 -16 CURVE SMOOTH"
);
},
{
closed = 1;
nodes = (
"201 174 OFFCURVE",
"190 203 OFFCURVE",
"190 250 CURVE SMOOTH",
"190 862 LINE SMOOTH",
"190 904 OFFCURVE",
"202 934 OFFCURVE",
"218 934 CURVE SMOOTH",
"234 934 OFFCURVE",
"246 904 OFFCURVE",
"246 862 CURVE SMOOTH",
"246 250 LINE SMOOTH",
"246 202 OFFCURVE",
"236 174 OFFCURVE",
"218 174 CURVE SMOOTH"
);
}
);
width = 462;
}
);
leftKerningGroup = d;
unicode = 0064;
},
{
color = 0;
glyphname = eth;
lastChange = "2019-11-22 22:53:53 +0000";
layers = (
{
layerId = "1AB499B8-18A8-432D-A211-B6882CCB886D";
paths = (
{
closed = 1;
nodes = (
"398 -16 OFFCURVE",
"448 -2 OFFCURVE",
"484 28 CURVE SMOOTH",
"554 86 OFFCURVE",
"586 160 OFFCURVE",
"592 266 CURVE",
"592 906 LINE SMOOTH",
"592 1106 OFFCURVE",
"532 1246 OFFCURVE",
"470 1342 CURVE",
"568 1428 LINE",
"514 1492 LINE",
"422 1412 LINE",
"416 1420 OFFCURVE",
"410 1428 OFFCURVE",
"404 1436 CURVE",
"398 1442 OFFCURVE",
"392 1448 OFFCURVE",
"386 1454 CURVE SMOOTH",
"380 1460 OFFCURVE",
"376 1466 OFFCURVE",
"370 1472 CURVE",
"264 1374 LINE",
"266 1368 OFFCURVE",
"270 1364 OFFCURVE",
"276 1358 CURVE",
"284 1348 OFFCURVE",
"294 1332 OFFCURVE",
"308 1310 CURVE",
"210 1224 LINE",
"264 1162 LINE",
"344 1232 LINE",
"366 1182 OFFCURVE",
"384 1116 OFFCURVE",
"394 1034 CURVE",
"340 1080 OFFCURVE",
"288 1110 OFFCURVE",
"242 1110 CURVE SMOOTH",
"154 1110 OFFCURVE",
"114 1052 OFFCURVE",
"94 990 CURVE SMOOTH",
"74 926 OFFCURVE",
"74 856 OFFCURVE",
"74 838 CURVE SMOOTH",
"74 272 LINE",
"76 218 OFFCURVE",
"88 170 OFFCURVE",
"106 128 CURVE SMOOTH",
"138 56 OFFCURVE",
"202 -16 OFFCURVE",
"332 -16 CURVE SMOOTH"
);
},
{
closed = 1;
nodes = (
"314 162 OFFCURVE",
"300 168 OFFCURVE",
"290 178 CURVE",
"272 200 OFFCURVE",
"262 230 OFFCURVE",
"264 272 CURVE",
"264 822 LINE",
"262 844 OFFCURVE",
"264 862 OFFCURVE",
"270 878 CURVE",
"278 908 OFFCURVE",
"294 934 OFFCURVE",
"332 934 CURVE SMOOTH",
"350 934 OFFCURVE",
"366 928 OFFCURVE",
"376 918 CURVE",
"396 894 OFFCURVE",
"404 864 OFFCURVE",
"402 822 CURVE",
"402 272 LINE",
"404 250 OFFCURVE",
"402 232 OFFCURVE",
"396 216 CURVE",
"388 186 OFFCURVE",
"370 162 OFFCURVE",
"332 162 CURVE SMOOTH"
);
}
);
width = 658;
},
{
layerId = "E10EC336-1202-48FF-9A55-15876E80CDFD";
paths = (
{
closed = 1;
nodes = (
"394 -16 OFFCURVE",
"446 -2 OFFCURVE",
"488 28 CURVE SMOOTH",
"574 86 OFFCURVE",
"618 160 OFFCURVE",
"648 266 CURVE",
"784 906 LINE SMOOTH",
"826 1106 OFFCURVE",
"796 1246 OFFCURVE",
"754 1342 CURVE",
"870 1428 LINE",
"830 1492 LINE",
"722 1412 LINE",
"718 1418 OFFCURVE",
"714 1426 OFFCURVE",
"708 1436 CURVE",
"706 1438 OFFCURVE",
"704 1442 OFFCURVE",
"702 1446 CURVE",
"700 1448 OFFCURVE",
"696 1452 OFFCURVE",
"694 1454 CURVE",
"682 1472 LINE",
"556 1374 LINE",
"556 1368 OFFCURVE",
"558 1364 OFFCURVE",
"564 1358 CURVE",
"566 1352 OFFCURVE",
"570 1346 OFFCURVE",
"574 1338 CURVE",
"576 1330 OFFCURVE",
"580 1320 OFFCURVE",
"586 1310 CURVE",
"470 1224 LINE",
"510 1162 LINE",
"604 1232 LINE",
"618 1178 OFFCURVE",
"620 1112 OFFCURVE",
"612 1034 CURVE",
"566 1080 OFFCURVE",
"522 1110 OFFCURVE",
"476 1110 CURVE SMOOTH",
"388 1110 OFFCURVE",
"336 1052 OFFCURVE",
"304 990 CURVE SMOOTH",
"270 926 OFFCURVE",
"254 856 OFFCURVE",
"252 838 CURVE",
"130 272 LINE",
"122 222 OFFCURVE",
"122 174 OFFCURVE",
"132 128 CURVE SMOOTH",
"140 90 OFFCURVE",
"156 58 OFFCURVE",
"188 30 CURVE SMOOTH",
"218 2 OFFCURVE",
"264 -16 OFFCURVE",
"328 -16 CURVE SMOOTH"
);
},
{
closed = 1;
nodes = (
"348 162 OFFCURVE",
"334 168 OFFCURVE",
"326 178 CURVE",
"312 202 OFFCURVE",
"310 234 OFFCURVE",
"320 272 CURVE",
"438 822 LINE",
"440 844 OFFCURVE",
"446 862 OFFCURVE",
"456 878 CURVE",
"470 908 OFFCURVE",
"492 934 OFFCURVE",
"530 934 CURVE SMOOTH",
"548 934 OFFCURVE",
"562 928 OFFCURVE",
"570 918 CURVE",
"584 896 OFFCURVE",
"586 864 OFFCURVE",
"576 822 CURVE SMOOTH",
"458 272 LINE",
"456 250 OFFCURVE",
"450 232 OFFCURVE",
"440 216 CURVE",
"426 186 OFFCURVE",
"404 162 OFFCURVE",
"366 162 CURVE SMOOTH"
);
}
);
width = 658;
},
{
layerId = "38BA14EB-08C8-4487-88C1-8F957131FCA1";
paths = (
{
closed = 1;
nodes = (
"254 -16 OFFCURVE",
"336 152 OFFCURVE",
"360 266 CURVE SMOOTH",
"496 906 LINE SMOOTH",
"538 1100 OFFCURVE",
"520 1246 OFFCURVE",
"504 1342 CURVE",
"578 1428 LINE",
"554 1516 LINE",
"482 1436 LINE",
"482 1436 OFFCURVE",
"468 1486 OFFCURVE",
"464 1502 CURVE",
"354 1374 LINE",
"352 1372 OFFCURVE",
"368 1342 OFFCURVE",
"372 1314 CURVE",
"290 1224 LINE",
"316 1138 LINE",
"370 1200 LINE",
"370 1168 OFFCURVE",
"368 1118 OFFCURVE",
"364 1076 CURVE",
"346 1096 OFFCURVE",
"324 1110 OFFCURVE",
"302 1110 CURVE SMOOTH",
"184 1110 OFFCURVE",
"136 936 OFFCURVE",
"114 838 CURVE SMOOTH",
"-4 272 LINE SMOOTH",
"-30 150 OFFCURVE",
"-28 -16 OFFCURVE",
"116 -16 CURVE SMOOTH"
);
},
{
closed = 1;
nodes = (
"130 162 OFFCURVE",
"130 208 OFFCURVE",
"138 252 CURVE SMOOTH",
"264 842 LINE SMOOTH",
"268 858 OFFCURVE",
"296 934 OFFCURVE",
"318 934 CURVE SMOOTH",
"340 934 OFFCURVE",
"342 892 OFFCURVE",
"332 842 CURVE SMOOTH",
"206 252 LINE SMOOTH",
"200 220 OFFCURVE",
"172 162 OFFCURVE",
"154 162 CURVE SMOOTH"
);
}
);
width = 454;
},
{
layerId = "6463F33F-C059-4755-9C76-9F35D70521A0";
paths = (
{
closed = 1;
nodes = (
"338 -16 OFFCURVE",
"384 152 OFFCURVE",
"384 266 CURVE SMOOTH",
"384 906 LINE SMOOTH",
"384 1100 OFFCURVE",
"336 1246 OFFCURVE",
"300 1342 CURVE",
"356 1428 LINE",
"312 1516 LINE",
"258 1436 LINE",
"258 1436 OFFCURVE",
"232 1486 OFFCURVE",
"226 1502 CURVE",
"142 1374 LINE",
"142 1372 OFFCURVE",
"164 1342 OFFCURVE",
"174 1314 CURVE",
"110 1224 LINE",
"154 1138 LINE",
"196 1200 LINE",
"202 1168 OFFCURVE",
"212 1118 OFFCURVE",
"216 1076 CURVE",
"194 1096 OFFCURVE",
"168 1110 OFFCURVE",
"146 1110 CURVE SMOOTH",
"28 1110 OFFCURVE",
"18 936 OFFCURVE",
"16 838 CURVE SMOOTH",
"16 272 LINE SMOOTH",
"16 150 OFFCURVE",
"54 -16 OFFCURVE",
"200 -16 CURVE SMOOTH"
);
},
{
closed = 1;
nodes = (
"176 162 OFFCURVE",
"166 208 OFFCURVE",
"166 252 CURVE SMOOTH",
"166 842 LINE SMOOTH",
"166 858 OFFCURVE",
"178 934 OFFCURVE",
"200 934 CURVE SMOOTH",
"222 934 OFFCURVE",
"234 892 OFFCURVE",
"234 842 CURVE SMOOTH",
"234 252 LINE SMOOTH",
"234 220 OFFCURVE",
"218 162 OFFCURVE",
"200 162 CURVE SMOOTH"
);
}
);
width = 454;
}
);
unicode = 00F0;
},
{
color = 0;
glyphname = dcroat;
lastChange = "2019-11-22 22:53:53 +0000";
layers = (
{
layerId = "1AB499B8-18A8-432D-A211-B6882CCB886D";
paths = (
{
closed = 1;
nodes = (
"246 -16 OFFCURVE",
"266 -12 OFFCURVE",
"286 -2 CURVE SMOOTH",
"324 16 OFFCURVE",
"354 40 OFFCURVE",
"388 72 CURVE",
"388 0 LINE",
"590 0 LINE",
"590 1470 LINE",
"388 1470 LINE",
"388 1022 LINE",
"370 1038 OFFCURVE",
"354 1052 OFFCURVE",
"336 1066 CURVE SMOOTH",
"306 1088 OFFCURVE",
"266 1110 OFFCURVE",
"228 1110 CURVE SMOOTH",
"172 1110 OFFCURVE",
"134 1078 OFFCURVE",
"110 1038 CURVE SMOOTH",
"84 996 OFFCURVE",
"72 942 OFFCURVE",
"72 896 CURVE SMOOTH",
"72 198 LINE SMOOTH",
"72 152 OFFCURVE",
"84 98 OFFCURVE",
"110 58 CURVE",
"134 16 OFFCURVE",
"172 -16 OFFCURVE",
"228 -16 CURVE SMOOTH"
);
},
{
closed = 1;
nodes = (
"298 174 OFFCURVE",
"274 202 OFFCURVE",
"274 240 CURVE SMOOTH",
"274 854 LINE SMOOTH",
"274 892 OFFCURVE",
"298 920 OFFCURVE",
"328 920 CURVE SMOOTH",
"358 920 OFFCURVE",
"388 886 OFFCURVE",
"388 854 CURVE SMOOTH",
"388 240 LINE SMOOTH",
"388 202 OFFCURVE",
"358 174 OFFCURVE",
"328 174 CURVE SMOOTH"
);
},
{
closed = 1;
nodes = (
"636 1194 LINE",
"636 1384 LINE",
"346 1384 LINE",
"346 1194 LINE"
);
}
);
width = 670;
},
{
layerId = "E10EC336-1202-48FF-9A55-15876E80CDFD";
paths = (
{
closed = 1;
nodes = (
"244 -16 OFFCURVE",
"264 -12 OFFCURVE",
"284 -2 CURVE",
"326 16 OFFCURVE",
"362 40 OFFCURVE",
"402 72 CURVE",
"388 0 LINE",
"590 0 LINE",
"842 1194 LINE",
"888 1194 LINE",
"930 1384 LINE",
"884 1384 LINE",
"902 1470 LINE",
"700 1470 LINE",
"682 1384 LINE",
"640 1384 LINE",
"598 1194 LINE",
"640 1194 LINE",
"604 1022 LINE",
"590 1038 OFFCURVE",
"576 1052 OFFCURVE",
"562 1066 CURVE",
"536 1088 OFFCURVE",
"500 1110 OFFCURVE",
"462 1110 CURVE SMOOTH",
"406 1110 OFFCURVE",
"362 1078 OFFCURVE",
"330 1038 CURVE",
"292 996 OFFCURVE",
"272 942 OFFCURVE",
"262 896 CURVE SMOOTH",
"114 198 LINE SMOOTH",
"104 152 OFFCURVE",
"104 98 OFFCURVE",
"122 58 CURVE",
"136 16 OFFCURVE",
"168 -16 OFFCURVE",
"224 -16 CURVE SMOOTH"
);
},
{
closed = 1;
nodes = (
"334 174 OFFCURVE",
"316 202 OFFCURVE",
"324 240 CURVE SMOOTH",
"454 854 LINE SMOOTH",
"462 892 OFFCURVE",
"492 920 OFFCURVE",
"522 920 CURVE SMOOTH",
"552 920 OFFCURVE",
"576 886 OFFCURVE",
"568 854 CURVE",
"438 240 LINE SMOOTH",
"430 202 OFFCURVE",
"394 174 OFFCURVE",
"364 174 CURVE SMOOTH"
);
}
);
width = 670;
},
{
layerId = "38BA14EB-08C8-4487-88C1-8F957131FCA1";
paths = (
{
closed = 1;
nodes = (
"70 -16 OFFCURVE",
"92 -10 OFFCURVE",
"106 -2 CURVE",
"112 2 OFFCURVE",
"134 20 OFFCURVE",
"142 26 CURVE",
"136 0 LINE",
"294 0 LINE",
"548 1194 LINE",
"576 1194 LINE",
"616 1384 LINE",
"588 1384 LINE",
"606 1470 LINE",
"448 1470 LINE",
"430 1384 LINE",
"406 1384 LINE",
"366 1194 LINE",
"390 1194 LINE",
"364 1070 LINE",
"346 1090 OFFCURVE",
"326 1110 OFFCURVE",
"294 1110 CURVE SMOOTH",
"252 1110 OFFCURVE",
"212 1074 OFFCURVE",
"190 1038 CURVE SMOOTH",
"166 996 OFFCURVE",
"148 942 OFFCURVE",
"138 896 CURVE SMOOTH",
"-8 198 LINE SMOOTH",
"-18 152 OFFCURVE",
"-24 98 OFFCURVE",
"-16 58 CURVE",
"-10 18 OFFCURVE",
"12 -16 OFFCURVE",
"54 -16 CURVE SMOOTH"
);
},
{
closed = 1;
nodes = (
"146 174 OFFCURVE",
"146 202 OFFCURVE",
"154 240 CURVE SMOOTH",
"286 854 LINE SMOOTH",
"294 892 OFFCURVE",
"306 920 OFFCURVE",
"314 920 CURVE SMOOTH",
"322 920 OFFCURVE",
"324 886 OFFCURVE",
"318 854 CURVE SMOOTH",
"186 240 LINE SMOOTH",
"178 202 OFFCURVE",
"162 174 OFFCURVE",
"154 174 CURVE SMOOTH"
);
}
);
width = 462;
},
{
layerId = "6463F33F-C059-4755-9C76-9F35D70521A0";
paths = (
{
closed = 1;
nodes = (
"152 -16 OFFCURVE",
"172 -10 OFFCURVE",
"184 -2 CURVE SMOOTH",
"190 2 OFFCURVE",
"208 20 OFFCURVE",
"214 26 CURVE",
"214 0 LINE",
"372 0 LINE",
"372 1194 LINE",
"400 1194 LINE",
"400 1384 LINE",
"372 1384 LINE",
"372 1470 LINE",
"214 1470 LINE",
"214 1384 LINE",
"190 1384 LINE",
"190 1194 LINE",
"214 1194 LINE",
"214 1070 LINE",
"192 1090 OFFCURVE",
"168 1110 OFFCURVE",
"136 1110 CURVE SMOOTH",
"94 1110 OFFCURVE",
"62 1074 OFFCURVE",
"48 1038 CURVE SMOOTH",
"32 996 OFFCURVE",
"26 942 OFFCURVE",
"26 896 CURVE SMOOTH",
"26 198 LINE SMOOTH",
"26 152 OFFCURVE",
"32 98 OFFCURVE",
"48 58 CURVE",
"62 18 OFFCURVE",
"94 -16 OFFCURVE",
"136 -16 CURVE SMOOTH"
);
},
{
closed = 1;
nodes = (
"188 174 OFFCURVE",
"182 202 OFFCURVE",
"182 240 CURVE SMOOTH",
"182 854 LINE SMOOTH",
"182 892 OFFCURVE",
"188 920 OFFCURVE",
"196 920 CURVE SMOOTH",
"204 920 OFFCURVE",
"214 886 OFFCURVE",
"214 854 CURVE SMOOTH",
"214 240 LINE SMOOTH",
"214 202 OFFCURVE",
"204 174 OFFCURVE",
"196 174 CURVE SMOOTH"
);
}
);
width = 462;
}
);
unicode = 0111;
},
{
color = 3;
glyphname = e;
lastChange = "2019-11-22 22:53:53 +0000";
layers = (
{
anchors = (
{
name = bottom;
position = "{322, 0}";
},
{
name = ogonek;
position = "{580, 10}";
},
{
name = top;
position = "{322, 1094}";
}
);
background = {
paths = (
{
closed = 1;
nodes = (
"586 392 LINE",
"586 266 LINE",
"580 160 OFFCURVE",
"548 86 OFFCURVE",
"476 28 CURVE SMOOTH",
"440 -2 OFFCURVE",
"390 -16 OFFCURVE",
"324 -16 CURVE SMOOTH",
"194 -16 OFFCURVE",
"128 56 OFFCURVE",
"96 128 CURVE SMOOTH",
"78 170 OFFCURVE",
"66 218 OFFCURVE",
"64 272 CURVE",
"64 822 LINE",
"70 928 OFFCURVE",
"104 1006 OFFCURVE",
"176 1066 CURVE SMOOTH",
"210 1096 OFFCURVE",
"260 1110 OFFCURVE",
"326 1110 CURVE SMOOTH",
"456 1110 OFFCURVE",
"522 1038 OFFCURVE",
"554 968 CURVE SMOOTH",
"572 926 OFFCURVE",
"584 880 OFFCURVE",
"586 828 CURVE",
"586 510 LINE",
"252 510 LINE",
"252 272 LINE",
"254 230 OFFCURVE",
"266 200 OFFCURVE",
"284 178 CURVE",
"294 168 OFFCURVE",
"308 162 OFFCURVE",
"326 162 CURVE SMOOTH",
"364 162 OFFCURVE",
"382 186 OFFCURVE",
"390 216 CURVE",
"396 232 OFFCURVE",
"398 250 OFFCURVE",
"398 272 CURVE SMOOTH",
"398 392 LINE"
);
},
{
closed = 1;
nodes = (
"252 668 LINE",
"398 668 LINE",
"398 822 LINE SMOOTH",
"398 864 OFFCURVE",
"390 894 OFFCURVE",
"370 918 CURVE",
"360 928 OFFCURVE",
"344 934 OFFCURVE",
"326 934 CURVE SMOOTH",
"288 934 OFFCURVE",
"272 908 OFFCURVE",
"262 878 CURVE",
"256 862 OFFCURVE",
"254 844 OFFCURVE",
"252 822 CURVE"
);
}
);
};
layerId = "1AB499B8-18A8-432D-A211-B6882CCB886D";
paths = (
{
closed = 1;
nodes = (
"485 -16 OFFCURVE",
"586 96 OFFCURVE",
"586 276 CURVE SMOOTH",
"586 392 LINE",
"398 392 LINE",
"398 272 LINE SMOOTH",
"398 204 OFFCURVE",
"371 162 OFFCURVE",
"326 162 CURVE SMOOTH",
"280 162 OFFCURVE",
"252 204 OFFCURVE",
"252 272 CURVE SMOOTH",
"252 601 LINE",
"161 510 LINE",
"586 510 LINE",
"586 818 LINE SMOOTH",
"586 997 OFFCURVE",
"485 1110 OFFCURVE",
"326 1110 CURVE SMOOTH",
"165 1110 OFFCURVE",
"64 993 OFFCURVE",
"64 807 CURVE SMOOTH",
"64 287 LINE SMOOTH",
"64 98 OFFCURVE",
"162 -16 OFFCURVE",
"324 -16 CURVE SMOOTH"
);
},
{
closed = 1;
nodes = (
"252 822 LINE SMOOTH",
"252 894 OFFCURVE",
"279 934 OFFCURVE",
"326 934 CURVE SMOOTH",
"372 934 OFFCURVE",
"398 894 OFFCURVE",
"398 822 CURVE SMOOTH",
"398 577 LINE",
"489 668 LINE",
"161 668 LINE",
"252 577 LINE"
);
}
);
width = 644;
},
{
background = {
paths = (
{
closed = 1;
nodes = (
"668 392 LINE",
"642 266 LINE",
"612 160 OFFCURVE",
"566 86 OFFCURVE",
"480 28 CURVE SMOOTH",
"438 -2 OFFCURVE",
"386 -16 OFFCURVE",
"320 -16 CURVE SMOOTH",
"190 -16 OFFCURVE",
"138 56 OFFCURVE",
"122 128 CURVE SMOOTH",
"112 174 OFFCURVE",
"112 222 OFFCURVE",
"120 272 CURVE",
"238 822 LINE",
"268 928 OFFCURVE",
"316 1004 OFFCURVE",
"402 1066 CURVE",
"440 1096 OFFCURVE",
"494 1110 OFFCURVE",
"560 1110 CURVE SMOOTH",
"624 1110 OFFCURVE",
"670 1092 OFFCURVE",
"702 1066 CURVE SMOOTH",
"734 1040 OFFCURVE",
"750 1002 OFFCURVE",
"758 968 CURVE SMOOTH",
"768 926 OFFCURVE",
"770 882 OFFCURVE",
"760 828 CURVE SMOOTH",
"694 510 LINE",
"360 510 LINE",
"308 272 LINE",
"302 234 OFFCURVE",
"306 202 OFFCURVE",
"320 178 CURVE",
"328 168 OFFCURVE",
"342 162 OFFCURVE",
"360 162 CURVE SMOOTH",
"398 162 OFFCURVE",
"420 186 OFFCURVE",
"434 216 CURVE",
"444 230 OFFCURVE",
"450 250 OFFCURVE",
"454 272 CURVE SMOOTH",
"480 392 LINE"
);
},
{
closed = 1;
nodes = (
"392 668 LINE",
"538 668 LINE",
"572 822 LINE SMOOTH",
"580 864 OFFCURVE",
"580 894 OFFCURVE",
"564 918 CURVE",
"556 928 OFFCURVE",
"542 934 OFFCURVE",
"524 934 CURVE SMOOTH",
"486 934 OFFCURVE",
"464 908 OFFCURVE",
"448 878 CURVE SMOOTH",
"440 864 OFFCURVE",
"432 846 OFFCURVE",
"426 822 CURVE SMOOTH"
);
}
);
};
layerId = "E10EC336-1202-48FF-9A55-15876E80CDFD";
paths = (
{
closed = 1;
nodes = (
"474 -16 OFFCURVE",
"590 86 OFFCURVE",
"642 266 CURVE SMOOTH",
"668 392 LINE",
"480 392 LINE",
"454 272 LINE SMOOTH",
"441 204 OFFCURVE",
"405 162 OFFCURVE",
"360 162 CURVE SMOOTH",
"316 162 OFFCURVE",
"297 202 OFFCURVE",
"308 272 CURVE SMOOTH",
"379 599 LINE",
"269 510 LINE",
"694 510 LINE",
"760 828 LINE SMOOTH",
"792 1001 OFFCURVE",
"715 1110 OFFCURVE",
"560 1110 CURVE SMOOTH",
"407 1110 OFFCURVE",
"290 1005 OFFCURVE",
"238 822 CURVE SMOOTH",
"120 272 LINE SMOOTH",
"91 90 OFFCURVE",
"164 -16 OFFCURVE",
"320 -16 CURVE SMOOTH"
);
},
{
closed = 1;
nodes = (
"426 822 LINE SMOOTH",
"443 893 OFFCURVE",
"479 934 OFFCURVE",
"524 934 CURVE SMOOTH",
"569 934 OFFCURVE",
"586 895 OFFCURVE",
"572 822 CURVE SMOOTH",
"518 579 LINE",
"629 668 LINE",
"301 668 LINE",
"372 579 LINE"
);
}
);
width = 644;
},
{
background = {
paths = (
{
closed = 1;
nodes = (
"261 -16 OFFCURVE",
"349 77 OFFCURVE",
"386 254 CURVE SMOOTH",
"416 392 LINE",
"266 392 LINE",
"240 272 LINE SMOOTH",
"226 205 OFFCURVE",
"202 162 OFFCURVE",
"180 162 CURVE SMOOTH",
"163 162 OFFCURVE",
"160 207 OFFCURVE",
"172 272 CURVE SMOOTH",
"236 564 LINE",
"169 510 LINE",
"442 510 LINE",
"510 836 LINE SMOOTH",
"551 1020 OFFCURVE",
"508 1110 OFFCURVE",
"380 1110 CURVE SMOOTH",
"271 1110 OFFCURVE",
"174 998 OFFCURVE",
"138 830 CURVE SMOOTH",
"16 260 LINE SMOOTH",
"-18 84 OFFCURVE",
"25 -16 OFFCURVE",
"132 -16 CURVE SMOOTH"
);
},
{
closed = 1;
nodes = (
"290 822 LINE SMOOTH",
"302 885 OFFCURVE",
"325 934 OFFCURVE",
"342 934 CURVE SMOOTH",
"369 934 OFFCURVE",
"374 896 OFFCURVE",
"358 822 CURVE SMOOTH",
"312 614 LINE",
"379 668 LINE",
"201 668 LINE",
"244 614 LINE"
);
}
);
};
layerId = "38BA14EB-08C8-4487-88C1-8F957131FCA1";
paths = (
{
closed = 1;
nodes = (
"255 -16 OFFCURVE",
"351 87 OFFCURVE",
"386 254 CURVE SMOOTH",
"416 392 LINE",
"266 392 LINE",
"240 272 LINE SMOOTH",
"227 211 OFFCURVE",
"200 162 OFFCURVE",
"180 162 CURVE SMOOTH",
"161 162 OFFCURVE",
"159 200 OFFCURVE",
"172 272 CURVE SMOOTH",
"236 564 LINE",
"169 510 LINE",
"442 510 LINE",
"510 836 LINE SMOOTH",
"548 1008 OFFCURVE",
"499 1110 OFFCURVE",
"380 1110 CURVE SMOOTH",
"263 1110 OFFCURVE",
"177 1011 OFFCURVE",
"138 830 CURVE SMOOTH",
"16 260 LINE SMOOTH",
"-20 74 OFFCURVE",
"18 -16 OFFCURVE",
"132 -16 CURVE SMOOTH"
);
},
{
closed = 1;
nodes = (
"290 822 LINE SMOOTH",
"304 897 OFFCURVE",
"321 934 OFFCURVE",
"342 934 CURVE SMOOTH",
"365 934 OFFCURVE",
"372 887 OFFCURVE",
"358 822 CURVE SMOOTH",
"312 614 LINE",
"379 668 LINE",
"201 668 LINE",
"244 614 LINE"
);
}
);
width = 446;
},
{
layerId = "6463F33F-C059-4755-9C76-9F35D70521A0";
paths = (
{
closed = 1;
nodes = (
"317 -16 OFFCURVE",
"392 86 OFFCURVE",
"392 254 CURVE SMOOTH",
"392 392 LINE",
"242 392 LINE",
"242 272 LINE SMOOTH",
"242 212 OFFCURVE",
"225 162 OFFCURVE",
"204 162 CURVE SMOOTH",
"185 162 OFFCURVE",
"174 203 OFFCURVE",
"174 272 CURVE SMOOTH",
"174 565 LINE",
"119 510 LINE",
"392 510 LINE",
"392 836 LINE SMOOTH",
"392 1009 OFFCURVE",
"323 1110 OFFCURVE",
"204 1110 CURVE SMOOTH",
"86 1110 OFFCURVE",
"20 1009 OFFCURVE",
"20 830 CURVE SMOOTH",
"20 260 LINE SMOOTH",
"20 76 OFFCURVE",
"78 -16 OFFCURVE",
"194 -16 CURVE SMOOTH"
);
},
{
closed = 1;
nodes = (
"174 822 LINE SMOOTH",
"174 902 OFFCURVE",
"182 934 OFFCURVE",
"202 934 CURVE SMOOTH",
"226 934 OFFCURVE",
"242 889 OFFCURVE",
"242 822 CURVE SMOOTH",
"242 613 LINE",
"297 668 LINE",
"119 668 LINE",
"174 613 LINE"
);
}
);
width = 446;
}
);
leftKerningGroup = c;
rightKerningGroup = c;
unicode = 0065;
},
{
color = 3;
glyphname = f;
lastChange = "2019-11-22 22:53:53 +0000";
layers = (
{
anchors = (
{
name = bottom;
position = "{232, 0}";
},
{
name = top;
position = "{232, 1470}";
}
);
background = {
paths = (
{
closed = 1;
nodes = (
"122 0 LINE",
"122 912 LINE",
"20 912 LINE",
"20 1094 LINE",
"122 1094 LINE",
"122 1110 LINE",
"122 1124 LINE SMOOTH",
"122 1180 OFFCURVE",
"124 1270 OFFCURVE",
"152 1344 CURVE SMOOTH",
"180 1418 OFFCURVE",
"236 1478 OFFCURVE",
"354 1478 CURVE SMOOTH",
"386 1478 OFFCURVE",
"408 1476 OFFCURVE",
"424 1470 CURVE",
"448 1464 LINE",
"448 1290 LINE",
"442 1292 OFFCURVE",
"436 1292 OFFCURVE",
"430 1294 CURVE",
"416 1296 OFFCURVE",
"402 1298 OFFCURVE",
"388 1298 CURVE SMOOTH",
"354 1298 OFFCURVE",
"338 1268 OFFCURVE",
"330 1230 CURVE SMOOTH",
"326 1210 OFFCURVE",
"324 1190 OFFCURVE",
"324 1170 CURVE SMOOTH",
"324 1150 OFFCURVE",
"324 1134 OFFCURVE",
"324 1122 CURVE SMOOTH",
"324 1106 LINE",
"324 1094 LINE",
"426 1094 LINE",
"426 912 LINE",
"324 912 LINE",
"324 0 LINE"
);
}
);
};
layerId = "1AB499B8-18A8-432D-A211-B6882CCB886D";
paths = (
{
closed = 1;
nodes = (
"324 0 LINE",
"324 1003 LINE",
"233 912 LINE",
"426 912 LINE",
"426 1094 LINE",
"233 1094 LINE",
"326 951 LINE",
"319 1235 OFFCURVE",
"330 1298 OFFCURVE",
"388 1298 CURVE SMOOTH",
"404 1298 OFFCURVE",
"438 1293 OFFCURVE",
"448 1290 CURVE",
"448 1464 LINE",
"414 1474 OFFCURVE",
"386 1478 OFFCURVE",
"354 1478 CURVE SMOOTH",
"165 1478 OFFCURVE",
"108 1356 OFFCURVE",
"124 991 CURVE",
"213 1094 LINE",
"20 1094 LINE",
"20 912 LINE",
"213 912 LINE",
"122 1003 LINE",
"122 0 LINE"
);
}
);
width = 464;
},
{
background = {
paths = (
{
closed = 1;
nodes = (
"122 0 LINE",
"314 912 LINE",
"212 912 LINE",
"252 1094 LINE",
"354 1094 LINE",
"360 1124 LINE SMOOTH",
"374 1180 OFFCURVE",
"390 1270 OFFCURVE",
"436 1344 CURVE SMOOTH",
"482 1418 OFFCURVE",
"548 1478 OFFCURVE",
"668 1478 CURVE SMOOTH",
"700 1478 OFFCURVE",
"722 1476 OFFCURVE",
"758 1464 CURVE",
"722 1287 LINE",
"693 1296 OFFCURVE",
"683 1298 OFFCURVE",
"662 1298 CURVE SMOOTH",
"614 1298 OFFCURVE",
"585 1234 OFFCURVE",
"572 1170 CURVE SMOOTH",
"556 1094 LINE",
"658 1094 LINE",
"618 912 LINE",
"516 912 LINE",
"324 0 LINE"
);
}
);
};
layerId = "E10EC336-1202-48FF-9A55-15876E80CDFD";
paths = (
{
closed = 1;
nodes = (
"324 0 LINE",
"535 1001 LINE",
"425 912 LINE",
"618 912 LINE",
"658 1094 LINE",
"465 1094 LINE",
"528 949 LINE",
"586 1261 OFFCURVE",
"600 1298 OFFCURVE",
"662 1298 CURVE SMOOTH",
"680 1298 OFFCURVE",
"700 1294 OFFCURVE",
"722 1287 CURVE",
"758 1464 LINE",
"728 1474 OFFCURVE",
"701 1478 OFFCURVE",
"668 1478 CURVE SMOOTH",
"478 1478 OFFCURVE",
"382 1337 OFFCURVE",
"340 999 CURVE",
"445 1094 LINE",
"252 1094 LINE",
"212 912 LINE",
"405 912 LINE",
"333 1001 LINE",
"122 0 LINE"
);
}
);
width = 464;
},
{
background = {
paths = (
{
closed = 1;
nodes = (
"132 0 LINE",
"326 912 LINE",
"388 912 LINE",
"428 1094 LINE",
"366 1094 LINE",
"382 1170 LINE SMOOTH",
"392 1220 OFFCURVE",
"404 1274 OFFCURVE",
"426 1294 CURVE",
"438 1304 OFFCURVE",
"462 1306 OFFCURVE",
"482 1292 CURVE",
"516 1458 LINE",
"496 1472 OFFCURVE",
"472 1478 OFFCURVE",
"446 1478 CURVE SMOOTH",
"300 1478 OFFCURVE",
"254 1292 OFFCURVE",
"222 1158 CURVE SMOOTH",
"210 1094 LINE",
"148 1094 LINE",
"108 912 LINE",
"170 912 LINE",
"-22 0 LINE"
);
}
);
};
layerId = "38BA14EB-08C8-4487-88C1-8F957131FCA1";
paths = (
{
closed = 1;
nodes = (
"132 0 LINE",
"337 966 LINE",
"271 912 LINE",
"388 912 LINE",
"428 1094 LINE",
"311 1094 LINE",
"350 1037 LINE",
"393 1260 OFFCURVE",
"409 1302 OFFCURVE",
"451 1302 CURVE SMOOTH",
"460 1302 OFFCURVE",
"468 1300 OFFCURVE",
"482 1292 CURVE",
"516 1458 LINE",
"495 1472 OFFCURVE",
"473 1478 OFFCURVE",
"446 1478 CURVE SMOOTH",
"315 1478 OFFCURVE",
"243 1341 OFFCURVE",
"192 992 CURVE",
"265 1094 LINE",
"148 1094 LINE",
"108 912 LINE",
"225 912 LINE",
"181 966 LINE",
"-22 0 LINE"
);
}
);
width = 338;
},
{
background = {
paths = (
{
closed = 1;
nodes = (
"212 0 LINE",
"212 912 LINE",
"274 912 LINE",
"274 1094 LINE",
"212 1094 LINE",
"212 1170 LINE SMOOTH",
"212 1220 OFFCURVE",
"212 1274 OFFCURVE",
"230 1294 CURVE",
"235 1299 OFFCURVE",
"244 1302 OFFCURVE",
"254 1302 CURVE SMOOTH",
"264 1302 OFFCURVE",
"275 1299 OFFCURVE",
"286 1292 CURVE",
"286 1458 LINE",
"262 1472 OFFCURVE",
"238 1478 OFFCURVE",
"212 1478 CURVE SMOOTH",
"66 1478 OFFCURVE",
"58 1292 OFFCURVE",
"56 1158 CURVE SMOOTH",
"56 1094 LINE",
"-6 1094 LINE",
"-6 912 LINE",
"56 912 LINE",
"56 0 LINE"
);
}
);
};
layerId = "6463F33F-C059-4755-9C76-9F35D70521A0";
paths = (
{
closed = 1;
nodes = (
"212 0 LINE",
"212 967 LINE",
"157 912 LINE",
"274 912 LINE",
"274 1094 LINE",
"157 1094 LINE",
"212 1039 LINE",
"212 1281 OFFCURVE",
"215 1302 OFFCURVE",
"248 1302 CURVE SMOOTH",
"259 1302 OFFCURVE",
"277 1299 OFFCURVE",
"286 1296 CURVE",
"286 1458 LINE",
"263 1472 OFFCURVE",
"240 1478 OFFCURVE",
"212 1478 CURVE SMOOTH",
"90 1478 OFFCURVE",
"51 1367 OFFCURVE",
"56 1039 CURVE",
"111 1094 LINE",
"-6 1094 LINE",
"-6 912 LINE",
"111 912 LINE",
"56 967 LINE",
"56 0 LINE"
);
}
);
width = 338;
}
);
unicode = 0066;
},
{
color = 3;
glyphname = g;
lastChange = "2019-11-22 22:53:53 +0000";
layers = (
{
anchors = (
{
name = bottom;
position = "{342, -530}";
},
{
name = top;
position = "{314, 1110}";
}
);
background = {
paths = (
{
closed = 1;
nodes = (
"574 528 LINE",
"568 426 OFFCURVE",
"532 354 OFFCURVE",
"462 300 CURVE SMOOTH",
"426 272 OFFCURVE",
"376 258 OFFCURVE",
"314 258 CURVE SMOOTH",
"308 258 OFFCURVE",
"302 258 OFFCURVE",
"296 258 CURVE SMOOTH",
"290 258 OFFCURVE",
"282 258 OFFCURVE",
"276 260 CURVE",
"258 244 OFFCURVE",
"248 228 OFFCURVE",
"248 210 CURVE SMOOTH",
"248 186 OFFCURVE",
"268 172 OFFCURVE",
"298 164 CURVE",
"328 154 OFFCURVE",
"364 148 OFFCURVE",
"402 142 CURVE SMOOTH",
"466 134 OFFCURVE",
"534 118 OFFCURVE",
"590 80 CURVE SMOOTH",
"644 42 OFFCURVE",
"682 -16 OFFCURVE",
"682 -112 CURVE SMOOTH",
"682 -218 OFFCURVE",
"636 -290 OFFCURVE",
"572 -332 CURVE SMOOTH",
"506 -374 OFFCURVE",
"418 -392 OFFCURVE",
"336 -392 CURVE SMOOTH",
"240 -390 OFFCURVE",
"158 -376 OFFCURVE",
"102 -344 CURVE SMOOTH",
"44 -312 OFFCURVE",
"12 -260 OFFCURVE",
"12 -180 CURVE SMOOTH",
"12 -142 OFFCURVE",
"32 -110 OFFCURVE",
"62 -82 CURVE SMOOTH",
"92 -54 OFFCURVE",
"132 -32 OFFCURVE",
"170 -14 CURVE",
"104 4 OFFCURVE",
"48 46 OFFCURVE",
"48 132 CURVE SMOOTH",
"48 164 OFFCURVE",
"66 196 OFFCURVE",
"90 226 CURVE SMOOTH",
"114 256 OFFCURVE",
"144 280 OFFCURVE",
"174 296 CURVE",
"116 334 OFFCURVE",
"88 394 OFFCURVE",
"74 444 CURVE SMOOTH",
"66 474 OFFCURVE",
"60 504 OFFCURVE",
"58 534 CURVE",
"58 832 LINE",
"66 934 OFFCURVE",
"98 1008 OFFCURVE",
"168 1066 CURVE SMOOTH",
"202 1096 OFFCURVE",
"252 1110 OFFCURVE",
"314 1110 CURVE SMOOTH",
"416 1110 OFFCURVE",
"478 1064 OFFCURVE",
"516 1010 CURVE",
"530 1024 OFFCURVE",
"554 1048 OFFCURVE",
"586 1070 CURVE SMOOTH",
"616 1092 OFFCURVE",
"650 1110 OFFCURVE",
"682 1110 CURVE",
"682 930 LINE",
"628 930 OFFCURVE",
"588 920 OFFCURVE",
"564 906 CURVE",
"566 896 OFFCURVE",
"568 886 OFFCURVE",
"570 880 CURVE",
"570 872 OFFCURVE",
"570 864 OFFCURVE",
"572 858 CURVE SMOOTH",
"574 852 OFFCURVE",
"574 844 OFFCURVE",
"574 838 CURVE SMOOTH"
);
},
{
closed = 1;
nodes = (
"376 824 LINE SMOOTH",
"376 862 OFFCURVE",
"368 886 OFFCURVE",
"352 908 CURVE",
"344 918 OFFCURVE",
"332 924 OFFCURVE",
"314 924 CURVE SMOOTH",
"282 924 OFFCURVE",
"266 898 OFFCURVE",
"260 874 CURVE SMOOTH",
"256 860 OFFCURVE",
"254 842 OFFCURVE",
"256 824 CURVE",
"256 524 LINE",
"254 486 OFFCURVE",
"260 462 OFFCURVE",
"278 442 CURVE",
"286 432 OFFCURVE",
"298 426 OFFCURVE",
"314 426 CURVE SMOOTH",
"348 426 OFFCURVE",
"362 450 OFFCURVE",
"370 474 CURVE",
"374 488 OFFCURVE",
"376 506 OFFCURVE",
"376 524 CURVE SMOOTH"
);
},
{
closed = 1;
nodes = (
"494 -130 OFFCURVE",
"492 -116 OFFCURVE",
"478 -102 CURVE",
"462 -88 OFFCURVE",
"436 -78 OFFCURVE",
"386 -70 CURVE SMOOTH",
"282 -50 LINE",
"240 -74 OFFCURVE",
"208 -104 OFFCURVE",
"208 -146 CURVE SMOOTH",
"208 -188 OFFCURVE",
"246 -222 OFFCURVE",
"340 -222 CURVE SMOOTH",
"374 -222 OFFCURVE",
"412 -216 OFFCURVE",
"442 -204 CURVE SMOOTH",
"472 -192 OFFCURVE",
"494 -174 OFFCURVE",
"494 -148 CURVE SMOOTH"
);
}
);
};
layerId = "1AB499B8-18A8-432D-A211-B6882CCB886D";
paths = (
{
closed = 1;
nodes = (
"566 -392 OFFCURVE",
"682 -298 OFFCURVE",
"682 -112 CURVE SMOOTH",
"682 46 OFFCURVE",
"606 115 OFFCURVE",
"402 142 CURVE SMOOTH",
"295 157 OFFCURVE",
"248 178 OFFCURVE",
"248 210 CURVE SMOOTH",
"248 241 OFFCURVE",
"291 274 OFFCURVE",
"340 282 CURVE",
"243 282 LINE",
"243 266 OFFCURVE",
"264 258 OFFCURVE",
"308 258 CURVE SMOOTH",
"477 258 OFFCURVE",
"574 374 OFFCURVE",
"574 578 CURVE SMOOTH",
"574 838 LINE SMOOTH",
"574 892 OFFCURVE",
"553 938 OFFCURVE",
"528 938 CURVE",
"540 883 LINE",
"554 911 OFFCURVE",
"611 930 OFFCURVE",
"682 930 CURVE",
"682 1110 LINE",
"632 1110 OFFCURVE",
"550 1053 OFFCURVE",
"476 967 CURVE",
"541 967 LINE",
"496 1060 OFFCURVE",
"418 1110 OFFCURVE",
"314 1110 CURVE SMOOTH",
"154 1110 OFFCURVE",
"58 993 OFFCURVE",
"58 798 CURVE SMOOTH",
"58 554 LINE SMOOTH",
"58 414 OFFCURVE",
"126 300 OFFCURVE",
"227 272 CURVE",
"283 332 LINE",
"148 310 OFFCURVE",
"48 225 OFFCURVE",
"48 132 CURVE SMOOTH",
"48 37 OFFCURVE",
"151 -33 OFFCURVE",
"290 -33 CURVE",
"290 36 LINE",
"73 -47 OFFCURVE",
"12 -96 OFFCURVE",
"12 -188 CURVE SMOOTH",
"12 -317 OFFCURVE",
"131 -392 OFFCURVE",
"336 -392 CURVE SMOOTH"
);
},
{
closed = 1;
nodes = (
"249 -222 OFFCURVE",
"208 -198 OFFCURVE",
"208 -146 CURVE SMOOTH",
"208 -96 OFFCURVE",
"247 -60 OFFCURVE",
"346 -19 CURVE",
"193 -33 LINE",
"386 -70 LINE SMOOTH",
"458 -84 OFFCURVE",
"494 -110 OFFCURVE",
"494 -148 CURVE SMOOTH",
"494 -195 OFFCURVE",
"437 -222 OFFCURVE",
"340 -222 CURVE SMOOTH"
);
},
{
closed = 1;
nodes = (
"276 426 OFFCURVE",
"256 460 OFFCURVE",
"256 524 CURVE SMOOTH",
"256 824 LINE SMOOTH",
"256 888 OFFCURVE",
"277 924 OFFCURVE",
"314 924 CURVE SMOOTH",
"352 924 OFFCURVE",
"376 886 OFFCURVE",
"376 824 CURVE SMOOTH",
"376 524 LINE SMOOTH",
"376 462 OFFCURVE",
"353 426 OFFCURVE",
"314 426 CURVE SMOOTH"
);
}
);
width = 684;
},
{
anchors = (
{
name = bottom;
position = "{252, -392}";
},
{
name = top;
position = "{548, 1110}";
}
);
background = {
anchors = (
{
name = top;
position = "{342, 1094}";
}
);
paths = (
{
closed = 1;
nodes = (
"686 528 LINE",
"632 330 OFFCURVE",
"490 258 OFFCURVE",
"368 258 CURVE SMOOTH",
"350 258 LINE SMOOTH",
"340 258 OFFCURVE",
"334 258 OFFCURVE",
"330 260 CURVE",
"308 244 OFFCURVE",
"296 228 OFFCURVE",
"292 210 CURVE SMOOTH",
"286 186 OFFCURVE",
"302 172 OFFCURVE",
"332 164 CURVE",
"362 154 OFFCURVE",
"394 148 OFFCURVE",
"432 142 CURVE SMOOTH",
"494 134 OFFCURVE",
"558 118 OFFCURVE",
"606 80 CURVE SMOOTH",
"652 42 OFFCURVE",
"680 -16 OFFCURVE",
"658 -112 CURVE SMOOTH",
"634 -218 OFFCURVE",
"574 -290 OFFCURVE",
"500 -332 CURVE SMOOTH",
"426 -374 OFFCURVE",
"334 -392 OFFCURVE",
"252 -392 CURVE SMOOTH",
"156 -390 OFFCURVE",
"78 -376 OFFCURVE",
"28 -344 CURVE SMOOTH",
"-22 -312 OFFCURVE",
"-42 -260 OFFCURVE",
"-26 -180 CURVE SMOOTH",
"-18 -142 OFFCURVE",
"6 -112 OFFCURVE",
"44 -82 CURVE SMOOTH",
"82 -52 OFFCURVE",
"124 -32 OFFCURVE",
"166 -14 CURVE",
"104 4 OFFCURVE",
"54 46 OFFCURVE",
"76 132 CURVE",
"82 164 OFFCURVE",
"106 196 OFFCURVE",
"138 226 CURVE SMOOTH",
"168 256 OFFCURVE",
"202 280 OFFCURVE",
"236 296 CURVE",
"186 334 OFFCURVE",
"170 394 OFFCURVE",
"168 444 CURVE SMOOTH",
"166 478 OFFCURVE",
"166 508 OFFCURVE",
"170 534 CURVE",
"234 832 LINE",
"264 934 OFFCURVE",
"312 1008 OFFCURVE",
"394 1066 CURVE",
"432 1096 OFFCURVE",
"484 1110 OFFCURVE",
"548 1110 CURVE SMOOTH",
"650 1110 OFFCURVE",
"704 1064 OFFCURVE",
"730 1010 CURVE",
"746 1024 OFFCURVE",
"774 1048 OFFCURVE",
"812 1070 CURVE SMOOTH",
"850 1092 OFFCURVE",
"884 1110 OFFCURVE",
"916 1110 CURVE",
"878 930 LINE",
"824 930 OFFCURVE",
"782 920 OFFCURVE",
"756 906 CURVE",
"756 880 LINE",
"754 870 OFFCURVE",
"752 862 OFFCURVE",
"754 858 CURVE",
"754 856 OFFCURVE",
"754 852 OFFCURVE",
"754 848 CURVE",
"752 844 OFFCURVE",
"752 840 OFFCURVE",
"752 838 CURVE"
);
},
{
closed = 1;
nodes = (
"550 824 LINE SMOOTH",
"558 858 OFFCURVE",
"556 886 OFFCURVE",
"544 908 CURVE",
"538 918 OFFCURVE",
"526 924 OFFCURVE",
"510 924 CURVE SMOOTH",
"478 924 OFFCURVE",
"458 898 OFFCURVE",
"444 874 CURVE",
"438 860 OFFCURVE",
"432 842 OFFCURVE",
"430 824 CURVE",
"366 524 LINE",
"356 490 OFFCURVE",
"358 462 OFFCURVE",
"370 442 CURVE SMOOTH",
"376 432 OFFCURVE",
"388 426 OFFCURVE",
"404 426 CURVE SMOOTH",
"438 426 OFFCURVE",
"456 450 OFFCURVE",
"470 474 CURVE",
"476 490 OFFCURVE",
"482 506 OFFCURVE",
"486 524 CURVE SMOOTH"
);
},
{
closed = 1;
nodes = (
"270 -50 LINE",
"224 -74 OFFCURVE",
"184 -104 OFFCURVE",
"176 -146 CURVE SMOOTH",
"168 -188 OFFCURVE",
"198 -222 OFFCURVE",
"292 -222 CURVE SMOOTH",
"326 -222 OFFCURVE",
"366 -218 OFFCURVE",
"398 -204 CURVE SMOOTH",
"430 -190 OFFCURVE",
"456 -174 OFFCURVE",
"462 -148 CURVE SMOOTH",
"470 -110 OFFCURVE",
"452 -94 OFFCURVE",
"426 -84 CURVE",
"412 -78 OFFCURVE",
"394 -74 OFFCURVE",
"370 -70 CURVE SMOOTH"
);
},
{
closed = 1;
nodes = (
"334 -392 OFFCURVE",
"426 -374 OFFCURVE",
"500 -332 CURVE SMOOTH",
"574 -290 OFFCURVE",
"634 -218 OFFCURVE",
"658 -112 CURVE SMOOTH",
"680 -16 OFFCURVE",
"652 42 OFFCURVE",
"606 80 CURVE SMOOTH",
"558 118 OFFCURVE",
"494 134 OFFCURVE",
"432 142 CURVE SMOOTH",
"394 148 OFFCURVE",
"362 154 OFFCURVE",
"332 164 CURVE",
"302 172 OFFCURVE",
"286 186 OFFCURVE",
"292 210 CURVE SMOOTH",
"296 228 OFFCURVE",
"308 244 OFFCURVE",
"330 260 CURVE",
"334 258 OFFCURVE",
"340 258 OFFCURVE",
"350 258 CURVE SMOOTH",
"368 258 LINE SMOOTH",
"490 258 OFFCURVE",
"632 330 OFFCURVE",
"686 528 CURVE",
"752 838 LINE",
"752 840 OFFCURVE",
"752 844 OFFCURVE",
"754 848 CURVE",
"754 852 OFFCURVE",
"754 856 OFFCURVE",
"754 858 CURVE",
"752 862 OFFCURVE",
"754 870 OFFCURVE",
"756 880 CURVE",
"756 906 LINE",
"782 920 OFFCURVE",
"824 930 OFFCURVE",
"878 930 CURVE",
"916 1110 LINE",
"884 1110 OFFCURVE",
"850 1092 OFFCURVE",
"812 1070 CURVE SMOOTH",
"774 1048 OFFCURVE",
"746 1024 OFFCURVE",
"730 1010 CURVE",
"704 1064 OFFCURVE",
"650 1110 OFFCURVE",
"548 1110 CURVE SMOOTH",
"484 1110 OFFCURVE",
"432 1096 OFFCURVE",
"394 1066 CURVE",
"312 1008 OFFCURVE",
"264 934 OFFCURVE",
"234 832 CURVE",
"170 534 LINE",
"166 508 OFFCURVE",
"166 478 OFFCURVE",
"168 444 CURVE SMOOTH",
"170 394 OFFCURVE",
"186 334 OFFCURVE",
"236 296 CURVE",
"202 280 OFFCURVE",
"168 256 OFFCURVE",
"138 226 CURVE SMOOTH",
"106 196 OFFCURVE",
"82 164 OFFCURVE",
"76 132 CURVE",
"54 46 OFFCURVE",
"104 4 OFFCURVE",
"166 -14 CURVE",
"124 -32 OFFCURVE",
"82 -52 OFFCURVE",
"44 -82 CURVE SMOOTH",
"6 -112 OFFCURVE",
"-18 -142 OFFCURVE",
"-26 -180 CURVE SMOOTH",
"-42 -260 OFFCURVE",
"-22 -312 OFFCURVE",
"28 -344 CURVE SMOOTH",
"78 -376 OFFCURVE",
"156 -390 OFFCURVE",
"252 -392 CURVE SMOOTH"
);
},
{
closed = 1;
nodes = (
"198 -222 OFFCURVE",
"168 -188 OFFCURVE",
"176 -146 CURVE SMOOTH",
"184 -104 OFFCURVE",
"224 -74 OFFCURVE",
"270 -50 CURVE",
"370 -70 LINE SMOOTH",
"394 -74 OFFCURVE",
"412 -78 OFFCURVE",
"426 -84 CURVE",
"452 -94 OFFCURVE",
"470 -110 OFFCURVE",
"462 -148 CURVE SMOOTH",
"456 -174 OFFCURVE",
"430 -190 OFFCURVE",
"398 -204 CURVE SMOOTH",
"366 -218 OFFCURVE",
"326 -222 OFFCURVE",
"292 -222 CURVE SMOOTH"
);
},
{
closed = 1;
nodes = (
"388 426 OFFCURVE",
"376 432 OFFCURVE",
"370 442 CURVE SMOOTH",
"358 462 OFFCURVE",
"356 490 OFFCURVE",
"366 524 CURVE",
"430 824 LINE",
"432 842 OFFCURVE",
"438 860 OFFCURVE",
"444 874 CURVE",
"458 898 OFFCURVE",
"478 924 OFFCURVE",
"510 924 CURVE SMOOTH",
"526 924 OFFCURVE",
"538 918 OFFCURVE",
"544 908 CURVE",
"556 886 OFFCURVE",
"558 858 OFFCURVE",
"550 824 CURVE SMOOTH",
"486 524 LINE SMOOTH",
"482 506 OFFCURVE",
"476 490 OFFCURVE",
"470 474 CURVE",
"456 450 OFFCURVE",
"438 426 OFFCURVE",
"404 426 CURVE SMOOTH"
);
}
);
};
layerId = "E10EC336-1202-48FF-9A55-15876E80CDFD";
paths = (
{
closed = 1;
nodes = (
"507 -397 OFFCURVE",
"666 -265 OFFCURVE",
"666 -50 CURVE SMOOTH",
"666 71 OFFCURVE",
"608 118 OFFCURVE",
"432 142 CURVE SMOOTH",
"333 155 OFFCURVE",
"291 173 OFFCURVE",
"291 201 CURVE SMOOTH",
"291 221 OFFCURVE",
"312 249 OFFCURVE",
"341 268 CURVE",
"319 267 LINE",
"319 260 OFFCURVE",
"326 258 OFFCURVE",
"350 258 CURVE SMOOTH",
"518 258 OFFCURVE",
"651 364 OFFCURVE",
"686 528 CURVE SMOOTH",
"742 789 LINE SMOOTH",
"755 860 OFFCURVE",
"757 893 OFFCURVE",
"754 1012 CURVE",
"725 880 LINE",
"745 910 OFFCURVE",
"806 930 OFFCURVE",
"878 930 CURVE",
"916 1110 LINE",
"861 1110 OFFCURVE",
"748 1038 OFFCURVE",
"677 958 CURVE",
"748 950 LINE",
"733 1050 OFFCURVE",
"658 1110 OFFCURVE",
"548 1110 CURVE SMOOTH",
"397 1110 OFFCURVE",
"273 996 OFFCURVE",
"234 822 CURVE SMOOTH",
"174 554 LINE SMOOTH",
"143 411 OFFCURVE",
"190 296 OFFCURVE",
"289 271 CURVE",
"285 313 LINE",
"170 284 OFFCURVE",
"71 184 OFFCURVE",
"71 98 CURVE SMOOTH",
"71 26 OFFCURVE",
"139 -21 OFFCURVE",
"249 -26 CURVE",
"240 15 LINE",
"59 -52 OFFCURVE",
"-32 -135 OFFCURVE",
"-32 -231 CURVE SMOOTH",
"-32 -327 OFFCURVE",
"77 -389 OFFCURVE",
"252 -392 CURVE SMOOTH"
);
},
{
closed = 1;
nodes = (
"214 -222 OFFCURVE",
"175 -201 OFFCURVE",
"175 -158 CURVE SMOOTH",
"175 -106 OFFCURVE",
"234 -59 OFFCURVE",
"363 -9 CURVE",
"181 -32 LINE",
"370 -70 LINE SMOOTH",
"441 -85 OFFCURVE",
"464 -100 OFFCURVE",
"464 -131 CURVE SMOOTH",
"464 -185 OFFCURVE",
"395 -222 OFFCURVE",
"292 -222 CURVE SMOOTH"
);
},
{
closed = 1;
nodes = (
"366 426 OFFCURVE",
"353 460 OFFCURVE",
"366 524 CURVE SMOOTH",
"430 824 LINE SMOOTH",
"444 888 OFFCURVE",
"473 924 OFFCURVE",
"510 924 CURVE SMOOTH",
"547 924 OFFCURVE",
"562 887 OFFCURVE",
"550 824 CURVE SMOOTH",
"486 524 LINE SMOOTH",
"472 461 OFFCURVE",
"443 426 OFFCURVE",
"404 426 CURVE SMOOTH"
);
}
);
width = 684;
},
{
anchors = (
{
name = bottom;
position = "{80, -392}";
},
{
name = top;
position = "{394, 1110}";
}
);
background = {
paths = (
{
closed = 1;
nodes = (
"526 858 LINE",
"528 870 OFFCURVE",
"530 898 OFFCURVE",
"528 906 CURVE",
"540 920 OFFCURVE",
"568 930 OFFCURVE",
"606 930 CURVE",
"644 1110 LINE",
"590 1110 OFFCURVE",
"546 1082 OFFCURVE",
"504 1042 CURVE",
"490 1086 OFFCURVE",
"454 1110 OFFCURVE",
"394 1110 CURVE SMOOTH",
"260 1110 OFFCURVE",
"180 948 OFFCURVE",
"154 832 CURVE SMOOTH",
"90 534 LINE SMOOTH",
"70 442 OFFCURVE",
"82 372 OFFCURVE",
"116 296 CURVE",
"66 258 OFFCURVE",
"12 192 OFFCURVE",
"0 132 CURVE SMOOTH",
"-16 50 OFFCURVE",
"12 8 OFFCURVE",
"54 -14 CURVE",
"52 -14 LINE",
"-6 -52 OFFCURVE",
"-70 -104 OFFCURVE",
"-86 -180 CURVE SMOOTH",
"-112 -308 OFFCURVE",
"-56 -392 OFFCURVE",
"80 -392 CURVE SMOOTH",
"244 -392 OFFCURVE",
"334 -258 OFFCURVE",
"366 -112 CURVE SMOOTH",
"384 -22 OFFCURVE",
"370 36 OFFCURVE",
"344 80 CURVE",
"320 116 OFFCURVE",
"278 130 OFFCURVE",
"238 142 CURVE SMOOTH",
"208 150 OFFCURVE",
"164 170 OFFCURVE",
"172 210 CURVE SMOOTH",
"176 230 OFFCURVE",
"186 248 OFFCURVE",
"194 258 CURVE",
"204 258 LINE SMOOTH",
"340 258 OFFCURVE",
"424 412 OFFCURVE",
"456 528 CURVE"
);
},
{
closed = 1;
nodes = (
"300 524 LINE SMOOTH",
"294 496 OFFCURVE",
"276 426 OFFCURVE",
"250 426 CURVE SMOOTH",
"230 426 OFFCURVE",
"236 486 OFFCURVE",
"244 524 CURVE SMOOTH",
"310 834 LINE SMOOTH",
"318 874 OFFCURVE",
"338 934 OFFCURVE",
"358 934 CURVE SMOOTH",
"384 934 OFFCURVE",
"376 878 OFFCURVE",
"366 834 CURVE SMOOTH"
);
},
{
closed = 1;
nodes = (
"172 -70 LINE",
"196 -80 OFFCURVE",
"218 -100 OFFCURVE",
"208 -148 CURVE",
"198 -188 OFFCURVE",
"162 -222 OFFCURVE",
"118 -222 CURVE SMOOTH",
"74 -222 OFFCURVE",
"62 -188 OFFCURVE",
"72 -146 CURVE",
"80 -104 OFFCURVE",
"106 -74 OFFCURVE",
"128 -54 CURVE"
);
},
{
closed = 1;
nodes = (
"244 -392 OFFCURVE",
"334 -258 OFFCURVE",
"366 -112 CURVE SMOOTH",
"384 -22 OFFCURVE",
"370 36 OFFCURVE",
"344 80 CURVE",
"320 116 OFFCURVE",
"278 130 OFFCURVE",
"238 142 CURVE SMOOTH",
"208 150 OFFCURVE",
"164 170 OFFCURVE",
"172 210 CURVE SMOOTH",
"176 230 OFFCURVE",
"186 248 OFFCURVE",
"194 258 CURVE",
"204 258 LINE SMOOTH",
"340 258 OFFCURVE",
"424 412 OFFCURVE",
"456 528 CURVE",
"526 858 LINE",
"528 870 OFFCURVE",
"530 898 OFFCURVE",
"528 906 CURVE",
"540 920 OFFCURVE",
"568 930 OFFCURVE",
"606 930 CURVE",
"644 1110 LINE",
"590 1110 OFFCURVE",
"546 1082 OFFCURVE",
"504 1042 CURVE",
"490 1086 OFFCURVE",
"454 1110 OFFCURVE",
"394 1110 CURVE SMOOTH",
"260 1110 OFFCURVE",
"180 948 OFFCURVE",
"154 832 CURVE SMOOTH",
"90 534 LINE SMOOTH",
"70 442 OFFCURVE",
"82 372 OFFCURVE",
"116 296 CURVE",
"66 258 OFFCURVE",
"12 192 OFFCURVE",
"0 132 CURVE SMOOTH",
"-16 50 OFFCURVE",
"12 8 OFFCURVE",
"54 -14 CURVE",
"52 -14 LINE",
"-6 -52 OFFCURVE",
"-70 -104 OFFCURVE",
"-86 -180 CURVE SMOOTH",
"-112 -308 OFFCURVE",
"-56 -392 OFFCURVE",
"80 -392 CURVE SMOOTH"
);
},
{
closed = 1;
nodes = (
"74 -222 OFFCURVE",
"62 -188 OFFCURVE",
"72 -146 CURVE",
"80 -104 OFFCURVE",
"106 -74 OFFCURVE",
"128 -54 CURVE",
"172 -70 LINE",
"196 -80 OFFCURVE",
"218 -100 OFFCURVE",
"208 -148 CURVE",
"198 -188 OFFCURVE",
"162 -222 OFFCURVE",
"118 -222 CURVE SMOOTH"
);
},
{
closed = 1;
nodes = (
"230 426 OFFCURVE",
"236 486 OFFCURVE",
"244 524 CURVE SMOOTH",
"310 834 LINE SMOOTH",
"318 874 OFFCURVE",
"338 934 OFFCURVE",
"358 934 CURVE SMOOTH",
"384 934 OFFCURVE",
"376 878 OFFCURVE",
"366 834 CURVE SMOOTH",
"300 524 LINE SMOOTH",
"294 496 OFFCURVE",
"276 426 OFFCURVE",
"250 426 CURVE SMOOTH"
);
}
);
};
layerId = "38BA14EB-08C8-4487-88C1-8F957131FCA1";
paths = (
{
closed = 1;
nodes = (
"218 -392 OFFCURVE",
"328 -284 OFFCURVE",
"366 -112 CURVE SMOOTH",
"397 28 OFFCURVE",
"357 106 OFFCURVE",
"238 142 CURVE SMOOTH",
"185 158 OFFCURVE",
"166 177 OFFCURVE",
"172 210 CURVE SMOOTH",
"177 235 OFFCURVE",
"196 267 OFFCURVE",
"212 278 CURVE",
"180 278 LINE",
"180 262 OFFCURVE",
"185 258 OFFCURVE",
"204 258 CURVE SMOOTH",
"312 258 OFFCURVE",
"425 379 OFFCURVE",
"456 528 CURVE SMOOTH",
"526 858 LINE SMOOTH",
"530 893 OFFCURVE",
"530 923 OFFCURVE",
"524 941 CURVE",
"502 868 LINE",
"522 914 OFFCURVE",
"549 930 OFFCURVE",
"606 930 CURVE",
"644 1110 LINE",
"589 1110 OFFCURVE",
"538 1081 OFFCURVE",
"475 1013 CURVE",
"511 1003 LINE",
"507 1069 OFFCURVE",
"462 1110 OFFCURVE",
"394 1110 CURVE SMOOTH",
"285 1110 OFFCURVE",
"191 1002 OFFCURVE",
"154 832 CURVE SMOOTH",
"90 534 LINE SMOOTH",
"69 437 OFFCURVE",
"81 360 OFFCURVE",
"133 261 CURVE",
"142 314 LINE",
"68 271 OFFCURVE",
"14 202 OFFCURVE",
"0 132 CURVE SMOOTH",
"-14 55 OFFCURVE",
"21 -9 OFFCURVE",
"87 -28 CURVE",
"80 4 LINE",
"-32 -64 OFFCURVE",
"-71 -107 OFFCURVE",
"-86 -180 CURVE SMOOTH",
"-113 -305 OFFCURVE",
"-44 -392 OFFCURVE",
"80 -392 CURVE SMOOTH"
);
},
{
closed = 1;
nodes = (
"77 -222 OFFCURVE",
"61 -195 OFFCURVE",
"72 -146 CURVE SMOOTH",
"82 -103 OFFCURVE",
"109 -65 OFFCURVE",
"149 -37 CURVE",
"76 -35 LINE",
"172 -70 LINE SMOOTH",
"201 -81 OFFCURVE",
"215 -112 OFFCURVE",
"208 -148 CURVE SMOOTH",
"200 -191 OFFCURVE",
"162 -222 OFFCURVE",
"118 -222 CURVE SMOOTH"
);
},
{
closed = 1;
nodes = (
"234 426 OFFCURVE",
"232 465 OFFCURVE",
"244 524 CURVE SMOOTH",
"310 834 LINE SMOOTH",
"322 895 OFFCURVE",
"341 934 OFFCURVE",
"358 934 CURVE SMOOTH",
"376 934 OFFCURVE",
"379 895 OFFCURVE",
"366 834 CURVE SMOOTH",
"300 524 LINE SMOOTH",
"288 467 OFFCURVE",
"267 426 OFFCURVE",
"250 426 CURVE SMOOTH"
);
}
);
width = 490;
},
{
anchors = (
{
name = bottom;
position = "{245, -530}";
},
{
name = top;
position = "{198, 1110}";
}
);
background = {
anchors = (
{
name = top;
position = "{246, 1094}";
}
);
paths = (
{
closed = 1;
nodes = (
"382 858 LINE SMOOTH",
"382 870 OFFCURVE",
"378 898 OFFCURVE",
"374 906 CURVE",
"384 920 OFFCURVE",
"410 930 OFFCURVE",
"448 930 CURVE",
"448 1110 LINE",
"394 1110 OFFCURVE",
"356 1082 OFFCURVE",
"322 1042 CURVE",
"298 1086 OFFCURVE",
"258 1110 OFFCURVE",
"198 1110 CURVE SMOOTH",
"64 1110 OFFCURVE",
"18 948 OFFCURVE",
"16 832 CURVE SMOOTH",
"16 534 LINE SMOOTH",
"16 442 OFFCURVE",
"42 372 OFFCURVE",
"92 296 CURVE",
"50 258 OFFCURVE",
"10 192 OFFCURVE",
"10 132 CURVE SMOOTH",
"10 50 OFFCURVE",
"50 8 OFFCURVE",
"96 -14 CURVE",
"94 -14 LINE",
"42 -52 OFFCURVE",
"-10 -104 OFFCURVE",
"-10 -180 CURVE SMOOTH",
"-10 -308 OFFCURVE",
"64 -392 OFFCURVE",
"202 -392 CURVE SMOOTH",
"366 -392 OFFCURVE",
"428 -258 OFFCURVE",
"428 -112 CURVE SMOOTH",
"428 -22 OFFCURVE",
"402 36 OFFCURVE",
"366 80 CURVE",
"334 116 OFFCURVE",
"290 130 OFFCURVE",
"246 142 CURVE SMOOTH",
"216 150 OFFCURVE",
"166 170 OFFCURVE",
"166 210 CURVE SMOOTH",
"166 230 OFFCURVE",
"172 248 OFFCURVE",
"178 258 CURVE",
"188 258 LINE SMOOTH",
"324 258 OFFCURVE",
"376 412 OFFCURVE",
"382 528 CURVE"
);
},
{
closed = 1;
nodes = (
"228 524 LINE SMOOTH",
"228 496 OFFCURVE",
"224 426 OFFCURVE",
"198 426 CURVE SMOOTH",
"178 426 OFFCURVE",
"172 486 OFFCURVE",
"172 524 CURVE SMOOTH",
"172 834 LINE SMOOTH",
"172 874 OFFCURVE",
"178 934 OFFCURVE",
"198 934 CURVE SMOOTH",
"224 934 OFFCURVE",
"228 878 OFFCURVE",
"228 834 CURVE SMOOTH"
);
},
{
closed = 1;
nodes = (
"226 -70 LINE",
"252 -80 OFFCURVE",
"278 -100 OFFCURVE",
"278 -148 CURVE SMOOTH",
"278 -188 OFFCURVE",
"248 -222 OFFCURVE",
"204 -222 CURVE SMOOTH",
"160 -222 OFFCURVE",
"142 -188 OFFCURVE",
"142 -146 CURVE SMOOTH",
"142 -104 OFFCURVE",
"160 -74 OFFCURVE",
"178 -54 CURVE"
);
},
{
closed = 1;
nodes = (
"366 -392 OFFCURVE",
"428 -258 OFFCURVE",
"428 -112 CURVE SMOOTH",
"428 -22 OFFCURVE",
"402 36 OFFCURVE",
"366 80 CURVE",
"334 116 OFFCURVE",
"290 130 OFFCURVE",
"246 142 CURVE SMOOTH",
"216 150 OFFCURVE",
"166 170 OFFCURVE",
"166 210 CURVE SMOOTH",
"166 230 OFFCURVE",
"172 248 OFFCURVE",
"178 258 CURVE",
"188 258 LINE SMOOTH",
"324 258 OFFCURVE",
"376 412 OFFCURVE",
"382 528 CURVE",
"382 858 LINE SMOOTH",
"382 870 OFFCURVE",
"378 898 OFFCURVE",
"374 906 CURVE",
"384 920 OFFCURVE",
"410 930 OFFCURVE",
"448 930 CURVE",
"448 1110 LINE",
"394 1110 OFFCURVE",
"356 1082 OFFCURVE",
"322 1042 CURVE",
"298 1086 OFFCURVE",
"258 1110 OFFCURVE",
"198 1110 CURVE SMOOTH",
"64 1110 OFFCURVE",
"18 948 OFFCURVE",
"16 832 CURVE SMOOTH",
"16 534 LINE SMOOTH",
"16 442 OFFCURVE",
"42 372 OFFCURVE",
"92 296 CURVE",
"50 258 OFFCURVE",
"10 192 OFFCURVE",
"10 132 CURVE SMOOTH",
"10 50 OFFCURVE",
"50 8 OFFCURVE",
"96 -14 CURVE",
"94 -14 LINE",
"42 -52 OFFCURVE",
"-10 -104 OFFCURVE",
"-10 -180 CURVE SMOOTH",
"-10 -308 OFFCURVE",
"64 -392 OFFCURVE",
"202 -392 CURVE SMOOTH"
);
},
{
closed = 1;
nodes = (
"160 -222 OFFCURVE",
"142 -188 OFFCURVE",
"142 -146 CURVE SMOOTH",
"142 -104 OFFCURVE",
"160 -74 OFFCURVE",
"178 -54 CURVE",
"226 -70 LINE",
"252 -80 OFFCURVE",
"278 -100 OFFCURVE",
"278 -148 CURVE SMOOTH",
"278 -188 OFFCURVE",
"248 -222 OFFCURVE",
"204 -222 CURVE SMOOTH"
);
},
{
closed = 1;
nodes = (
"178 426 OFFCURVE",
"172 486 OFFCURVE",
"172 524 CURVE SMOOTH",
"172 834 LINE SMOOTH",
"172 874 OFFCURVE",
"178 934 OFFCURVE",
"198 934 CURVE SMOOTH",
"224 934 OFFCURVE",
"228 878 OFFCURVE",
"228 834 CURVE SMOOTH",
"228 524 LINE SMOOTH",
"228 496 OFFCURVE",
"224 426 OFFCURVE",
"198 426 CURVE SMOOTH"
);
}
);
};
layerId = "6463F33F-C059-4755-9C76-9F35D70521A0";
paths = (
{
closed = 1;
nodes = (
"341 -392 OFFCURVE",
"428 -285 OFFCURVE",
"428 -112 CURVE SMOOTH",
"428 29 OFFCURVE",
"370 109 OFFCURVE",
"246 142 CURVE SMOOTH",
"189 157 OFFCURVE",
"166 177 OFFCURVE",
"166 210 CURVE SMOOTH",
"166 229 OFFCURVE",
"173 251 OFFCURVE",
"183 265 CURVE",
"158 261 LINE",
"160 259 OFFCURVE",
"174 258 OFFCURVE",
"188 258 CURVE SMOOTH",
"303 258 OFFCURVE",
"382 369 OFFCURVE",
"382 528 CURVE SMOOTH",
"382 858 LINE SMOOTH",
"382 890 OFFCURVE",
"369 928 OFFCURVE",
"355 938 CURVE",
"363 880 LINE",
"363 910 OFFCURVE",
"397 930 OFFCURVE",
"448 930 CURVE",
"448 1110 LINE",
"393 1110 OFFCURVE",
"349 1081 OFFCURVE",
"297 1010 CURVE",
"337 1006 LINE",
"316 1071 OFFCURVE",
"264 1110 OFFCURVE",
"198 1110 CURVE SMOOTH",
"88 1110 OFFCURVE",
"16 1001 OFFCURVE",
"16 832 CURVE SMOOTH",
"16 534 LINE SMOOTH",
"16 437 OFFCURVE",
"44 360 OFFCURVE",
"115 263 CURVE",
"116 315 LINE",
"52 275 OFFCURVE",
"10 201 OFFCURVE",
"10 132 CURVE SMOOTH",
"10 57 OFFCURVE",
"59 -9 OFFCURVE",
"130 -28 CURVE",
"122 5 LINE",
"21 -60 OFFCURVE",
"-10 -104 OFFCURVE",
"-10 -180 CURVE SMOOTH",
"-10 -306 OFFCURVE",
"76 -392 OFFCURVE",
"202 -392 CURVE SMOOTH"
);
},
{
closed = 1;
nodes = (
"164 -222 OFFCURVE",
"142 -195 OFFCURVE",
"142 -146 CURVE SMOOTH",
"142 -104 OFFCURVE",
"161 -66 OFFCURVE",
"197 -36 CURVE",
"126 -37 LINE",
"226 -70 LINE SMOOTH",
"258 -81 OFFCURVE",
"278 -111 OFFCURVE",
"278 -148 CURVE SMOOTH",
"278 -191 OFFCURVE",
"247 -222 OFFCURVE",
"204 -222 CURVE SMOOTH"
);
},
{
closed = 1;
nodes = (
"182 426 OFFCURVE",
"172 464 OFFCURVE",
"172 524 CURVE SMOOTH",
"172 834 LINE SMOOTH",
"172 899 OFFCURVE",
"181 934 OFFCURVE",
"198 934 CURVE SMOOTH",
"216 934 OFFCURVE",
"228 895 OFFCURVE",
"228 834 CURVE SMOOTH",
"228 524 LINE SMOOTH",
"228 469 OFFCURVE",
"215 426 OFFCURVE",
"198 426 CURVE SMOOTH"
);
}
);
width = 490;
}
);
unicode = 0067;
},
{
color = 2;
glyphname = h;
lastChange = "2019-11-22 22:53:53 +0000";
layers = (
{
anchors = (
{
name = bottom;
position = "{337, 0}";
},
{
name = center;
position = "{337, 735}";
},
{
name = top;
position = "{337, 1470}";
}
);
background = {
paths = (
{
closed = 1;
nodes = (
"326 914 OFFCURVE",
"314 902 OFFCURVE",
"300 888 CURVE",
"294 880 OFFCURVE",
"288 872 OFFCURVE",
"282 862 CURVE",
"282 0 LINE",
"80 0 LINE",
"80 1470 LINE",
"282 1470 LINE",
"282 1002 LINE",
"286 1004 OFFCURVE",
"294 1012 OFFCURVE",
"306 1024 CURVE SMOOTH",
"328 1046 OFFCURVE",
"358 1076 OFFCURVE",
"394 1096 CURVE SMOOTH",
"412 1106 OFFCURVE",
"428 1110 OFFCURVE",
"446 1110 CURVE SMOOTH",
"500 1110 OFFCURVE",
"538 1078 OFFCURVE",
"562 1038 CURVE SMOOTH",
"586 996 OFFCURVE",
"598 942 OFFCURVE",
"598 896 CURVE SMOOTH",
"598 0 LINE",
"396 0 LINE",
"396 866 LINE SMOOTH",
"396 908 OFFCURVE",
"372 914 OFFCURVE",
"348 914 CURVE SMOOTH"
);
}
);
};
layerId = "1AB499B8-18A8-432D-A211-B6882CCB886D";
paths = (
{
closed = 1;
nodes = (
"282 0 LINE",
"282 886 LINE",
"267 837 LINE",
"301 896 OFFCURVE",
"320 914 OFFCURVE",
"348 914 CURVE SMOOTH",
"382 914 OFFCURVE",
"396 900 OFFCURVE",
"396 866 CURVE SMOOTH",
"396 0 LINE",
"598 0 LINE",
"598 896 LINE SMOOTH",
"598 1017 OFFCURVE",
"532 1110 OFFCURVE",
"446 1110 CURVE SMOOTH",
"398 1110 OFFCURVE",
"333 1062 OFFCURVE",
"260 974 CURVE",
"282 974 LINE",
"282 1470 LINE",
"80 1470 LINE",
"80 0 LINE"
);
}
);
width = 674;
},
{
anchors = (
{
name = bottom;
position = "{337, 0}";
},
{
name = center;
position = "{337, 735}";
},
{
name = top;
position = "{337, 1470}";
}
);
background = {
paths = (
{
closed = 1;
nodes = (
"282 0 LINE",
"80 0 LINE",
"392 1470 LINE",
"594 1470 LINE",
"494 1002 LINE",
"498 1004 OFFCURVE",
"508 1010 OFFCURVE",
"522 1024 CURVE",
"536 1034 OFFCURVE",
"552 1046 OFFCURVE",
"570 1060 CURVE SMOOTH",
"604 1086 OFFCURVE",
"646 1110 OFFCURVE",
"680 1110 CURVE SMOOTH",
"734 1110 OFFCURVE",
"766 1078 OFFCURVE",
"782 1038 CURVE",
"796 996 OFFCURVE",
"798 942 OFFCURVE",
"788 896 CURVE SMOOTH",
"598 0 LINE",
"396 0 LINE",
"580 866 LINE SMOOTH",
"588 908 OFFCURVE",
"566 914 OFFCURVE",
"542 914 CURVE SMOOTH",
"520 914 OFFCURVE",
"504 902 OFFCURVE",
"488 888 CURVE",
"484 884 OFFCURVE",
"480 880 OFFCURVE",
"476 876 CURVE SMOOTH",
"472 872 OFFCURVE",
"468 868 OFFCURVE",
"464 862 CURVE"
);
}
);
};
layerId = "E10EC336-1202-48FF-9A55-15876E80CDFD";
paths = (
{
closed = 1;
nodes = (
"282 0 LINE",
"469 885 LINE",
"424 816 LINE",
"491 900 OFFCURVE",
"509 914 OFFCURVE",
"549 914 CURVE SMOOTH",
"575 914 OFFCURVE",
"586 897 OFFCURVE",
"580 866 CURVE SMOOTH",
"396 0 LINE",
"598 0 LINE",
"788 896 LINE SMOOTH",
"813 1020 OFFCURVE",
"767 1110 OFFCURVE",
"679 1110 CURVE SMOOTH",
"617 1110 OFFCURVE",
"502 1021 OFFCURVE",
"402 896 CURVE",
"471 896 LINE",
"594 1470 LINE",
"392 1470 LINE",
"80 0 LINE"
);
}
);
width = 674;
},
{
anchors = (
{
name = bottom;
position = "{229, 0}";
},
{
name = center;
position = "{229, 735}";
},
{
name = top;
position = "{229, 1470}";
}
);
background = {
paths = (
{
closed = 1;
nodes = (
"292 862 LINE",
"298 888 OFFCURVE",
"312 934 OFFCURVE",
"334 934 CURVE SMOOTH",
"358 934 OFFCURVE",
"350 886 OFFCURVE",
"344 862 CURVE SMOOTH",
"160 0 LINE",
"310 0 LINE",
"502 896 LINE SMOOTH",
"516 962 OFFCURVE",
"530 1110 OFFCURVE",
"430 1110 CURVE SMOOTH",
"396 1110 OFFCURVE",
"342 1074 OFFCURVE",
"332 1048 CURVE",
"422 1470 LINE",
"264 1470 LINE",
"-48 0 LINE",
"108 0 LINE"
);
}
);
};
layerId = "38BA14EB-08C8-4487-88C1-8F957131FCA1";
paths = (
{
closed = 1;
nodes = (
"108 0 LINE",
"312 955 LINE",
"289 848 LINE",
"301 904 OFFCURVE",
"317 934 OFFCURVE",
"334 934 CURVE SMOOTH",
"351 934 OFFCURVE",
"355 906 OFFCURVE",
"344 862 CURVE SMOOTH",
"160 0 LINE",
"310 0 LINE",
"502 896 LINE SMOOTH",
"529 1022 OFFCURVE",
"499 1110 OFFCURVE",
"430 1110 CURVE SMOOTH",
"374 1110 OFFCURVE",
"312 1050 OFFCURVE",
"287 971 CURVE",
"321 994 LINE",
"422 1470 LINE",
"264 1470 LINE",
"-48 0 LINE"
);
}
);
width = 458;
},
{
anchors = (
{
name = bottom;
position = "{229, 0}";
},
{
name = center;
position = "{229, 735}";
},
{
name = top;
position = "{229, 1470}";
}
);
background = {
paths = (
{
closed = 1;
nodes = (
"188 0 LINE",
"188 862 LINE SMOOTH",
"188 888 OFFCURVE",
"192 934 OFFCURVE",
"214 934 CURVE SMOOTH",
"238 934 OFFCURVE",
"240 886 OFFCURVE",
"240 862 CURVE SMOOTH",
"240 0 LINE",
"390 0 LINE",
"390 896 LINE SMOOTH",
"390 962 OFFCURVE",
"374 1110 OFFCURVE",
"274 1110 CURVE SMOOTH",
"229 1110 OFFCURVE",
"159 1047 OFFCURVE",
"188 1006 CURVE",
"188 993 LINE",
"188 1470 LINE",
"30 1470 LINE",
"30 0 LINE"
);
}
);
};
layerId = "6463F33F-C059-4755-9C76-9F35D70521A0";
paths = (
{
closed = 1;
nodes = (
"188 0 LINE",
"188 939 LINE",
"188 862 LINE",
"188 888 OFFCURVE",
"192 934 OFFCURVE",
"214 934 CURVE SMOOTH",
"238 934 OFFCURVE",
"240 886 OFFCURVE",
"240 862 CURVE SMOOTH",
"240 0 LINE",
"390 0 LINE",
"390 896 LINE SMOOTH",
"390 962 OFFCURVE",
"374 1110 OFFCURVE",
"274 1110 CURVE SMOOTH",
"237 1110 OFFCURVE",
"200 1076 OFFCURVE",
"188 1053 CURVE",
"188 993 LINE",
"188 1470 LINE",
"30 1470 LINE",
"30 0 LINE"
);
}
);
width = 458;
}
);
rightKerningGroup = b;
unicode = 0068;
},
{
color = 0;
glyphname = hbar;
lastChange = "2019-11-22 22:53:53 +0000";
layers = (
{
layerId = "1AB499B8-18A8-432D-A211-B6882CCB886D";
paths = (
{
closed = 1;
nodes = (
"282 0 LINE",
"282 862 LINE",
"288 872 OFFCURVE",
"294 880 OFFCURVE",
"300 888 CURVE",
"314 902 OFFCURVE",
"326 914 OFFCURVE",
"348 914 CURVE SMOOTH",
"372 914 OFFCURVE",
"396 908 OFFCURVE",
"396 866 CURVE SMOOTH",
"396 0 LINE",
"598 0 LINE",
"598 896 LINE SMOOTH",
"598 942 OFFCURVE",
"586 996 OFFCURVE",
"562 1038 CURVE SMOOTH",
"538 1078 OFFCURVE",
"500 1110 OFFCURVE",
"446 1110 CURVE SMOOTH",
"428 1110 OFFCURVE",
"412 1106 OFFCURVE",
"394 1096 CURVE SMOOTH",
"358 1076 OFFCURVE",
"328 1046 OFFCURVE",
"306 1024 CURVE SMOOTH",
"294 1012 OFFCURVE",
"286 1004 OFFCURVE",
"282 1002 CURVE",
"282 1470 LINE",
"80 1470 LINE",
"80 0 LINE"
);
},
{
closed = 1;
nodes = (
"392 1224 LINE",
"392 1382 LINE",
"4 1382 LINE",
"4 1224 LINE"
);
}
);
width = 674;
},
{
layerId = "E10EC336-1202-48FF-9A55-15876E80CDFD";
paths = (
{
closed = 1;
nodes = (
"282 0 LINE",
"464 862 LINE",
"468 868 OFFCURVE",
"472 872 OFFCURVE",
"476 876 CURVE SMOOTH",
"480 880 OFFCURVE",
"484 884 OFFCURVE",
"488 888 CURVE",
"504 902 OFFCURVE",
"520 914 OFFCURVE",
"542 914 CURVE SMOOTH",
"566 914 OFFCURVE",
"588 908 OFFCURVE",
"580 866 CURVE SMOOTH",
"396 0 LINE",
"598 0 LINE",
"788 896 LINE SMOOTH",
"798 942 OFFCURVE",
"796 996 OFFCURVE",
"782 1038 CURVE",
"766 1078 OFFCURVE",
"734 1110 OFFCURVE",
"680 1110 CURVE SMOOTH",
"646 1110 OFFCURVE",
"604 1086 OFFCURVE",
"570 1060 CURVE SMOOTH",
"552 1046 OFFCURVE",
"536 1034 OFFCURVE",
"522 1024 CURVE",
"508 1010 OFFCURVE",
"498 1004 OFFCURVE",
"494 1002 CURVE",
"542 1224 LINE",
"652 1224 LINE",
"684 1382 LINE",
"574 1382 LINE",
"594 1470 LINE",
"392 1470 LINE",
"372 1382 LINE",
"296 1382 LINE",
"264 1224 LINE",
"340 1224 LINE",
"80 0 LINE"
);
}
);
width = 674;
},
{
layerId = "38BA14EB-08C8-4487-88C1-8F957131FCA1";
paths = (
{
closed = 1;
nodes = (
"108 0 LINE",
"292 862 LINE SMOOTH",
"298 888 OFFCURVE",
"312 934 OFFCURVE",
"334 934 CURVE SMOOTH",
"358 934 OFFCURVE",
"350 886 OFFCURVE",
"344 862 CURVE SMOOTH",
"160 0 LINE",
"310 0 LINE",
"502 896 LINE SMOOTH",
"516 962 OFFCURVE",
"530 1110 OFFCURVE",
"430 1110 CURVE SMOOTH",
"396 1110 OFFCURVE",
"344 1076 OFFCURVE",
"332 1050 CURVE",
"370 1224 LINE",
"436 1224 LINE",
"468 1382 LINE",
"402 1382 LINE",
"422 1470 LINE",
"264 1470 LINE",
"244 1382 LINE",
"198 1382 LINE",
"166 1224 LINE",
"212 1224 LINE",
"-48 0 LINE"
);
}
);
width = 464;
},
{
layerId = "6463F33F-C059-4755-9C76-9F35D70521A0";
paths = (
{
closed = 1;
nodes = (
"188 0 LINE",
"188 862 LINE SMOOTH",
"188 888 OFFCURVE",
"192 934 OFFCURVE",
"214 934 CURVE SMOOTH",
"238 934 OFFCURVE",
"240 886 OFFCURVE",
"240 862 CURVE SMOOTH",
"240 0 LINE",
"390 0 LINE",
"390 896 LINE SMOOTH",
"390 962 OFFCURVE",
"374 1110 OFFCURVE",
"274 1110 CURVE SMOOTH",
"240 1110 OFFCURVE",
"194 1076 OFFCURVE",
"188 1050 CURVE",
"188 1224 LINE",
"254 1224 LINE",
"254 1382 LINE",
"188 1382 LINE",
"188 1470 LINE",
"30 1470 LINE",
"30 1382 LINE",
"-16 1382 LINE",
"-16 1224 LINE",
"30 1224 LINE",
"30 0 LINE"
);
}
);
width = 464;
}
);
unicode = 0127;
},
{
color = 3;
glyphname = i;
lastChange = "2019-11-22 22:53:53 +0000";
layers = (
{
anchors = (
{
name = bottom;
position = "{181, 0}";
}
);
layerId = "1AB499B8-18A8-432D-A211-B6882CCB886D";
paths = (
{
closed = 1;
nodes = (
"282 0 LINE",
"282 1094 LINE",
"80 1094 LINE",
"80 0 LINE"
);
},
{
closed = 1;
nodes = (
"282 1268 LINE",
"282 1470 LINE",
"80 1470 LINE",
"80 1268 LINE"
);
}
);
width = 362;
},
{
layerId = "E10EC336-1202-48FF-9A55-15876E80CDFD";
paths = (
{
closed = 1;
nodes = (
"282 0 LINE",
"514 1094 LINE",
"312 1094 LINE",
"80 0 LINE"
);
},
{
closed = 1;
nodes = (
"550 1268 LINE",
"594 1470 LINE",
"392 1470 LINE",
"348 1268 LINE"
);
}
);
width = 362;
},
{
layerId = "38BA14EB-08C8-4487-88C1-8F957131FCA1";
paths = (
{
closed = 1;
nodes = (
"108 0 LINE",
"342 1094 LINE",
"184 1094 LINE",
"-48 0 LINE"
);
},
{
closed = 1;
nodes = (
"378 1268 LINE",
"422 1470 LINE",
"264 1470 LINE",
"220 1268 LINE"
);
}
);
width = 264;
},
{
layerId = "6463F33F-C059-4755-9C76-9F35D70521A0";
paths = (
{
closed = 1;
nodes = (
"188 0 LINE",
"188 1094 LINE",
"30 1094 LINE",
"30 0 LINE"
);
},
{
closed = 1;
nodes = (
"188 1268 LINE",
"188 1470 LINE",
"30 1470 LINE",
"30 1268 LINE"
);
}
);
width = 264;
}
);
leftKerningGroup = l;
rightKerningGroup = l;
unicode = 0069;
},
{
color = 4;
glyphname = dotlessi;
lastChange = "2019-11-22 22:53:53 +0000";
layers = (
{
anchors = (
{
name = bottom;
position = "{181, 0}";
},
{
name = ogonek;
position = "{326, 10}";
},
{
name = top;
position = "{181, 1094}";
}
);
layerId = "1AB499B8-18A8-432D-A211-B6882CCB886D";
paths = (
{
closed = 1;
nodes = (
"282 0 LINE",
"282 1094 LINE",
"80 1094 LINE",
"80 0 LINE"
);
}
);
width = 362;
},
{
layerId = "E10EC336-1202-48FF-9A55-15876E80CDFD";
paths = (
{
closed = 1;
nodes = (
"282 0 LINE",
"514 1094 LINE",
"312 1094 LINE",
"80 0 LINE"
);
}
);
width = 362;
},
{
layerId = "38BA14EB-08C8-4487-88C1-8F957131FCA1";
paths = (
{
closed = 1;
nodes = (
"128 0 LINE",
"362 1094 LINE",
"204 1094 LINE",
"-28 0 LINE"
);
}
);
width = 278;
},
{
layerId = "6463F33F-C059-4755-9C76-9F35D70521A0";
paths = (
{
closed = 1;
nodes = (
"188 0 LINE",
"188 1094 LINE",
"30 1094 LINE",
"30 0 LINE"
);
}
);
width = 278;
}
);
unicode = 0131;
},
